<?xml version="1.0" encoding="UTF-8" standalone="no"?>
<svg
   xmlns:dc="http://purl.org/dc/elements/1.1/"
   xmlns:cc="http://creativecommons.org/ns#"
   xmlns:rdf="http://www.w3.org/1999/02/22-rdf-syntax-ns#"
   xmlns:svg="http://www.w3.org/2000/svg"
   xmlns="http://www.w3.org/2000/svg"
   xmlns:xlink="http://www.w3.org/1999/xlink"
   xmlns:sodipodi="http://sodipodi.sourceforge.net/DTD/sodipodi-0.dtd"
   xmlns:inkscape="http://www.inkscape.org/namespaces/inkscape"
   width="600"
   height="480"
   viewBox="0 0 600 480"
   id="svg2"
   version="1.1"
   inkscape:version="0.48.3.1 r9886"
   sodipodi:docname="graphSpecificity.svg">
  <metadata
     id="metadata192">
    <rdf:RDF>
      <cc:Work
         rdf:about="">
        <dc:format>image/svg+xml</dc:format>
        <dc:type
           rdf:resource="http://purl.org/dc/dcmitype/StillImage" />
      </cc:Work>
    </rdf:RDF>
  </metadata>
  <sodipodi:namedview
     pagecolor="#ffffff"
     bordercolor="#666666"
     borderopacity="1"
     objecttolerance="10"
     gridtolerance="10"
     guidetolerance="10"
     inkscape:pageopacity="0"
     inkscape:pageshadow="2"
     inkscape:window-width="958"
     inkscape:window-height="1023"
     id="namedview190"
     showgrid="false"
     inkscape:zoom="0.72"
     inkscape:cx="369.16808"
     inkscape:cy="160.14214"
     inkscape:window-x="960"
     inkscape:window-y="27"
     inkscape:window-maximized="0"
     inkscape:current-layer="svg2" />
  <desc
     id="desc4">Produced by GNUPLOT 4.2 patchlevel 6  </desc>
  <defs
     id="defs6">
    <circle
       id="gpDot"
       r="0.5"
       stroke-width="0.5" />
    <path
       id="gpPt0"
       stroke-width="0.222"
       stroke="currentColor"
       d="M-1,0 h2 M0,-1 v2" />
    <path
       id="gpPt1"
       stroke-width="0.222"
       stroke="currentColor"
       d="M-1,-1 L1,1 M1,-1 L-1,1" />
    <path
       id="gpPt2"
       stroke-width="0.222"
       stroke="currentColor"
       d="M-1,0 L1,0 M0,-1 L0,1 M-1,-1 L1,1 M-1,1 L1,-1" />
    <rect
       id="gpPt3"
       stroke-width="0.222"
       stroke="currentColor"
       x="-1"
       y="-1"
       width="2"
       height="2" />
    <rect
       id="gpPt4"
       stroke-width="0.222"
       stroke="currentColor"
       fill="currentColor"
       x="-1"
       y="-1"
       width="2"
       height="2" />
    <circle
       id="gpPt5"
       stroke-width="0.222"
       stroke="currentColor"
       cx="0"
       cy="0"
       r="1" />
    <use
       xlink:href="#gpPt5"
       id="gpPt6"
       fill="currentColor"
       stroke="none" />
    <path
       id="gpPt7"
       stroke-width="0.222"
       stroke="currentColor"
       d="M0,-1.33 L-1.33,0.67 L1.33,0.67 z" />
    <use
       xlink:href="#gpPt7"
       id="gpPt8"
       fill="currentColor"
       stroke="none" />
    <use
       xlink:href="#gpPt7"
       id="gpPt9"
       stroke="currentColor"
       transform="rotate(180)" />
    <use
       xlink:href="#gpPt9"
       id="gpPt10"
       fill="currentColor"
       stroke="none" />
    <use
       xlink:href="#gpPt3"
       id="gpPt11"
       stroke="currentColor"
       transform="rotate(45)" />
    <use
       xlink:href="#gpPt11"
       id="gpPt12"
       fill="currentColor"
       stroke="none" />
  </defs>
  <g
     style="fill:none; color:white; stroke:currentColor; stroke-width:1.00; stroke-linecap:butt; stroke-linejoin:miter"
     id="g22" />
  <g
     style="fill:none; color:black; stroke:currentColor; stroke-width:1.00; stroke-linecap:butt; stroke-linejoin:miter"
     id="g24">
    <path
       d="M80.2,422.4 L89.2,422.4 M579.2,422.4 L570.2,422.4 "
       id="path26" />
    <g
       transform="translate(71.9,426.9)"
       style="stroke:none; fill:black; font-family:Arial; font-size:12.00pt; text-anchor:end"
       id="g28">
      <text
         id="text30"> 45</text>
    </g>
    <path
       d="M80.2,341.2 L89.2,341.2 M579.2,341.2 L570.2,341.2 "
       id="path32" />
    <g
       transform="translate(71.9,345.7)"
       style="stroke:none; fill:black; font-family:Arial; font-size:12.00pt; text-anchor:end"
       id="g34">
      <text
         id="text36"> 50</text>
    </g>
    <path
       d="M80.2,260.1 L89.2,260.1 M579.2,260.1 L570.2,260.1 "
       id="path38" />
    <g
       transform="translate(71.9,264.6)"
       style="stroke:none; fill:black; font-family:Arial; font-size:12.00pt; text-anchor:end"
       id="g40">
      <text
         id="text42"> 55</text>
    </g>
    <path
       d="M80.2,178.9 L89.2,178.9 M579.2,178.9 L570.2,178.9 "
       id="path44" />
    <g
       transform="translate(71.9,183.4)"
       style="stroke:none; fill:black; font-family:Arial; font-size:12.00pt; text-anchor:end"
       id="g46">
      <text
         id="text48"> 60</text>
    </g>
    <path
       d="M80.2,97.8 L89.2,97.8 M579.2,97.8 L570.2,97.8 "
       id="path50" />
    <g
       transform="translate(71.9,102.3)"
       style="stroke:none; fill:black; font-family:Arial; font-size:12.00pt; text-anchor:end"
       id="g52">
      <text
         id="text54"> 65</text>
    </g>
    <path
       d="M80.2,16.6 L89.2,16.6 M579.2,16.6 L570.2,16.6 "
       id="path56" />
    <g
       transform="translate(71.9,21.1)"
       style="stroke:none; fill:black; font-family:Arial; font-size:12.00pt; text-anchor:end"
       id="g58">
      <text
         id="text60"> 70</text>
    </g>
    <path
       d="M80.2,422.4 L80.2,413.4 M80.2,16.6 L80.2,25.6 "
       id="path62" />
    <g
       transform="translate(80.2,444.9)"
       style="stroke:none; fill:black; font-family:Arial; font-size:12.00pt; text-anchor:middle"
       id="g64">
      <text
         id="text66"> 0</text>
    </g>
    <path
       d="M130.1,422.4 L130.1,413.4 M130.1,16.6 L130.1,25.6 "
       id="path68" />
    <g
       transform="translate(130.1,444.9)"
       style="stroke:none; fill:black; font-family:Arial; font-size:12.00pt; text-anchor:middle"
       id="g70">
      <text
         id="text72"> 0.2</text>
    </g>
    <path
       d="M180.0,422.4 L180.0,413.4 M180.0,16.6 L180.0,25.6 "
       id="path74" />
    <g
       transform="translate(180.0,444.9)"
       style="stroke:none; fill:black; font-family:Arial; font-size:12.00pt; text-anchor:middle"
       id="g76">
      <text
         id="text78"> 0.4</text>
    </g>
    <path
       d="M229.9,422.4 L229.9,413.4 M229.9,16.6 L229.9,25.6 "
       id="path80" />
    <g
       transform="translate(229.9,444.9)"
       style="stroke:none; fill:black; font-family:Arial; font-size:12.00pt; text-anchor:middle"
       id="g82">
      <text
         id="text84"> 0.6</text>
    </g>
    <path
       d="M279.8,422.4 L279.8,413.4 M279.8,16.6 L279.8,25.6 "
       id="path86" />
    <g
       transform="translate(279.8,444.9)"
       style="stroke:none; fill:black; font-family:Arial; font-size:12.00pt; text-anchor:middle"
       id="g88">
      <text
         id="text90"> 0.8</text>
    </g>
    <path
       d="M329.7,422.4 L329.7,413.4 M329.7,16.6 L329.7,25.6 "
       id="path92" />
    <g
       transform="translate(329.7,444.9)"
       style="stroke:none; fill:black; font-family:Arial; font-size:12.00pt; text-anchor:middle"
       id="g94">
      <text
         id="text96"> 1</text>
    </g>
    <path
       d="M379.6,422.4 L379.6,413.4 M379.6,16.6 L379.6,25.6 "
       id="path98" />
    <g
       transform="translate(379.6,444.9)"
       style="stroke:none; fill:black; font-family:Arial; font-size:12.00pt; text-anchor:middle"
       id="g100">
      <text
         id="text102"> 1.2</text>
    </g>
    <path
       d="M429.5,422.4 L429.5,413.4 M429.5,16.6 L429.5,25.6 "
       id="path104" />
    <g
       transform="translate(429.5,444.9)"
       style="stroke:none; fill:black; font-family:Arial; font-size:12.00pt; text-anchor:middle"
       id="g106">
      <text
         id="text108"> 1.4</text>
    </g>
    <path
       d="M479.4,422.4 L479.4,413.4 M479.4,16.6 L479.4,25.6 "
       id="path110" />
    <g
       transform="translate(479.4,444.9)"
       style="stroke:none; fill:black; font-family:Arial; font-size:12.00pt; text-anchor:middle"
       id="g112">
      <text
         id="text114"> 1.6</text>
    </g>
    <path
       d="M529.3,422.4 L529.3,413.4 M529.3,16.6 L529.3,25.6 "
       id="path116" />
    <g
       transform="translate(529.3,444.9)"
       style="stroke:none; fill:black; font-family:Arial; font-size:12.00pt; text-anchor:middle"
       id="g118">
      <text
         id="text120"> 1.8</text>
    </g>
    <path
       d="M579.2,422.4 L579.2,413.4 M579.2,16.6 L579.2,25.6 "
       id="path122" />
    <g
       transform="translate(579.2,444.9)"
       style="stroke:none; fill:black; font-family:Arial; font-size:12.00pt; text-anchor:middle"
       id="g124">
      <text
         id="text126"> 2</text>
    </g>
    <path
       d="M80.2,16.6 L80.2,422.4 L579.2,422.4 L579.2,16.6 L80.2,16.6 Z "
       id="path128" />
    <g
       transform="translate(34.2,219.5) rotate(-90)"
       style="stroke:none; fill:black; font-family:Arial; font-size:12.00pt; text-anchor:middle"
       id="g130">
      <text
         id="text132"
         style="font-size:28px">Specificity</text>
    </g>
    <g
       transform="translate(329.7,471.9)"
       style="stroke:none; fill:black; font-family:Arial; font-size:12.00pt; text-anchor:middle"
       id="g134">
      <text
         id="text136"
         style="font-size:28px">gamma</text>
    </g>
  </g>
  <g
     style="fill:none; color:red; stroke:currentColor; stroke-width:1.00; stroke-linecap:butt; stroke-linejoin:miter"
     id="g138" />
  <g
     style="fill:none;color:black;stroke:currentColor;stroke-width:1;stroke-linecap:butt;stroke-linejoin:miter"
     id="g140">
    <g
       transform="translate(146.6,354.9)"
       style="stroke:none;fill:black;font-family:Arial;font-size:12pt;text-anchor:end"
       id="g142">
      <text
         id="text144"
         style="font-size:20px"
         x="32"
         y="-6">F-HERD</text>
    </g>
  </g>
  <g
     style="fill:none;color:red;stroke:#000000;stroke-width:2;stroke-linecap:butt;stroke-linejoin:miter;stroke-miterlimit:4;stroke-dasharray:8, 4, 2, 4;stroke-dashoffset:0;stroke-opacity:1"
     id="g146">
    <path
       style="stroke:#000000;stroke-width:2;stroke-miterlimit:4;stroke-opacity:1;stroke-dasharray:8, 4, 2, 4;stroke-dashoffset:0"
       d="m 186.9,344.4 42.2,0"
       id="path3939"
       inkscape:connector-curvature="0" />
    <path
       style="stroke-width:2;stroke-miterlimit:4;stroke-dasharray:8, 4, 2, 4;stroke-dashoffset:0;stroke:#000000;stroke-opacity:1"
       d="m 105.2,97.4 24.9,0 25,0 24.9,0 25,0 24.9,0 25,0 24.9,0 25,0 24.9,0 25,0 24.9,0 25,0 24.9,0 25,0 24.9,0 25,0 24.9,0 25,0 24.9,0"
       id="path148" />
  </g>
  <g
     style="fill:none; color:green; stroke:currentColor; stroke-width:1.00; stroke-linecap:butt; stroke-linejoin:miter"
     id="g150" />
  <g
     style="fill:none; color:black; stroke:currentColor; stroke-width:1.00; stroke-linecap:butt; stroke-linejoin:miter"
     id="g152">
    <g
       transform="translate(146.6,372.9)"
       style="stroke:none; fill:black; font-family:Arial; font-size:12.00pt; text-anchor:end"
       id="g154">
      <text
         id="text156"
         style="font-size:20px"
         x="32"
         y="-6">HERD</text>
    </g>
  </g>
  <g
     style="fill:none;color:green;stroke:#000000;stroke-width:2;stroke-linecap:butt;stroke-linejoin:miter;stroke-opacity:1;stroke-miterlimit:4;stroke-dasharray:16,16;stroke-dashoffset:0"
     id="g158">
    <path
       style="stroke:#000000;stroke-width:2;stroke-miterlimit:4;stroke-opacity:1;stroke-dasharray:16, 16;stroke-dashoffset:0"
       d="m 186.9,362.4 42.2,0"
       id="path3943"
       inkscape:connector-curvature="0" />
    <path
       style="stroke:#000000;stroke-opacity:1;stroke-width:2;stroke-miterlimit:4;stroke-dasharray:16,16;stroke-dashoffset:0"
       d="m 105.2,278.3 24.9,-190 25,-2.7 24.9,-1.1 25,16.6 24.9,13.3 25,21.2 24.9,16.6 25,23.8 24.9,22.6 25,15.6 24.9,26.9 25,17 24.9,20.5 25,18.5 24.9,23.3 25,23.9 24.9,30.4 25,25.2 24.9,5"
       id="path160" />
  </g>
  <g
     style="fill:none; color:blue; stroke:currentColor; stroke-width:1.00; stroke-linecap:butt; stroke-linejoin:miter"
     id="g162" />
  <g
     style="fill:none; color:black; stroke:currentColor; stroke-width:1.00; stroke-linecap:butt; stroke-linejoin:miter"
     id="g164">
    <g
       transform="translate(146.6,390.9)"
       style="stroke:none; fill:black; font-family:Arial; font-size:12.00pt; text-anchor:end"
       id="g166">
      <text
         id="text168"
         style="font-size:20px"
         x="32"
         y="-6">S-HERD</text>
    </g>
  </g>
  <g
     style="fill:none;color:blue;stroke:#000000;stroke-width:2;stroke-linecap:butt;stroke-linejoin:miter;stroke-miterlimit:4;stroke-dasharray:none;stroke-opacity:1"
     id="g170">
    <path
       style="stroke:#000000;stroke-width:2;stroke-miterlimit:4;stroke-opacity:1;stroke-dasharray:none"
       d="m 186.9,380.4 42.2,0"
       id="path3947"
       inkscape:connector-curvature="0" />
    <path
       style="stroke-width:2;stroke-miterlimit:4;stroke-dasharray:none;stroke:#000000;stroke-opacity:1"
       d="m 105.2,233.5 24.9,-187.2 25,4.1 24.9,4.3 25,24.7 24.9,12.5 25,24.4 24.9,18.6 25,24.2 24.9,25.4 25,18.4 24.9,25.8 25,17.2 24.9,20.7 25,18.4 24.9,24.8 25,22.4 24.9,31 25,22.7 24.9,8.7"
       id="path172" />
  </g>
  <g
     style="fill:none; color:cyan; stroke:currentColor; stroke-width:1.00; stroke-linecap:butt; stroke-linejoin:miter"
     id="g174" />
  <g
     style="fill:none; color:black; stroke:currentColor; stroke-width:1.00; stroke-linecap:butt; stroke-linejoin:miter"
     id="g176">
    <g
       transform="translate(146.6,408.9)"
       style="stroke:none; fill:black; font-family:Arial; font-size:12.00pt; text-anchor:end"
       id="g178">
      <text
         id="text180"
         style="font-size:20px"
         x="32"
         y="-6">Viterbi</text>
    </g>
  </g>
  <g
     style="fill:none;color:cyan;stroke:#000000;stroke-width:2;stroke-linecap:butt;stroke-linejoin:miter;stroke-opacity:1;stroke-miterlimit:4;stroke-dasharray:2,6;stroke-dashoffset:0"
     id="g182">
    <path
       style="stroke:#000000;stroke-width:2;stroke-miterlimit:4;stroke-opacity:1;stroke-dasharray:2, 6;stroke-dashoffset:0"
       d="m 186.9,398.4 42.2,0"
       id="path3951"
       inkscape:connector-curvature="0" />
    <path
       style="stroke:#000000;stroke-opacity:1;stroke-width:2;stroke-miterlimit:4;stroke-dasharray:2,6;stroke-dashoffset:0"
       d="m 105.2,293.7 24.9,0 25,0 24.9,0 25,0 24.9,0 25,0 24.9,0 25,0 24.9,0 25,0 24.9,0 25,0 24.9,0 25,0 24.9,0 25,0 24.9,0 25,0 24.9,0"
       id="path184" />
  </g>
  <g
     style="fill:none; color:black; stroke:currentColor; stroke-width:1.00; stroke-linecap:butt; stroke-linejoin:miter"
     id="g186">
    <path
       d="M80.2,16.6 L80.2,422.4 L579.2,422.4 L579.2,16.6 L80.2,16.6 Z "
       id="path188" />
  </g>
</svg>
