<?xml version="1.0" encoding="UTF-8" standalone="no"?>
<!-- Created with Inkscape (http://www.inkscape.org/) -->

<svg
   xmlns:dc="http://purl.org/dc/elements/1.1/"
   xmlns:cc="http://creativecommons.org/ns#"
   xmlns:rdf="http://www.w3.org/1999/02/22-rdf-syntax-ns#"
   xmlns:svg="http://www.w3.org/2000/svg"
   xmlns="http://www.w3.org/2000/svg"
   xmlns:xlink="http://www.w3.org/1999/xlink"
   xmlns:sodipodi="http://sodipodi.sourceforge.net/DTD/sodipodi-0.dtd"
   xmlns:inkscape="http://www.inkscape.org/namespaces/inkscape"
   width="744.09448819"
   height="1052.3622047"
   id="svg5364"
   version="1.1"
   inkscape:version="0.47 r22583"
   sodipodi:docname="herd_graph.svg">
  <sodipodi:namedview
     id="base"
     pagecolor="#ffffff"
     bordercolor="#666666"
     borderopacity="1.0"
     inkscape:pageopacity="0.0"
     inkscape:pageshadow="2"
     inkscape:zoom="2.8"
     inkscape:cx="262.99669"
     inkscape:cy="631.2199"
     inkscape:document-units="px"
     inkscape:current-layer="layer1"
     showgrid="true"
     inkscape:window-width="1280"
     inkscape:window-height="725"
     inkscape:window-x="0"
     inkscape:window-y="24"
     inkscape:window-maximized="1"
     inkscape:snap-global="false">
    <inkscape:grid
       id="grid6005"
       type="xygrid" />
  </sodipodi:namedview>
  <defs
     id="defs5366">
    <marker
       inkscape:stockid="Arrow2Lend"
       orient="auto"
       refY="0.0"
       refX="0.0"
       id="Arrow2Lend"
       style="overflow:visible;">
      <path
         id="path4568"
         style="font-size:12.0;fill-rule:evenodd;stroke-width:0.62500000;stroke-linejoin:round;"
         d="M 8.7185878,4.0337352 L -2.2072895,0.016013256 L 8.7185884,-4.0017078 C 6.9730900,-1.6296469 6.9831476,1.6157441 8.7185878,4.0337352 z "
         transform="scale(1.1) rotate(180) translate(1,0)" />
    </marker>
    <inkscape:perspective
       id="perspective5372"
       inkscape:persp3d-origin="372.04724 : 350.78739 : 1"
       inkscape:vp_z="744.09448 : 526.18109 : 1"
       inkscape:vp_y="0 : 1000 : 0"
       inkscape:vp_x="0 : 526.18109 : 1"
       sodipodi:type="inkscape:persp3d" />
    <inkscape:perspective
       sodipodi:type="inkscape:persp3d"
       inkscape:vp_x="0 : 0.5 : 1"
       inkscape:vp_y="0 : 1000 : 0"
       inkscape:vp_z="1 : 0.5 : 1"
       inkscape:persp3d-origin="0.5 : 0.33333333 : 1"
       id="perspective5985" />
    <inkscape:perspective
       sodipodi:type="inkscape:persp3d"
       inkscape:vp_x="0 : 0.5 : 1"
       inkscape:vp_y="0 : 1000 : 0"
       inkscape:vp_z="1 : 0.5 : 1"
       inkscape:persp3d-origin="0.5 : 0.33333333 : 1"
       id="perspective6596" />
    <inkscape:perspective
       id="perspective7047"
       inkscape:persp3d-origin="0.5 : 0.33333333 : 1"
       inkscape:vp_z="1 : 0.5 : 1"
       inkscape:vp_y="0 : 1000 : 0"
       inkscape:vp_x="0 : 0.5 : 1"
       sodipodi:type="inkscape:persp3d" />
    <inkscape:perspective
       id="perspective7069"
       inkscape:persp3d-origin="0.5 : 0.33333333 : 1"
       inkscape:vp_z="1 : 0.5 : 1"
       inkscape:vp_y="0 : 1000 : 0"
       inkscape:vp_x="0 : 0.5 : 1"
       sodipodi:type="inkscape:persp3d" />
    <inkscape:perspective
       id="perspective7069-3"
       inkscape:persp3d-origin="0.5 : 0.33333333 : 1"
       inkscape:vp_z="1 : 0.5 : 1"
       inkscape:vp_y="0 : 1000 : 0"
       inkscape:vp_x="0 : 0.5 : 1"
       sodipodi:type="inkscape:persp3d" />
    <inkscape:perspective
       id="perspective7069-6"
       inkscape:persp3d-origin="0.5 : 0.33333333 : 1"
       inkscape:vp_z="1 : 0.5 : 1"
       inkscape:vp_y="0 : 1000 : 0"
       inkscape:vp_x="0 : 0.5 : 1"
       sodipodi:type="inkscape:persp3d" />
    <inkscape:perspective
       id="perspective8260"
       inkscape:persp3d-origin="0.5 : 0.33333333 : 1"
       inkscape:vp_z="1 : 0.5 : 1"
       inkscape:vp_y="0 : 1000 : 0"
       inkscape:vp_x="0 : 0.5 : 1"
       sodipodi:type="inkscape:persp3d" />
    <defs
       id="defs6700">
      <g
         id="g6702">
        <symbol
           style="overflow:visible"
           overflow="visible"
           id="textext-f428f521-0">
          <path
             style="stroke:none"
             d=""
             id="path6705" />
        </symbol>
        <symbol
           style="overflow:visible"
           overflow="visible"
           id="textext-f428f521-1">
          <path
             style="stroke:none"
             d="m 3.96875,-6.9375 c -0.046875,-0.125 -0.078125,-0.203125 -0.234375,-0.203125 -0.15625,0 -0.1875,0.0625 -0.234375,0.203125 L 1.4375,-0.984375 C 1.25,-0.46875 0.859375,-0.3125 0.3125,-0.3125 l 0,0.3125 c 0.234375,-0.015625 0.671875,-0.03125 1.015625,-0.03125 0.3125,0 0.828125,0.015625 1.15625,0.03125 l 0,-0.3125 c -0.5,0 -0.75,-0.25 -0.75,-0.5 0,-0.03125 0.015625,-0.140625 0.015625,-0.15625 l 0.46875,-1.296875 2.453125,0 0.53125,1.515625 c 0.015625,0.046875 0.03125,0.109375 0.03125,0.140625 0,0.296875 -0.5625,0.296875 -0.828125,0.296875 l 0,0.3125 c 0.359375,-0.03125 1.0625,-0.03125 1.4375,-0.03125 0.421875,0 0.890625,0.015625 1.296875,0.03125 l 0,-0.3125 -0.171875,0 C 6.375,-0.3125 6.234375,-0.375 6.125,-0.703125 L 3.96875,-6.9375 z m -0.53125,1.109375 1.125,3.25 -2.234375,0 1.109375,-3.25 z m 0,0"
             id="path6708" />
        </symbol>
        <symbol
           style="overflow:visible"
           overflow="visible"
           id="textext-f428f521-2">
          <path
             style="stroke:none"
             d="m 4.5625,-2.515625 c 0,-0.859375 0,-1.15625 -0.3125,-1.515625 -0.140625,-0.171875 -0.46875,-0.375 -1.046875,-0.375 -0.84375,0 -1.28125,0.59375 -1.4375,0.953125 l -0.015625,0 0,-3.46875 -1.4375,0.109375 0,0.3125 c 0.703125,0 0.78125,0.0625 0.78125,0.5625 l 0,5.1875 c 0,0.4375 -0.109375,0.4375 -0.78125,0.4375 l 0,0.3125 c 0.359375,-0.015625 0.859375,-0.03125 1.140625,-0.03125 0.25,0 0.765625,0.015625 1.109375,0.03125 l 0,-0.3125 c -0.671875,0 -0.78125,0 -0.78125,-0.4375 l 0,-1.84375 C 1.78125,-3.625 2.5,-4.1875 3.125,-4.1875 c 0.640625,0 0.75,0.53125 0.75,1.109375 l 0,2.328125 c 0,0.4375 -0.109375,0.4375 -0.78125,0.4375 l 0,0.3125 c 0.34375,-0.015625 0.859375,-0.03125 1.125,-0.03125 0.25,0 0.78125,0.015625 1.109375,0.03125 l 0,-0.3125 c -0.515625,0 -0.765625,0 -0.765625,-0.296875 l 0,-1.90625 z m 0,0"
             id="path6711" />
        </symbol>
        <symbol
           style="overflow:visible"
           overflow="visible"
           id="textext-f428f521-3">
          <path
             style="stroke:none"
             d="M 4.6875,-2.140625 C 4.6875,-3.40625 3.703125,-4.46875 2.5,-4.46875 c -1.25,0 -2.21875,1.09375 -2.21875,2.328125 0,1.296875 1.03125,2.25 2.203125,2.25 1.203125,0 2.203125,-0.984375 2.203125,-2.25 z m -2.1875,2 c -0.4375,0 -0.875,-0.203125 -1.140625,-0.671875 -0.25,-0.4375 -0.25,-1.046875 -0.25,-1.40625 0,-0.390625 0,-0.921875 0.234375,-1.359375 C 1.609375,-4.03125 2.078125,-4.25 2.484375,-4.25 c 0.4375,0 0.859375,0.21875 1.125,0.65625 0.265625,0.421875 0.265625,1 0.265625,1.375 0,0.359375 0,0.90625 -0.21875,1.34375 C 3.421875,-0.421875 2.984375,-0.140625 2.5,-0.140625 z m 0,0"
             id="path6714" />
        </symbol>
        <symbol
           style="overflow:visible"
           overflow="visible"
           id="textext-f428f521-4">
          <path
             style="stroke:none"
             d="m 2.09375,-4.40625 -1.515625,0.109375 0,0.3125 c 0.765625,0 0.859375,0.0625 0.859375,0.5625 l 0,3.9375 c 0,0.453125 -0.09375,1.3125 -0.734375,1.3125 -0.046875,0 -0.28125,0 -0.53125,-0.140625 C 0.3125,1.65625 0.515625,1.515625 0.515625,1.25 0.515625,0.984375 0.34375,0.78125 0.0625,0.78125 c -0.28125,0 -0.46875,0.203125 -0.46875,0.46875 0,0.515625 0.5625,0.796875 1.140625,0.796875 C 1.46875,2.046875 2.09375,1.40625 2.09375,0.5 l 0,-4.90625 z m 0,-1.734375 c 0,-0.296875 -0.234375,-0.53125 -0.53125,-0.53125 -0.28125,0 -0.53125,0.234375 -0.53125,0.53125 0,0.28125 0.25,0.53125 0.53125,0.53125 0.296875,0 0.53125,-0.25 0.53125,-0.53125 z m 0,0"
             id="path6717" />
        </symbol>
        <symbol
           style="overflow:visible"
           overflow="visible"
           id="textext-f428f521-5">
          <path
             style="stroke:none"
             d="m 3.296875,2.390625 c 0,-0.03125 0,-0.046875 -0.171875,-0.21875 C 1.890625,0.921875 1.5625,-0.96875 1.5625,-2.5 c 0,-1.734375 0.375,-3.46875 1.609375,-4.703125 0.125,-0.125 0.125,-0.140625 0.125,-0.171875 0,-0.078125 -0.03125,-0.109375 -0.09375,-0.109375 -0.109375,0 -1,0.6875 -1.59375,1.953125 -0.5,1.09375 -0.625,2.203125 -0.625,3.03125 0,0.78125 0.109375,1.984375 0.65625,3.125 C 2.25,1.84375 3.09375,2.5 3.203125,2.5 c 0.0625,0 0.09375,-0.03125 0.09375,-0.109375 z m 0,0"
             id="path6720" />
        </symbol>
        <symbol
           style="overflow:visible"
           overflow="visible"
           id="textext-f428f521-6">
          <path
             style="stroke:none"
             d="m 0.28125,-1.640625 2.65625,0 0,0.859375 c 0,0.359375 -0.03125,0.46875 -0.765625,0.46875 l -0.203125,0 0,0.3125 C 2.375,-0.03125 2.890625,-0.03125 3.3125,-0.03125 c 0.421875,0 0.9375,0 1.359375,0.03125 l 0,-0.3125 -0.21875,0 c -0.734375,0 -0.75,-0.109375 -0.75,-0.46875 l 0,-0.859375 0.984375,0 0,-0.3125 -0.984375,0 0,-4.53125 c 0,-0.203125 0,-0.265625 -0.171875,-0.265625 -0.078125,0 -0.109375,0 -0.1875,0.125 l -3.0625,4.671875 0,0.3125 z m 2.703125,-0.3125 -2.421875,0 2.421875,-3.71875 0,3.71875 z m 0,0"
             id="path6723" />
        </symbol>
        <symbol
           style="overflow:visible"
           overflow="visible"
           id="textext-f428f521-7">
          <path
             style="stroke:none"
             d="m 4.75,-6.078125 c 0.078125,-0.109375 0.078125,-0.125 0.078125,-0.34375 l -2.421875,0 c -1.203125,0 -1.234375,-0.125 -1.265625,-0.3125 l -0.25,0 -0.328125,2.046875 0.25,0 c 0.03125,-0.15625 0.109375,-0.78125 0.25,-0.90625 0.0625,-0.0625 0.84375,-0.0625 0.96875,-0.0625 l 2.0625,0 C 3.984375,-5.5 3.203125,-4.40625 2.984375,-4.078125 2.078125,-2.734375 1.75,-1.34375 1.75,-0.328125 c 0,0.09375 0,0.546875 0.46875,0.546875 0.453125,0 0.453125,-0.453125 0.453125,-0.546875 l 0,-0.515625 c 0,-0.546875 0.03125,-1.09375 0.109375,-1.625 0.046875,-0.234375 0.171875,-1.09375 0.625,-1.703125 L 4.75,-6.078125 z m 0,0"
             id="path6726" />
        </symbol>
        <symbol
           style="overflow:visible"
           overflow="visible"
           id="textext-f428f521-8">
          <path
             style="stroke:none"
             d="m 4.46875,-1.734375 -0.234375,0 C 4.171875,-1.4375 4.109375,-1 4,-0.84375 3.9375,-0.765625 3.28125,-0.765625 3.0625,-0.765625 l -1.796875,0 1.0625,-1.03125 c 1.546875,-1.375 2.140625,-1.90625 2.140625,-2.90625 0,-1.140625 -0.890625,-1.9375 -2.109375,-1.9375 -1.125,0 -1.859375,0.921875 -1.859375,1.8125 0,0.546875 0.5,0.546875 0.53125,0.546875 0.171875,0 0.515625,-0.109375 0.515625,-0.53125 0,-0.25 -0.1875,-0.515625 -0.53125,-0.515625 -0.078125,0 -0.09375,0 -0.125,0.015625 0.21875,-0.65625 0.765625,-1.015625 1.34375,-1.015625 0.90625,0 1.328125,0.8125 1.328125,1.625 C 3.5625,-3.90625 3.078125,-3.125 2.515625,-2.5 l -1.90625,2.125 C 0.5,-0.265625 0.5,-0.234375 0.5,0 L 4.203125,0 4.46875,-1.734375 z m 0,0"
             id="path6729" />
        </symbol>
        <symbol
           style="overflow:visible"
           overflow="visible"
           id="textext-f428f521-9">
          <path
             style="stroke:none"
             d="m 2.875,-2.5 c 0,-0.765625 -0.109375,-1.96875 -0.65625,-3.109375 -0.59375,-1.21875 -1.453125,-1.875 -1.546875,-1.875 -0.0625,0 -0.109375,0.046875 -0.109375,0.109375 0,0.03125 0,0.046875 0.1875,0.234375 0.984375,0.984375 1.546875,2.5625 1.546875,4.640625 0,1.71875 -0.359375,3.46875 -1.59375,4.71875 C 0.5625,2.34375 0.5625,2.359375 0.5625,2.390625 0.5625,2.453125 0.609375,2.5 0.671875,2.5 0.765625,2.5 1.671875,1.8125 2.25,0.546875 2.765625,-0.546875 2.875,-1.65625 2.875,-2.5 z m 0,0"
             id="path6732" />
        </symbol>
        <symbol
           style="overflow:visible"
           overflow="visible"
           id="textext-f428f521-10">
          <path
             style="stroke:none"
             d="m 3.65625,-3.171875 0,0.328125 c 0,2.328125 -1.03125,2.78125 -1.609375,2.78125 -0.171875,0 -0.71875,-0.015625 -0.984375,-0.359375 0.4375,0 0.515625,-0.28125 0.515625,-0.453125 0,-0.3125 -0.234375,-0.453125 -0.453125,-0.453125 -0.15625,0 -0.453125,0.078125 -0.453125,0.46875 0,0.671875 0.53125,1.078125 1.375,1.078125 1.296875,0 2.515625,-1.359375 2.515625,-3.5 0,-2.6875 -1.15625,-3.359375 -2.046875,-3.359375 -0.546875,0 -1.03125,0.1875 -1.453125,0.625 -0.421875,0.453125 -0.640625,0.875 -0.640625,1.625 0,1.234375 0.875,2.21875 1.984375,2.21875 0.609375,0 1.015625,-0.421875 1.25,-1 z M 2.421875,-2.40625 c -0.15625,0 -0.625,0 -0.921875,-0.625 -0.1875,-0.375 -0.1875,-0.859375 -0.1875,-1.359375 0,-0.53125 0,-1 0.21875,-1.375 0.265625,-0.5 0.640625,-0.625 0.984375,-0.625 0.46875,0 0.796875,0.34375 0.96875,0.78125 0.109375,0.328125 0.15625,0.953125 0.15625,1.40625 0,0.828125 -0.34375,1.796875 -1.21875,1.796875 z m 0,0"
             id="path6735" />
        </symbol>
        <symbol
           style="overflow:visible"
           overflow="visible"
           id="textext-f428f521-11">
          <path
             style="stroke:none"
             d="m 2.890625,-3.515625 c 0.8125,-0.265625 1.390625,-0.953125 1.390625,-1.75 0,-0.8125 -0.875,-1.375 -1.828125,-1.375 -1,0 -1.765625,0.59375 -1.765625,1.359375 0,0.328125 0.21875,0.515625 0.515625,0.515625 0.296875,0 0.5,-0.21875 0.5,-0.515625 0,-0.484375 -0.46875,-0.484375 -0.609375,-0.484375 0.296875,-0.5 0.953125,-0.625 1.3125,-0.625 0.421875,0 0.96875,0.21875 0.96875,1.109375 0,0.125 -0.03125,0.703125 -0.28125,1.140625 C 2.796875,-3.65625 2.453125,-3.625 2.203125,-3.625 2.125,-3.609375 1.890625,-3.59375 1.8125,-3.59375 c -0.078125,0.015625 -0.140625,0.03125 -0.140625,0.125 0,0.109375 0.0625,0.109375 0.234375,0.109375 l 0.4375,0 c 0.8125,0 1.1875,0.671875 1.1875,1.65625 0,1.359375 -0.6875,1.640625 -1.125,1.640625 -0.4375,0 -1.1875,-0.171875 -1.53125,-0.75 0.34375,0.046875 0.65625,-0.171875 0.65625,-0.546875 0,-0.359375 -0.265625,-0.5625 -0.546875,-0.5625 -0.25,0 -0.5625,0.140625 -0.5625,0.578125 0,0.90625 0.921875,1.5625 2.015625,1.5625 1.21875,0 2.125,-0.90625 2.125,-1.921875 0,-0.8125 -0.640625,-1.59375 -1.671875,-1.8125 z m 0,0"
             id="path6738" />
        </symbol>
        <symbol
           style="overflow:visible"
           overflow="visible"
           id="textext-f428f521-12">
          <path
             style="stroke:none"
             d="m 4.46875,-2 c 0,-1.1875 -0.8125,-2.1875 -1.890625,-2.1875 -0.46875,0 -0.90625,0.15625 -1.265625,0.515625 l 0,-1.953125 c 0.203125,0.0625 0.53125,0.125 0.84375,0.125 1.234375,0 1.9375,-0.90625 1.9375,-1.03125 0,-0.0625 -0.03125,-0.109375 -0.109375,-0.109375 0,0 -0.03125,0 -0.078125,0.03125 C 3.703125,-6.515625 3.21875,-6.3125 2.546875,-6.3125 2.15625,-6.3125 1.6875,-6.390625 1.21875,-6.59375 1.140625,-6.625 1.125,-6.625 1.109375,-6.625 1,-6.625 1,-6.546875 1,-6.390625 L 1,-3.4375 c 0,0.171875 0,0.25 0.140625,0.25 0.078125,0 0.09375,-0.015625 0.140625,-0.078125 C 1.390625,-3.421875 1.75,-3.96875 2.5625,-3.96875 c 0.515625,0 0.765625,0.453125 0.84375,0.640625 0.15625,0.375 0.1875,0.75 0.1875,1.25 0,0.359375 0,0.953125 -0.25,1.375 C 3.109375,-0.3125 2.734375,-0.0625 2.28125,-0.0625 c -0.71875,0 -1.296875,-0.53125 -1.46875,-1.109375 0.03125,0 0.0625,0.015625 0.171875,0.015625 0.328125,0 0.5,-0.25 0.5,-0.484375 0,-0.25 -0.171875,-0.5 -0.5,-0.5 C 0.84375,-2.140625 0.5,-2.0625 0.5,-1.609375 0.5,-0.75 1.1875,0.21875 2.296875,0.21875 3.453125,0.21875 4.46875,-0.734375 4.46875,-2 z m 0,0"
             id="path6741" />
        </symbol>
        <symbol
           style="overflow:visible"
           overflow="visible"
           id="textext-f428f521-13">
          <path
             style="stroke:none"
             d=""
             id="path6744" />
        </symbol>
        <symbol
           style="overflow:visible"
           overflow="visible"
           id="textext-f428f521-14">
          <path
             style="stroke:none"
             d="m 2.03125,-0.015625 c 0,-0.65625 -0.25,-1.046875 -0.640625,-1.046875 -0.328125,0 -0.53125,0.25 -0.53125,0.53125 C 0.859375,-0.265625 1.0625,0 1.390625,0 1.5,0 1.640625,-0.046875 1.734375,-0.125 1.765625,-0.15625 1.78125,-0.15625 1.78125,-0.15625 c 0.015625,0 0.015625,0 0.015625,0.140625 0,0.75 -0.34375,1.34375 -0.671875,1.671875 -0.109375,0.109375 -0.109375,0.125 -0.109375,0.15625 0,0.078125 0.046875,0.109375 0.09375,0.109375 0.109375,0 0.921875,-0.765625 0.921875,-1.9375 z m 0,0"
             id="path6747" />
        </symbol>
      </g>
    </defs>
    <defs
       id="defs8881">
      <g
         id="g8883">
        <symbol
           id="textext-8a4aa78a-0"
           overflow="visible"
           style="overflow:visible">
          <path
             id="path8886"
             d=""
             style="stroke:none" />
        </symbol>
        <symbol
           id="textext-8a4aa78a-1"
           overflow="visible"
           style="overflow:visible">
          <path
             id="path8889"
             d="m 3.96875,-6.9375 c -0.046875,-0.125 -0.078125,-0.203125 -0.234375,-0.203125 -0.15625,0 -0.1875,0.0625 -0.234375,0.203125 L 1.4375,-0.984375 C 1.25,-0.46875 0.859375,-0.3125 0.3125,-0.3125 l 0,0.3125 c 0.234375,-0.015625 0.671875,-0.03125 1.015625,-0.03125 0.3125,0 0.828125,0.015625 1.15625,0.03125 l 0,-0.3125 c -0.5,0 -0.75,-0.25 -0.75,-0.5 0,-0.03125 0.015625,-0.140625 0.015625,-0.15625 l 0.46875,-1.296875 2.453125,0 0.53125,1.515625 c 0.015625,0.046875 0.03125,0.109375 0.03125,0.140625 0,0.296875 -0.5625,0.296875 -0.828125,0.296875 l 0,0.3125 c 0.359375,-0.03125 1.0625,-0.03125 1.4375,-0.03125 0.421875,0 0.890625,0.015625 1.296875,0.03125 l 0,-0.3125 -0.171875,0 C 6.375,-0.3125 6.234375,-0.375 6.125,-0.703125 L 3.96875,-6.9375 z m -0.53125,1.109375 1.125,3.25 -2.234375,0 1.109375,-3.25 z m 0,0"
             style="stroke:none" />
        </symbol>
        <symbol
           id="textext-8a4aa78a-2"
           overflow="visible"
           style="overflow:visible">
          <path
             id="path8892"
             d="m 6.84375,-3.265625 c 0.15625,0 0.34375,0 0.34375,-0.1875 C 7.1875,-3.65625 7,-3.65625 6.859375,-3.65625 l -5.96875,0 c -0.140625,0 -0.328125,0 -0.328125,0.203125 0,0.1875 0.1875,0.1875 0.328125,0.1875 l 5.953125,0 z m 0.015625,1.9375 c 0.140625,0 0.328125,0 0.328125,-0.203125 0,-0.1875 -0.1875,-0.1875 -0.34375,-0.1875 l -5.953125,0 c -0.140625,0 -0.328125,0 -0.328125,0.1875 0,0.203125 0.1875,0.203125 0.328125,0.203125 l 5.96875,0 z m 0,0"
             style="stroke:none" />
        </symbol>
        <symbol
           id="textext-8a4aa78a-3"
           overflow="visible"
           style="overflow:visible">
          <path
             id="path8895"
             d="m 4.46875,-2 c 0,-1.1875 -0.8125,-2.1875 -1.890625,-2.1875 -0.46875,0 -0.90625,0.15625 -1.265625,0.515625 l 0,-1.953125 c 0.203125,0.0625 0.53125,0.125 0.84375,0.125 1.234375,0 1.9375,-0.90625 1.9375,-1.03125 0,-0.0625 -0.03125,-0.109375 -0.109375,-0.109375 0,0 -0.03125,0 -0.078125,0.03125 C 3.703125,-6.515625 3.21875,-6.3125 2.546875,-6.3125 2.15625,-6.3125 1.6875,-6.390625 1.21875,-6.59375 1.140625,-6.625 1.125,-6.625 1.109375,-6.625 1,-6.625 1,-6.546875 1,-6.390625 L 1,-3.4375 c 0,0.171875 0,0.25 0.140625,0.25 0.078125,0 0.09375,-0.015625 0.140625,-0.078125 C 1.390625,-3.421875 1.75,-3.96875 2.5625,-3.96875 c 0.515625,0 0.765625,0.453125 0.84375,0.640625 0.15625,0.375 0.1875,0.75 0.1875,1.25 0,0.359375 0,0.953125 -0.25,1.375 C 3.109375,-0.3125 2.734375,-0.0625 2.28125,-0.0625 c -0.71875,0 -1.296875,-0.53125 -1.46875,-1.109375 0.03125,0 0.0625,0.015625 0.171875,0.015625 0.328125,0 0.5,-0.25 0.5,-0.484375 0,-0.25 -0.171875,-0.5 -0.5,-0.5 C 0.84375,-2.140625 0.5,-2.0625 0.5,-1.609375 0.5,-0.75 1.1875,0.21875 2.296875,0.21875 3.453125,0.21875 4.46875,-0.734375 4.46875,-2 z m 0,0"
             style="stroke:none" />
        </symbol>
        <symbol
           id="textext-8a4aa78a-4"
           overflow="visible"
           style="overflow:visible">
          <path
             id="path8898"
             d=""
             style="stroke:none" />
        </symbol>
        <symbol
           id="textext-8a4aa78a-5"
           overflow="visible"
           style="overflow:visible">
          <path
             id="path8901"
             d="m 9.140625,-5.65625 c 0.25,-0.4375 0.484375,-0.796875 1.125,-0.84375 0.07813,-0.015625 0.1875,-0.015625 0.1875,-0.203125 0,-0.03125 -0.04687,-0.109375 -0.125,-0.109375 -0.234375,0 -0.515625,0.03125 -0.765625,0.03125 -0.34375,0 -0.703125,-0.03125 -1.046875,-0.03125 -0.046875,0 -0.1875,0 -0.1875,0.1875 0,0.109375 0.09375,0.125 0.15625,0.125 0.234375,0.015625 0.59375,0.09375 0.59375,0.390625 0,0.109375 -0.0625,0.1875 -0.140625,0.328125 L 6.25,-1.09375 5.875,-6.03125 c 0,-0.203125 -0.015625,-0.453125 0.703125,-0.46875 0.171875,0 0.265625,0 0.265625,-0.203125 0,-0.09375 -0.109375,-0.109375 -0.140625,-0.109375 -0.40625,0 -0.828125,0.03125 -1.21875,0.03125 -0.234375,0 -0.8125,-0.03125 -1.046875,-0.03125 -0.0625,0 -0.1875,0 -0.1875,0.203125 C 4.25,-6.5 4.34375,-6.5 4.484375,-6.5 4.921875,-6.5 5,-6.4375 5.015625,-6.25 l 0.0625,0.765625 -2.53125,4.390625 -0.375,-5.046875 c 0,-0.125 0,-0.34375 0.765625,-0.359375 0.09375,0 0.203125,0 0.203125,-0.203125 C 3.140625,-6.8125 3.015625,-6.8125 3,-6.8125 c -0.390625,0 -0.8125,0.03125 -1.21875,0.03125 -0.359375,0 -0.71875,-0.03125 -1.046875,-0.03125 -0.0625,0 -0.1875,0 -0.1875,0.1875 0,0.125 0.09375,0.125 0.25,0.125 0.5,0 0.515625,0.09375 0.53125,0.375 l 0.453125,6.078125 c 0,0.1875 0.015625,0.265625 0.15625,0.265625 0.109375,0 0.140625,-0.0625 0.234375,-0.203125 l 2.9375,-5.09375 0.359375,5.03125 C 5.5,0.171875 5.515625,0.21875 5.625,0.21875 c 0.140625,0 0.203125,-0.09375 0.25,-0.1875 l 3.265625,-5.6875 z m 0,0"
             style="stroke:none" />
        </symbol>
      </g>
    </defs>
    <defs
       id="defs3096">
      <g
         id="g3098">
        <symbol
           style="overflow:visible"
           overflow="visible"
           id="textext-65b14938-0">
          <path
             style="stroke:none"
             d=""
             id="path3101" />
        </symbol>
        <symbol
           style="overflow:visible"
           overflow="visible"
           id="textext-65b14938-1">
          <path
             style="stroke:none"
             d="m 3.96875,-6.9375 c -0.046875,-0.125 -0.078125,-0.203125 -0.234375,-0.203125 -0.15625,0 -0.1875,0.0625 -0.234375,0.203125 L 1.4375,-0.984375 C 1.25,-0.46875 0.859375,-0.3125 0.3125,-0.3125 l 0,0.3125 c 0.234375,-0.015625 0.671875,-0.03125 1.015625,-0.03125 0.3125,0 0.828125,0.015625 1.15625,0.03125 l 0,-0.3125 c -0.5,0 -0.75,-0.25 -0.75,-0.5 0,-0.03125 0.015625,-0.140625 0.015625,-0.15625 l 0.46875,-1.296875 2.453125,0 0.53125,1.515625 c 0.015625,0.046875 0.03125,0.109375 0.03125,0.140625 0,0.296875 -0.5625,0.296875 -0.828125,0.296875 l 0,0.3125 c 0.359375,-0.03125 1.0625,-0.03125 1.4375,-0.03125 0.421875,0 0.890625,0.015625 1.296875,0.03125 l 0,-0.3125 -0.171875,0 C 6.375,-0.3125 6.234375,-0.375 6.125,-0.703125 L 3.96875,-6.9375 z m -0.53125,1.109375 1.125,3.25 -2.234375,0 1.109375,-3.25 z m 0,0"
             id="path3104" />
        </symbol>
        <symbol
           style="overflow:visible"
           overflow="visible"
           id="textext-65b14938-2">
          <path
             style="stroke:none"
             d="m 2.9375,-1.640625 0,0.859375 c 0,0.359375 -0.03125,0.46875 -0.765625,0.46875 l -0.203125,0 0,0.3125 C 2.375,-0.03125 2.890625,-0.03125 3.3125,-0.03125 c 0.421875,0 0.9375,0 1.359375,0.03125 l 0,-0.3125 -0.21875,0 c -0.734375,0 -0.75,-0.109375 -0.75,-0.46875 l 0,-0.859375 0.984375,0 0,-0.3125 -0.984375,0 0,-4.53125 c 0,-0.203125 0,-0.265625 -0.171875,-0.265625 -0.078125,0 -0.109375,0 -0.1875,0.125 l -3.0625,4.671875 0,0.3125 2.65625,0 z m 0.046875,-0.3125 -2.421875,0 2.421875,-3.71875 0,3.71875 z m 0,0"
             id="path3107" />
        </symbol>
        <symbol
           style="overflow:visible"
           overflow="visible"
           id="textext-65b14938-3">
          <path
             style="stroke:none"
             d="m 2.890625,-3.515625 c 0.8125,-0.265625 1.390625,-0.953125 1.390625,-1.75 0,-0.8125 -0.875,-1.375 -1.828125,-1.375 -1,0 -1.765625,0.59375 -1.765625,1.359375 0,0.328125 0.21875,0.515625 0.515625,0.515625 0.296875,0 0.5,-0.21875 0.5,-0.515625 0,-0.484375 -0.46875,-0.484375 -0.609375,-0.484375 0.296875,-0.5 0.953125,-0.625 1.3125,-0.625 0.421875,0 0.96875,0.21875 0.96875,1.109375 0,0.125 -0.03125,0.703125 -0.28125,1.140625 C 2.796875,-3.65625 2.453125,-3.625 2.203125,-3.625 2.125,-3.609375 1.890625,-3.59375 1.8125,-3.59375 c -0.078125,0.015625 -0.140625,0.03125 -0.140625,0.125 0,0.109375 0.0625,0.109375 0.234375,0.109375 l 0.4375,0 c 0.8125,0 1.1875,0.671875 1.1875,1.65625 0,1.359375 -0.6875,1.640625 -1.125,1.640625 -0.4375,0 -1.1875,-0.171875 -1.53125,-0.75 0.34375,0.046875 0.65625,-0.171875 0.65625,-0.546875 0,-0.359375 -0.265625,-0.5625 -0.546875,-0.5625 -0.25,0 -0.5625,0.140625 -0.5625,0.578125 0,0.90625 0.921875,1.5625 2.015625,1.5625 1.21875,0 2.125,-0.90625 2.125,-1.921875 0,-0.8125 -0.640625,-1.59375 -1.671875,-1.8125 z m 0,0"
             id="path3110" />
        </symbol>
        <symbol
           style="overflow:visible"
           overflow="visible"
           id="textext-65b14938-4">
          <path
             style="stroke:none"
             d="m 4.46875,-2 c 0,-1.1875 -0.8125,-2.1875 -1.890625,-2.1875 -0.46875,0 -0.90625,0.15625 -1.265625,0.515625 l 0,-1.953125 c 0.203125,0.0625 0.53125,0.125 0.84375,0.125 1.234375,0 1.9375,-0.90625 1.9375,-1.03125 0,-0.0625 -0.03125,-0.109375 -0.109375,-0.109375 0,0 -0.03125,0 -0.078125,0.03125 C 3.703125,-6.515625 3.21875,-6.3125 2.546875,-6.3125 2.15625,-6.3125 1.6875,-6.390625 1.21875,-6.59375 1.140625,-6.625 1.125,-6.625 1.109375,-6.625 1,-6.625 1,-6.546875 1,-6.390625 L 1,-3.4375 c 0,0.171875 0,0.25 0.140625,0.25 0.078125,0 0.09375,-0.015625 0.140625,-0.078125 C 1.390625,-3.421875 1.75,-3.96875 2.5625,-3.96875 c 0.515625,0 0.765625,0.453125 0.84375,0.640625 0.15625,0.375 0.1875,0.75 0.1875,1.25 0,0.359375 0,0.953125 -0.25,1.375 C 3.109375,-0.3125 2.734375,-0.0625 2.28125,-0.0625 c -0.71875,0 -1.296875,-0.53125 -1.46875,-1.109375 0.03125,0 0.0625,0.015625 0.171875,0.015625 0.328125,0 0.5,-0.25 0.5,-0.484375 0,-0.25 -0.171875,-0.5 -0.5,-0.5 C 0.84375,-2.140625 0.5,-2.0625 0.5,-1.609375 0.5,-0.75 1.1875,0.21875 2.296875,0.21875 3.453125,0.21875 4.46875,-0.734375 4.46875,-2 z m 0,0"
             id="path3113" />
        </symbol>
        <symbol
           style="overflow:visible"
           overflow="visible"
           id="textext-65b14938-5">
          <path
             style="stroke:none"
             d="m 1.3125,-3.265625 0,-0.25 c 0,-2.515625 1.234375,-2.875 1.75,-2.875 0.234375,0 0.65625,0.0625 0.875,0.40625 -0.15625,0 -0.546875,0 -0.546875,0.4375 0,0.3125 0.234375,0.46875 0.453125,0.46875 0.15625,0 0.46875,-0.09375 0.46875,-0.484375 0,-0.59375 -0.4375,-1.078125 -1.265625,-1.078125 -1.28125,0 -2.625,1.28125 -2.625,3.484375 0,2.671875 1.15625,3.375 2.078125,3.375 1.109375,0 2.0625,-0.9375 2.0625,-2.25 0,-1.265625 -0.890625,-2.21875 -2,-2.21875 -0.671875,0 -1.046875,0.5 -1.25,0.984375 z M 2.5,-0.0625 c -0.625,0 -0.921875,-0.59375 -0.984375,-0.75 -0.1875,-0.46875 -0.1875,-1.265625 -0.1875,-1.4375 0,-0.78125 0.328125,-1.78125 1.21875,-1.78125 0.171875,0 0.625,0 0.9375,0.625 0.171875,0.359375 0.171875,0.875 0.171875,1.359375 0,0.484375 0,0.984375 -0.171875,1.34375 C 3.1875,-0.109375 2.734375,-0.0625 2.5,-0.0625 z m 0,0"
             id="path3116" />
        </symbol>
        <symbol
           style="overflow:visible"
           overflow="visible"
           id="textext-65b14938-6">
          <path
             style="stroke:none"
             d="m 4.75,-6.078125 c 0.078125,-0.109375 0.078125,-0.125 0.078125,-0.34375 l -2.421875,0 c -1.203125,0 -1.234375,-0.125 -1.265625,-0.3125 l -0.25,0 -0.328125,2.046875 0.25,0 c 0.03125,-0.15625 0.109375,-0.78125 0.25,-0.90625 0.0625,-0.0625 0.84375,-0.0625 0.96875,-0.0625 l 2.0625,0 C 3.984375,-5.5 3.203125,-4.40625 2.984375,-4.078125 2.078125,-2.734375 1.75,-1.34375 1.75,-0.328125 c 0,0.09375 0,0.546875 0.46875,0.546875 0.453125,0 0.453125,-0.453125 0.453125,-0.546875 l 0,-0.515625 c 0,-0.546875 0.03125,-1.09375 0.109375,-1.625 0.046875,-0.234375 0.171875,-1.09375 0.625,-1.703125 L 4.75,-6.078125 z m 0,0"
             id="path3119" />
        </symbol>
        <symbol
           style="overflow:visible"
           overflow="visible"
           id="textext-65b14938-7">
          <path
             style="stroke:none"
             d="m 1.625,-4.5625 c -0.453125,-0.296875 -0.5,-0.625 -0.5,-0.796875 0,-0.609375 0.65625,-1.03125 1.359375,-1.03125 0.71875,0 1.359375,0.515625 1.359375,1.234375 0,0.578125 -0.390625,1.046875 -0.984375,1.390625 L 1.625,-4.5625 z m 1.453125,0.953125 C 3.796875,-3.984375 4.28125,-4.5 4.28125,-5.15625 c 0,-0.921875 -0.875,-1.484375 -1.78125,-1.484375 -1,0 -1.8125,0.734375 -1.8125,1.671875 0,0.171875 0.015625,0.625 0.4375,1.09375 0.109375,0.109375 0.484375,0.359375 0.734375,0.53125 C 1.28125,-3.046875 0.421875,-2.5 0.421875,-1.5 c 0,1.046875 1.015625,1.71875 2.0625,1.71875 1.125,0 2.078125,-0.828125 2.078125,-1.890625 0,-0.359375 -0.109375,-0.8125 -0.5,-1.234375 C 3.875,-3.109375 3.71875,-3.203125 3.078125,-3.609375 z m -1,0.421875 1.234375,0.78125 c 0.28125,0.1875 0.75,0.484375 0.75,1.09375 0,0.734375 -0.75,1.25 -1.5625,1.25 -0.859375,0 -1.578125,-0.609375 -1.578125,-1.4375 0,-0.578125 0.3125,-1.21875 1.15625,-1.6875 z m 0,0"
             id="path3122" />
        </symbol>
        <symbol
           style="overflow:visible"
           overflow="visible"
           id="textext-65b14938-8">
          <path
             style="stroke:none"
             d="m 3.65625,-3.171875 0,0.328125 c 0,2.328125 -1.03125,2.78125 -1.609375,2.78125 -0.171875,0 -0.71875,-0.015625 -0.984375,-0.359375 0.4375,0 0.515625,-0.28125 0.515625,-0.453125 0,-0.3125 -0.234375,-0.453125 -0.453125,-0.453125 -0.15625,0 -0.453125,0.078125 -0.453125,0.46875 0,0.671875 0.53125,1.078125 1.375,1.078125 1.296875,0 2.515625,-1.359375 2.515625,-3.5 0,-2.6875 -1.15625,-3.359375 -2.046875,-3.359375 -0.546875,0 -1.03125,0.1875 -1.453125,0.625 -0.421875,0.453125 -0.640625,0.875 -0.640625,1.625 0,1.234375 0.875,2.21875 1.984375,2.21875 0.609375,0 1.015625,-0.421875 1.25,-1 z M 2.421875,-2.40625 c -0.15625,0 -0.625,0 -0.921875,-0.625 -0.1875,-0.375 -0.1875,-0.859375 -0.1875,-1.359375 0,-0.53125 0,-1 0.21875,-1.375 0.265625,-0.5 0.640625,-0.625 0.984375,-0.625 0.46875,0 0.796875,0.34375 0.96875,0.78125 0.109375,0.328125 0.15625,0.953125 0.15625,1.40625 0,0.828125 -0.34375,1.796875 -1.21875,1.796875 z m 0,0"
             id="path3125" />
        </symbol>
        <symbol
           style="overflow:visible"
           overflow="visible"
           id="textext-65b14938-9">
          <path
             style="stroke:none"
             d="m 4.578125,-3.1875 c 0,-0.796875 -0.046875,-1.59375 -0.390625,-2.328125 -0.453125,-0.96875 -1.28125,-1.125 -1.6875,-1.125 -0.609375,0 -1.328125,0.265625 -1.75,1.1875 -0.3125,0.6875 -0.359375,1.46875 -0.359375,2.265625 0,0.75 0.03125,1.640625 0.453125,2.40625 0.421875,0.796875 1.15625,1 1.640625,1 0.53125,0 1.296875,-0.203125 1.734375,-1.15625 0.3125,-0.6875 0.359375,-1.46875 0.359375,-2.25 z M 2.484375,0 C 2.09375,0 1.5,-0.25 1.328125,-1.203125 1.21875,-1.796875 1.21875,-2.71875 1.21875,-3.3125 c 0,-0.640625 0,-1.296875 0.078125,-1.828125 0.1875,-1.1875 0.9375,-1.28125 1.1875,-1.28125 0.328125,0 0.984375,0.1875 1.171875,1.171875 0.109375,0.5625 0.109375,1.3125 0.109375,1.9375 0,0.75 0,1.421875 -0.109375,2.0625 C 3.5,-0.296875 2.9375,0 2.484375,0 z m 0,0"
             id="path3128" />
        </symbol>
        <symbol
           style="overflow:visible"
           overflow="visible"
           id="textext-65b14938-10">
          <path
             style="stroke:none"
             d="m 2.9375,-6.375 c 0,-0.25 0,-0.265625 -0.234375,-0.265625 C 2.078125,-6 1.203125,-6 0.890625,-6 l 0,0.3125 c 0.203125,0 0.78125,0 1.296875,-0.265625 l 0,5.171875 c 0,0.359375 -0.03125,0.46875 -0.921875,0.46875 l -0.3125,0 0,0.3125 c 0.34375,-0.03125 1.203125,-0.03125 1.609375,-0.03125 0.390625,0 1.265625,0 1.609375,0.03125 l 0,-0.3125 -0.3125,0 c -0.90625,0 -0.921875,-0.109375 -0.921875,-0.46875 l 0,-5.59375 z m 0,0"
             id="path3131" />
        </symbol>
        <symbol
           style="overflow:visible"
           overflow="visible"
           id="textext-65b14938-11">
          <path
             style="stroke:none"
             d="m 1.265625,-0.765625 1.0625,-1.03125 c 1.546875,-1.375 2.140625,-1.90625 2.140625,-2.90625 0,-1.140625 -0.890625,-1.9375 -2.109375,-1.9375 -1.125,0 -1.859375,0.921875 -1.859375,1.8125 0,0.546875 0.5,0.546875 0.53125,0.546875 0.171875,0 0.515625,-0.109375 0.515625,-0.53125 0,-0.25 -0.1875,-0.515625 -0.53125,-0.515625 -0.078125,0 -0.09375,0 -0.125,0.015625 0.21875,-0.65625 0.765625,-1.015625 1.34375,-1.015625 0.90625,0 1.328125,0.8125 1.328125,1.625 C 3.5625,-3.90625 3.078125,-3.125 2.515625,-2.5 l -1.90625,2.125 C 0.5,-0.265625 0.5,-0.234375 0.5,0 l 3.703125,0 0.265625,-1.734375 -0.234375,0 C 4.171875,-1.4375 4.109375,-1 4,-0.84375 3.9375,-0.765625 3.28125,-0.765625 3.0625,-0.765625 l -1.796875,0 z m 0,0"
             id="path3134" />
        </symbol>
      </g>
    </defs>
    <inkscape:perspective
       id="perspective3032"
       inkscape:persp3d-origin="0.5 : 0.33333333 : 1"
       inkscape:vp_z="1 : 0.5 : 1"
       inkscape:vp_y="0 : 1000 : 0"
       inkscape:vp_x="0 : 0.5 : 1"
       sodipodi:type="inkscape:persp3d" />
    <inkscape:perspective
       id="perspective3032-5"
       inkscape:persp3d-origin="0.5 : 0.33333333 : 1"
       inkscape:vp_z="1 : 0.5 : 1"
       inkscape:vp_y="0 : 1000 : 0"
       inkscape:vp_x="0 : 0.5 : 1"
       sodipodi:type="inkscape:persp3d" />
  </defs>
  <metadata
     id="metadata5369">
    <rdf:RDF>
      <cc:Work
         rdf:about="">
        <dc:format>image/svg+xml</dc:format>
        <dc:type
           rdf:resource="http://purl.org/dc/dcmitype/StillImage" />
        <dc:title></dc:title>
      </cc:Work>
    </rdf:RDF>
  </metadata>
  <g
     id="layer1"
     inkscape:groupmode="layer"
     inkscape:label="Layer 1">
    <path
       d="m 50,162.36218 a 5,5 0 1 1 -10,0 5,5 0 1 1 10,0 z"
       sodipodi:ry="5"
       sodipodi:rx="5"
       sodipodi:cy="162.36218"
       sodipodi:cx="45"
       id="path2923-42"
       style="fill:#000000;stroke:#000000;stroke-width:0.60000002;stroke-miterlimit:4.0999999;stroke-dasharray:none"
       sodipodi:type="arc"
       transform="translate(130,260)" />
    <path
       inkscape:transform-center-y="15"
       inkscape:transform-center-x="-10"
       d="m 50,162.36218 a 5,5 0 1 1 -10,0 5,5 0 1 1 10,0 z"
       sodipodi:ry="5"
       sodipodi:rx="5"
       sodipodi:cy="162.36218"
       sodipodi:cx="45"
       id="path2923-0-2"
       style="fill:#000000;stroke:#000000;stroke-width:0.60000002;stroke-miterlimit:4.0999999;stroke-dasharray:none"
       sodipodi:type="arc"
       transform="translate(145,260)" />
    <path
       d="m 50,162.36218 a 5,5 0 1 1 -10,0 5,5 0 1 1 10,0 z"
       sodipodi:ry="5"
       sodipodi:rx="5"
       sodipodi:cy="162.36218"
       sodipodi:cx="45"
       id="path2923-2-6"
       style="fill:#000000;stroke:#000000;stroke-width:0.60000002;stroke-miterlimit:4.0999999;stroke-dasharray:none"
       sodipodi:type="arc"
       transform="translate(160,260)" />
    <path
       inkscape:transform-center-y="15"
       inkscape:transform-center-x="-10"
       d="m 50,162.36218 a 5,5 0 1 1 -10,0 5,5 0 1 1 10,0 z"
       sodipodi:ry="5"
       sodipodi:rx="5"
       sodipodi:cy="162.36218"
       sodipodi:cx="45"
       id="path2923-0-0-4"
       style="fill:#000000;stroke:#000000;stroke-width:0.60000002;stroke-miterlimit:4.0999999;stroke-dasharray:none"
       sodipodi:type="arc"
       transform="translate(175,260)" />
    <path
       d="m 50,162.36218 a 5,5 0 1 1 -10,0 5,5 0 1 1 10,0 z"
       sodipodi:ry="5"
       sodipodi:rx="5"
       sodipodi:cy="162.36218"
       sodipodi:cx="45"
       id="path2923-4-1"
       style="fill:#ffffff;stroke:#000000;stroke-width:0.60000002;stroke-miterlimit:4.0999999;stroke-dasharray:none"
       sodipodi:type="arc"
       transform="translate(190,260)" />
    <path
       inkscape:transform-center-y="15"
       inkscape:transform-center-x="-10"
       d="m 50,162.36218 a 5,5 0 1 1 -10,0 5,5 0 1 1 10,0 z"
       sodipodi:ry="5"
       sodipodi:rx="5"
       sodipodi:cy="162.36218"
       sodipodi:cx="45"
       id="path2923-0-09-28"
       style="fill:#ffffff;stroke:#000000;stroke-width:0.60000002;stroke-miterlimit:4.0999999;stroke-dasharray:none"
       sodipodi:type="arc"
       transform="translate(205,260)" />
    <path
       d="m 50,162.36218 a 5,5 0 1 1 -10,0 5,5 0 1 1 10,0 z"
       sodipodi:ry="5"
       sodipodi:rx="5"
       sodipodi:cy="162.36218"
       sodipodi:cx="45"
       id="path2923-2-1-8"
       style="fill:#808080;stroke:#000000;stroke-width:0.60000001999999997;stroke-miterlimit:4.09999990000000025;stroke-dasharray:none"
       sodipodi:type="arc"
       transform="translate(220,260)" />
    <path
       inkscape:transform-center-y="15"
       inkscape:transform-center-x="-10"
       d="m 50,162.36218 a 5,5 0 1 1 -10,0 5,5 0 1 1 10,0 z"
       sodipodi:ry="5"
       sodipodi:rx="5"
       sodipodi:cy="162.36218"
       sodipodi:cx="45"
       id="path2923-0-0-9-9"
       style="fill:#808080;stroke:#000000;stroke-width:0.60000001999999997;stroke-miterlimit:4.09999990000000025;stroke-dasharray:none"
       sodipodi:type="arc"
       transform="translate(235,260)" />
    <path
       d="m 50,162.36218 a 5,5 0 1 1 -10,0 5,5 0 1 1 10,0 z"
       sodipodi:ry="5"
       sodipodi:rx="5"
       sodipodi:cy="162.36218"
       sodipodi:cx="45"
       id="path2923-3-2"
       style="fill:#808080;stroke:#000000;stroke-width:0.60000001999999997;stroke-miterlimit:4.09999990000000025;stroke-dasharray:none"
       sodipodi:type="arc"
       transform="translate(250,260)" />
    <path
       inkscape:transform-center-y="15"
       inkscape:transform-center-x="-10"
       d="m 50,162.36218 a 5,5 0 1 1 -10,0 5,5 0 1 1 10,0 z"
       sodipodi:ry="5"
       sodipodi:rx="5"
       sodipodi:cy="162.36218"
       sodipodi:cx="45"
       id="path2923-0-6-8"
       style="fill:#ffffff;stroke:#000000;stroke-width:0.60000002;stroke-miterlimit:4.0999999;stroke-dasharray:none"
       sodipodi:type="arc"
       transform="translate(265,260)" />
    <path
       d="m 50,162.36218 a 5,5 0 1 1 -10,0 5,5 0 1 1 10,0 z"
       sodipodi:ry="5"
       sodipodi:rx="5"
       sodipodi:cy="162.36218"
       sodipodi:cx="45"
       id="path2923-2-0-8"
       style="fill:#ffffff;stroke:#000000;stroke-width:0.60000002;stroke-miterlimit:4.0999999;stroke-dasharray:none"
       sodipodi:type="arc"
       transform="translate(280,260)" />
    <path
       inkscape:transform-center-y="15"
       inkscape:transform-center-x="-10"
       d="m 50,162.36218 a 5,5 0 1 1 -10,0 5,5 0 1 1 10,0 z"
       sodipodi:ry="5"
       sodipodi:rx="5"
       sodipodi:cy="162.36218"
       sodipodi:cx="45"
       id="path2923-0-0-5-8"
       style="fill:#ffffff;stroke:#000000;stroke-width:0.60000002;stroke-miterlimit:4.0999999;stroke-dasharray:none"
       sodipodi:type="arc"
       transform="translate(295,260)" />
    <path
       d="m 50,162.36218 a 5,5 0 1 1 -10,0 5,5 0 1 1 10,0 z"
       sodipodi:ry="5"
       sodipodi:rx="5"
       sodipodi:cy="162.36218"
       sodipodi:cx="45"
       id="path2923-4-0-6"
       style="fill:#ffffff;stroke:#000000;stroke-width:0.60000002;stroke-miterlimit:4.0999999;stroke-dasharray:none"
       sodipodi:type="arc"
       transform="translate(310,260)" />
    <path
       inkscape:transform-center-y="15"
       inkscape:transform-center-x="-10"
       d="m 50,162.36218 a 5,5 0 1 1 -10,0 5,5 0 1 1 10,0 z"
       sodipodi:ry="5"
       sodipodi:rx="5"
       sodipodi:cy="162.36218"
       sodipodi:cx="45"
       id="path2923-0-09-2-8"
       style="fill:#ffffff;stroke:#000000;stroke-width:0.60000002;stroke-miterlimit:4.0999999;stroke-dasharray:none"
       sodipodi:type="arc"
       transform="translate(325,260)" />
    <path
       d="m 50,162.36218 a 5,5 0 1 1 -10,0 5,5 0 1 1 10,0 z"
       sodipodi:ry="5"
       sodipodi:rx="5"
       sodipodi:cy="162.36218"
       sodipodi:cx="45"
       id="path2923-2-1-9-3"
       style="fill:#000000;stroke:#000000;stroke-width:0.60000002;stroke-miterlimit:4.0999999;stroke-dasharray:none"
       sodipodi:type="arc"
       transform="translate(340,260)" />
    <path
       inkscape:transform-center-y="15"
       inkscape:transform-center-x="-10"
       d="m 50,162.36218 a 5,5 0 1 1 -10,0 5,5 0 1 1 10,0 z"
       sodipodi:ry="5"
       sodipodi:rx="5"
       sodipodi:cy="162.36218"
       sodipodi:cx="45"
       id="path2923-0-0-9-4-8"
       style="fill:#000000;stroke:#000000;stroke-width:0.60000002;stroke-miterlimit:4.0999999;stroke-dasharray:none"
       sodipodi:type="arc"
       transform="translate(355,260)" />
    <path
       inkscape:connector-type="polyline"
       id="path7153"
       d="m 222.56123,382.15161 19.87755,5.42115"
       style="fill:none;stroke:#000000;stroke-width:1px;stroke-linecap:butt;stroke-linejoin:miter;stroke-opacity:1;marker-end:url(#Arrow2Lend)" />
    <path
       style="fill:none;stroke:#000000;stroke-width:1px;stroke-linecap:butt;stroke-linejoin:miter;stroke-opacity:1;marker-end:url(#Arrow2Lend)"
       d="m 169.14214,395.29111 21.71572,-10.85786"
       id="path8369"
       inkscape:connector-type="polyline"
       inkscape:connection-start="#path7037-3-0" />
    <path
       transform="translate(-15,-10)"
       d="m 240,387.36218 a 20,10 0 1 1 -40,0 20,10 0 1 1 40,0 z"
       sodipodi:ry="10"
       sodipodi:rx="20"
       sodipodi:cy="387.36218"
       sodipodi:cx="220"
       id="path7037"
       style="fill:#ffffff;stroke:#000000;stroke-width:0.60000001999999997;stroke-miterlimit:4.09999990000000025;stroke-dasharray:none"
       sodipodi:type="arc" />
    <g
       transform="translate(-57.302875,75.143433)"
       id="g6991">
      <g
         style="fill:#000000;fill-opacity:1"
         id="g6762"
         transform="translate(0,170)">
        <use
           height="1052.3622"
           width="744.09448"
           xlink:href="#textext-f428f521-5"
           x="248.3405"
           y="134.765"
           id="use6764" />
        <use
           height="1052.3622"
           width="744.09448"
           xlink:href="#textext-f428f521-6"
           x="252.21495"
           y="134.765"
           id="use6766" />
        <use
           height="1052.3622"
           width="744.09448"
           xlink:href="#textext-f428f521-7"
           x="257.19626"
           y="134.765"
           id="use6768" />
      </g>
      <g
         style="fill:#000000;fill-opacity:1"
         id="g6770"
         transform="translate(0,170)">
        <use
           height="1052.3622"
           width="744.09448"
           xlink:href="#textext-f428f521-14"
           x="262.17599"
           y="134.765"
           id="use6772" />
      </g>
      <g
         style="fill:#000000;fill-opacity:1"
         id="g6774"
         transform="translate(0,170)">
        <use
           height="1052.3622"
           width="744.09448"
           xlink:href="#textext-f428f521-8"
           x="266.604"
           y="134.765"
           id="use6776" />
        <use
           height="1052.3622"
           width="744.09448"
           xlink:href="#textext-f428f521-9"
           x="271.5853"
           y="134.765"
           id="use6778" />
      </g>
    </g>
    <path
       inkscape:connector-type="polyline"
       id="path7872"
       d="m 272.80401,384.67978 24.39198,-14.63519"
       style="fill:none;stroke:#000000;stroke-width:1px;stroke-linecap:butt;stroke-linejoin:miter;stroke-opacity:1;marker-end:url(#Arrow2Lend)" />
    <g
       id="g3843">
      <path
         transform="translate(40,5.000002)"
         sodipodi:type="arc"
         style="fill:#666666;stroke:#000000;stroke-width:0.60000002;stroke-miterlimit:4.0999999;stroke-dasharray:none"
         id="path7037-3"
         sodipodi:cx="220"
         sodipodi:cy="387.36218"
         sodipodi:rx="20"
         sodipodi:ry="10"
         d="m 240,387.36218 a 20,10 0 1 1 -40,0 20,10 0 1 1 40,0 z" />
      <g
         id="g7002"
         transform="translate(-32.421875,89.768435)"
         style="fill:#ffffff">
        <g
           transform="translate(0,170)"
           id="g6780"
           style="fill:#ffffff;fill-opacity:1">
          <use
             id="use6782"
             y="134.765"
             x="278.77731"
             xlink:href="#textext-f428f521-5"
             width="744.09448"
             height="1052.3622"
             style="fill:#ffffff" />
          <use
             id="use6784"
             y="134.765"
             x="282.65176"
             xlink:href="#textext-f428f521-6"
             width="744.09448"
             height="1052.3622"
             style="fill:#ffffff" />
          <use
             id="use6786"
             y="134.765"
             x="287.63306"
             xlink:href="#textext-f428f521-10"
             width="744.09448"
             height="1052.3622"
             style="fill:#ffffff" />
        </g>
        <g
           transform="translate(0,170)"
           id="g6788"
           style="fill:#ffffff;fill-opacity:1">
          <use
             id="use6790"
             y="134.765"
             x="292.617"
             xlink:href="#textext-f428f521-14"
             width="744.09448"
             height="1052.3622"
             style="fill:#ffffff" />
        </g>
        <g
           transform="translate(0,170)"
           id="g6792"
           style="fill:#ffffff;fill-opacity:1">
          <use
             id="use6794"
             y="134.765"
             x="297.04501"
             xlink:href="#textext-f428f521-11"
             width="744.09448"
             height="1052.3622"
             style="fill:#ffffff" />
          <use
             id="use6796"
             y="134.765"
             x="302.02631"
             xlink:href="#textext-f428f521-9"
             width="744.09448"
             height="1052.3622"
             style="fill:#ffffff" />
        </g>
      </g>
    </g>
    <path
       d="m 240,387.36218 a 20,10 0 1 1 -40,0 20,10 0 1 1 40,0 z"
       sodipodi:ry="10"
       sodipodi:rx="20"
       sodipodi:cy="387.36218"
       sodipodi:cx="220"
       id="path7037-3-8"
       style="fill:#ffffff;stroke:#000000;stroke-width:0.60000001999999997;stroke-miterlimit:4.09999990000000025;stroke-dasharray:none"
       sodipodi:type="arc"
       transform="translate(90,-25)" />
    <g
       transform="translate(-12.875,59.862183)"
       id="g7013">
      <g
         style="fill:#000000;fill-opacity:1"
         id="g6798"
         transform="translate(0,170)">
        <use
           height="1052.3622"
           width="744.09448"
           xlink:href="#textext-f428f521-5"
           x="309.21829"
           y="134.765"
           id="use6800" />
        <use
           height="1052.3622"
           width="744.09448"
           xlink:href="#textext-f428f521-12"
           x="313.09274"
           y="134.765"
           id="use6802" />
        <use
           height="1052.3622"
           width="744.09448"
           xlink:href="#textext-f428f521-8"
           x="318.07407"
           y="134.765"
           id="use6804" />
      </g>
      <g
         style="fill:#000000;fill-opacity:1"
         id="g6806"
         transform="translate(0,170)">
        <use
           height="1052.3622"
           width="744.09448"
           xlink:href="#textext-f428f521-14"
           x="323.05899"
           y="134.765"
           id="use6808" />
      </g>
      <g
         style="fill:#000000;fill-opacity:1"
         id="g6810"
         transform="translate(0,170)">
        <use
           height="1052.3622"
           width="744.09448"
           xlink:href="#textext-f428f521-12"
           x="327.48599"
           y="134.765"
           id="use6812" />
        <use
           height="1052.3622"
           width="744.09448"
           xlink:href="#textext-f428f521-9"
           x="332.46729"
           y="134.765"
           id="use6814" />
      </g>
    </g>
    <path
       d="m 240,387.36218 a 20,10 0 1 1 -40,0 20,10 0 1 1 40,0 z"
       sodipodi:ry="10"
       sodipodi:rx="20"
       sodipodi:cy="387.36218"
       sodipodi:cx="220"
       id="path7037-3-0"
       style="fill:none;stroke:#000000;stroke-width:0.59999999999999998;stroke-miterlimit:4.09999990000000025;stroke-dasharray:none;fill-opacity:1"
       sodipodi:type="arc"
       transform="translate(-65,15)" />
    <g
       transform="translate(-2.14062,94.971558)"
       id="g7101">
      <path
         transform="translate(142.14062,-89.971558)"
         sodipodi:type="arc"
         style="fill:#000000;stroke:#000000;stroke-width:0.60000002;stroke-miterlimit:4.0999999;stroke-dasharray:none"
         id="path7037-3-5"
         sodipodi:cx="220"
         sodipodi:cy="387.36218"
         sodipodi:rx="20"
         sodipodi:ry="10"
         d="m 240,387.36218 c 0,5.52285 -8.95431,10 -20,10 -11.04569,0 -20,-4.47715 -20,-10 0,-5.52284 8.95431,-10 20,-10 11.04569,0 20,4.47716 20,10 z" />
      <g
         id="g7024"
         transform="translate(8.84375,-5.0000004)"
         style="fill:#ffffff">
        <g
           transform="translate(0,170)"
           id="g6816"
           style="fill:#ffffff;fill-opacity:1">
          <use
             id="use6818"
             y="134.765"
             x="339.6593"
             xlink:href="#textext-f428f521-5"
             width="744.09448"
             height="1052.3622"
             style="fill:#ffffff" />
          <use
             id="use6820"
             y="134.765"
             x="343.53375"
             xlink:href="#textext-f428f521-12"
             width="744.09448"
             height="1052.3622"
             style="fill:#ffffff" />
          <use
             id="use6822"
             y="134.765"
             x="348.51505"
             xlink:href="#textext-f428f521-7"
             width="744.09448"
             height="1052.3622"
             style="fill:#ffffff" />
        </g>
        <g
           transform="translate(0,170)"
           id="g6824"
           style="fill:#ffffff;fill-opacity:1">
          <use
             id="use6826"
             y="134.765"
             x="353.5"
             xlink:href="#textext-f428f521-14"
             width="744.09448"
             height="1052.3622"
             style="fill:#ffffff" />
        </g>
        <g
           transform="translate(0,170)"
           id="g6828"
           style="fill:#ffffff;fill-opacity:1">
          <use
             id="use6830"
             y="134.765"
             x="357.92801"
             xlink:href="#textext-f428f521-8"
             width="744.09448"
             height="1052.3622"
             style="fill:#ffffff" />
          <use
             id="use6832"
             y="134.765"
             x="362.9093"
             xlink:href="#textext-f428f521-9"
             width="744.09448"
             height="1052.3622"
             style="fill:#ffffff" />
        </g>
      </g>
    </g>
    <path
       inkscape:connection-end="#g7101"
       inkscape:connector-type="polyline"
       id="path8058"
       d="m 322.80401,370.04459 24.39198,14.63519"
       style="fill:none;stroke:#000000;stroke-width:1px;stroke-linecap:butt;stroke-linejoin:miter;stroke-opacity:1;marker-end:url(#Arrow2Lend)" />
    <path
       style="fill:none;stroke:#000000;stroke-width:1px;stroke-linecap:butt;stroke-linejoin:miter;stroke-opacity:1;marker-end:url(#Arrow2Lend)"
       d="m 372.0007,384.36171 20.9986,-13.99906"
       id="path8371"
       inkscape:connector-type="polyline"
       inkscape:connection-start="#g7101"
       inkscape:connection-end="#path7037-3-0-9" />
    <g
       transform="translate(-38.328125,10.046878)"
       id="g9097">
      <g
         id="g8908"
         style="fill:#000000;fill-opacity:1"
         transform="translate(-52.140625,217.36218)">
        <use
           id="use8910"
           y="134.765"
           x="234.22501"
           xlink:href="#textext-8a4aa78a-5"
           width="744.09448"
           height="1052.3622" />
      </g>
      <g
         id="g8912"
         style="fill:#000000;fill-opacity:1"
         transform="translate(-52.140625,217.36218)">
        <use
           id="use8914"
           y="134.765"
           x="247.785"
           xlink:href="#textext-8a4aa78a-2"
           width="744.09448"
           height="1052.3622" />
      </g>
      <g
         id="g8916"
         style="fill:#000000;fill-opacity:1"
         transform="translate(-52.140625,217.36218)">
        <use
           id="use8918"
           y="134.765"
           x="258.30353"
           xlink:href="#textext-8a4aa78a-3"
           width="744.09448"
           height="1052.3622" />
      </g>
    </g>
    <g
       id="g3141"
       style="fill:#000000;fill-opacity:1"
       transform="translate(-64.6875,304.31531)">
      <use
         id="use3143"
         y="134.765"
         x="234.2215"
         xlink:href="#textext-65b14938-2"
         width="744.09448"
         height="1052.3622" />
      <use
         id="use3145"
         y="134.765"
         x="239.20279"
         xlink:href="#textext-65b14938-3"
         width="744.09448"
         height="1052.3622" />
    </g>
    <g
       id="g3147"
       style="fill:#000000;fill-opacity:1"
       transform="translate(-62.984375,304.31531)">
      <use
         id="use3149"
         y="134.765"
         x="247.5116"
         xlink:href="#textext-65b14938-2"
         width="744.09448"
         height="1052.3622" />
      <use
         id="use3151"
         y="134.765"
         x="252.4929"
         xlink:href="#textext-65b14938-2"
         width="744.09448"
         height="1052.3622" />
    </g>
    <g
       id="g3153"
       style="fill:#000000;fill-opacity:1"
       transform="translate(-60.5625,304.31531)">
      <use
         id="use3155"
         y="134.765"
         x="260.79175"
         xlink:href="#textext-65b14938-2"
         width="744.09448"
         height="1052.3622" />
      <use
         id="use3157"
         y="134.765"
         x="265.77304"
         xlink:href="#textext-65b14938-4"
         width="744.09448"
         height="1052.3622" />
    </g>
    <g
       id="g3159"
       style="fill:#000000;fill-opacity:1"
       transform="translate(-59.6875,304.31531)">
      <use
         id="use3161"
         y="134.765"
         x="274.0719"
         xlink:href="#textext-65b14938-2"
         width="744.09448"
         height="1052.3622" />
      <use
         id="use3163"
         y="134.765"
         x="279.05319"
         xlink:href="#textext-65b14938-5"
         width="744.09448"
         height="1052.3622" />
    </g>
    <g
       id="g3165"
       style="fill:#000000;fill-opacity:1"
       transform="translate(-57.984375,304.31531)">
      <use
         id="use3167"
         y="134.765"
         x="287.362"
         xlink:href="#textext-65b14938-2"
         width="744.09448"
         height="1052.3622" />
      <use
         id="use3169"
         y="134.765"
         x="292.34329"
         xlink:href="#textext-65b14938-6"
         width="744.09448"
         height="1052.3622" />
    </g>
    <g
       id="g3171"
       style="fill:#000000;fill-opacity:1"
       transform="translate(-55.5625,304.31531)">
      <use
         id="use3173"
         y="134.765"
         x="300.64215"
         xlink:href="#textext-65b14938-2"
         width="744.09448"
         height="1052.3622" />
      <use
         id="use3175"
         y="134.765"
         x="305.62344"
         xlink:href="#textext-65b14938-7"
         width="744.09448"
         height="1052.3622" />
    </g>
    <g
       id="g3177"
       style="fill:#000000;fill-opacity:1"
       transform="translate(-53.703125,304.31531)">
      <use
         id="use3179"
         y="134.765"
         x="313.9223"
         xlink:href="#textext-65b14938-2"
         width="744.09448"
         height="1052.3622" />
      <use
         id="use3181"
         y="134.765"
         x="318.90359"
         xlink:href="#textext-65b14938-8"
         width="744.09448"
         height="1052.3622" />
    </g>
    <g
       id="g3183"
       style="fill:#000000;fill-opacity:1"
       transform="translate(-52.205357,304.33762)">
      <use
         id="use3185"
         y="134.765"
         x="327.2124"
         xlink:href="#textext-65b14938-4"
         width="744.09448"
         height="1052.3622" />
      <use
         id="use3187"
         y="134.765"
         x="332.1937"
         xlink:href="#textext-65b14938-9"
         width="744.09448"
         height="1052.3622" />
    </g>
    <g
       id="g3189"
       style="fill:#000000;fill-opacity:1"
       transform="translate(-50.098214,304.24835)">
      <use
         id="use3191"
         y="134.765"
         x="340.49255"
         xlink:href="#textext-65b14938-4"
         width="744.09448"
         height="1052.3622" />
      <use
         id="use3193"
         y="134.765"
         x="345.47385"
         xlink:href="#textext-65b14938-10"
         width="744.09448"
         height="1052.3622" />
    </g>
    <g
       id="g3195"
       style="fill:#000000;fill-opacity:1"
       transform="translate(-48.669643,304.24835)">
      <use
         id="use3197"
         y="134.765"
         x="353.77271"
         xlink:href="#textext-65b14938-4"
         width="744.09448"
         height="1052.3622" />
      <use
         id="use3199"
         y="134.765"
         x="358.754"
         xlink:href="#textext-65b14938-11"
         width="744.09448"
         height="1052.3622" />
    </g>
    <g
       id="g3201"
       style="fill:#000000;fill-opacity:1"
       transform="translate(-46.973214,304.33763)">
      <use
         id="use3203"
         y="134.765"
         x="367.06281"
         xlink:href="#textext-65b14938-4"
         width="744.09448"
         height="1052.3622" />
      <use
         id="use3205"
         y="134.765"
         x="372.0441"
         xlink:href="#textext-65b14938-3"
         width="744.09448"
         height="1052.3622" />
    </g>
    <g
       id="g3207"
       style="fill:#000000;fill-opacity:1"
       transform="translate(-45.544643,304.24835)">
      <use
         id="use3209"
         y="134.765"
         x="380.34296"
         xlink:href="#textext-65b14938-4"
         width="744.09448"
         height="1052.3622" />
      <use
         id="use3211"
         y="134.765"
         x="385.32425"
         xlink:href="#textext-65b14938-2"
         width="744.09448"
         height="1052.3622" />
    </g>
    <g
       id="g3213"
       style="fill:#000000;fill-opacity:1"
       transform="translate(-43.669643,304.24835)">
      <use
         id="use3215"
         y="134.765"
         x="393.62311"
         xlink:href="#textext-65b14938-4"
         width="744.09448"
         height="1052.3622" />
      <use
         id="use3217"
         y="134.765"
         x="398.6044"
         xlink:href="#textext-65b14938-4"
         width="744.09448"
         height="1052.3622" />
    </g>
    <g
       id="g3219"
       style="fill:#000000;fill-opacity:1"
       transform="translate(-41.794643,304.24835)">
      <use
         id="use3221"
         y="134.765"
         x="406.91321"
         xlink:href="#textext-65b14938-4"
         width="744.09448"
         height="1052.3622" />
      <use
         id="use3223"
         y="134.765"
         x="411.8945"
         xlink:href="#textext-65b14938-5"
         width="744.09448"
         height="1052.3622" />
    </g>
    <g
       id="g3225"
       style="fill:#000000;fill-opacity:1"
       transform="translate(-40.544643,304.33763)">
      <use
         id="use3227"
         y="134.765"
         x="420.19336"
         xlink:href="#textext-65b14938-4"
         width="744.09448"
         height="1052.3622" />
      <use
         id="use3229"
         y="134.765"
         x="425.17465"
         xlink:href="#textext-65b14938-6"
         width="744.09448"
         height="1052.3622" />
    </g>
    <g
       id="g3231"
       style="fill:#000000;fill-opacity:1"
       transform="translate(-38.758929,304.33763)">
      <use
         id="use3233"
         y="134.765"
         x="433.47351"
         xlink:href="#textext-65b14938-4"
         width="744.09448"
         height="1052.3622" />
      <use
         id="use3235"
         y="134.765"
         x="438.4548"
         xlink:href="#textext-65b14938-7"
         width="744.09448"
         height="1052.3622" />
    </g>
    <path
       inkscape:transform-center-y="15"
       inkscape:transform-center-x="-10"
       d="m 50,162.36218 a 5,5 0 1 1 -10,0 5,5 0 1 1 10,0 z"
       sodipodi:ry="5"
       sodipodi:rx="5"
       sodipodi:cy="162.36218"
       sodipodi:cx="45"
       id="path2923-0-09-2-8-4"
       style="fill:#ffffff;stroke:#000000;stroke-width:0.60000002;stroke-miterlimit:4.0999999;stroke-dasharray:none"
       sodipodi:type="arc"
       transform="translate(115,260)" />
    <path
       inkscape:transform-center-y="15"
       inkscape:transform-center-x="-10"
       d="m 50,162.36218 a 5,5 0 1 1 -10,0 5,5 0 1 1 10,0 z"
       sodipodi:ry="5"
       sodipodi:rx="5"
       sodipodi:cy="162.36218"
       sodipodi:cx="45"
       id="path2923-0-09-2-8-3"
       style="fill:#ffffff;stroke:#000000;stroke-width:0.60000002;stroke-miterlimit:4.0999999;stroke-dasharray:none"
       sodipodi:type="arc"
       transform="translate(370,260)" />
    <path
       style="fill:none;stroke:#000000;stroke-width:1;stroke-linecap:butt;stroke-linejoin:miter;stroke-opacity:1;stroke-miterlimit:4;stroke-dasharray:1,2;stroke-dashoffset:0"
       d="m 163.94623,411.30841 7.51824,7.51824"
       id="path3833"
       inkscape:connector-type="polyline"
       inkscape:connection-start="#path7037-3-0"
       inkscape:connection-end="#path2923-42" />
    <path
       style="fill:none;stroke:#000000;stroke-width:1;stroke-linecap:butt;stroke-linejoin:miter;stroke-miterlimit:4;stroke-opacity:1;stroke-dasharray:1, 2;stroke-dashoffset:0"
       d="m 232.22621,418.20149 -20.89994,-31.3499"
       id="path3835"
       inkscape:connector-type="polyline"
       inkscape:connection-start="#path2923-4-1" />
    <path
       style="fill:none;stroke:#000000;stroke-width:1;stroke-linecap:butt;stroke-linejoin:miter;stroke-opacity:1;stroke-miterlimit:4;stroke-dasharray:1,2;stroke-dashoffset:0"
       d="m 261.661,402.32819 2.51688,15.10126"
       id="path3856"
       inkscape:connector-type="polyline"
       inkscape:connection-start="#g3843"
       inkscape:connection-end="#path2923-2-1-8" />
    <path
       style="fill:none;stroke:#000000;stroke-width:1;stroke-linecap:butt;stroke-linejoin:miter;stroke-opacity:1;stroke-miterlimit:4;stroke-dasharray:1,2;stroke-dashoffset:0"
       d="m 310,372.36218 0,45"
       id="path3858"
       inkscape:connector-type="polyline"
       inkscape:connection-end="#path2923-0-6-8" />
    <path
       style="fill:none;stroke:#000000;stroke-width:1;stroke-linecap:butt;stroke-linejoin:miter;stroke-opacity:1;stroke-miterlimit:4;stroke-dasharray:1,2;stroke-dashoffset:0"
       d="M 367.69431,401.59536 381.799,418.52098"
       id="path3860"
       inkscape:connector-type="polyline"
       inkscape:connection-start="#g7101"
       inkscape:connection-end="#path2923-2-1-9-3" />
    <path
       style="fill:none;stroke:#000000;stroke-width:1;stroke-linecap:butt;stroke-linejoin:miter;stroke-opacity:1;stroke-miterlimit:4;stroke-dasharray:1,2;stroke-dashoffset:0"
       d="m 406.661,372.32819 7.51688,45.10126"
       id="path3862"
       inkscape:connector-type="polyline"
       inkscape:connection-start="#path7037-3-0-9"
       inkscape:connection-end="#path2923-0-09-2-8-3" />
    <path
       d="m 240,387.36218 a 20,10 0 1 1 -40,0 20,10 0 1 1 40,0 z"
       sodipodi:ry="10"
       sodipodi:rx="20"
       sodipodi:cy="387.36218"
       sodipodi:cx="220"
       id="path7037-3-0-9"
       style="fill:#ffffff;stroke:#000000;stroke-width:0.60000001999999997;stroke-miterlimit:4.09999990000000025;stroke-dasharray:none"
       sodipodi:type="arc"
       transform="translate(185,-25)" />
    <path
       transform="translate(185,-25)"
       sodipodi:type="arc"
       style="fill:#ffffff;stroke:#000000;stroke-width:0.60000001999999997;stroke-miterlimit:4.09999990000000025;stroke-dasharray:none"
       id="path4490"
       sodipodi:cx="220"
       sodipodi:cy="387.36218"
       sodipodi:rx="20"
       sodipodi:ry="10"
       d="m 240,387.36218 a 20,10 0 1 1 -40,0 20,10 0 1 1 40,0 z" />
  </g>
</svg>
