<?xml version="1.0" encoding="UTF-8" standalone="no"?>
<!-- Created with Inkscape (http://www.inkscape.org/) -->

<svg
   xmlns:dc="http://purl.org/dc/elements/1.1/"
   xmlns:cc="http://creativecommons.org/ns#"
   xmlns:rdf="http://www.w3.org/1999/02/22-rdf-syntax-ns#"
   xmlns:svg="http://www.w3.org/2000/svg"
   xmlns="http://www.w3.org/2000/svg"
   xmlns:xlink="http://www.w3.org/1999/xlink"
   xmlns:sodipodi="http://sodipodi.sourceforge.net/DTD/sodipodi-0.dtd"
   xmlns:inkscape="http://www.inkscape.org/namespaces/inkscape"
   id="svg2"
   version="1.1"
   inkscape:version="0.47 r22583"
   width="743.75"
   height="1052.5"
   xml:space="preserve"
   sodipodi:docname="tree.ps"><sodipodi:namedview
     pagecolor="#ffffff"
     bordercolor="#666666"
     borderopacity="1"
     objecttolerance="10"
     gridtolerance="10"
     guidetolerance="10"
     inkscape:pageopacity="0"
     inkscape:pageshadow="2"
     inkscape:window-width="1280"
     inkscape:window-height="725"
     id="namedview4"
     showgrid="false"
     inkscape:zoom="1.7938242"
     inkscape:cx="251.11063"
     inkscape:cy="817.85729"
     inkscape:window-x="0"
     inkscape:window-y="24"
     inkscape:window-maximized="1"
     inkscape:current-layer="g12" /><metadata
     id="metadata8"><rdf:RDF><cc:Work
         rdf:about=""><dc:format>image/svg+xml</dc:format><dc:type
           rdf:resource="http://purl.org/dc/dcmitype/StillImage" /><dc:title></dc:title></cc:Work></rdf:RDF></metadata><defs
     id="defs6"><inkscape:perspective
   id="perspective10"
   inkscape:persp3d-origin="0.5 : 0.33333333 : 1"
   inkscape:vp_z="1 : 0.5 : 1"
   inkscape:vp_y="0 : 1000 : 0"
   inkscape:vp_x="0 : 0.5 : 1"
   sodipodi:type="inkscape:persp3d" /><clipPath
   id="clipPath26"
   clipPathUnits="userSpaceOnUse"><path
     id="path28"
     d="m 400,400 5200,0 0,7700 -5200,0 0,-7700 z" /></clipPath><defs
   id="defs3208">
<g
   id="g3210">
<symbol
   style="overflow:visible"
   overflow="visible"
   id="textext-78de2029-0">
<path
   style="stroke:none"
   d="M 3.015625,-1.46875 C 3.015625,-0.5625 2.515625,0 1.984375,0 1.921875,0 1.25,0 0.890625,-0.578125 1.40625,-0.578125 1.53125,-0.875 1.53125,-1.140625 1.53125,-1.5 1.25,-1.6875 0.96875,-1.6875 c -0.21875,0 -0.5625,0.125 -0.5625,0.578125 0,0.734375 0.703125,1.328125 1.59375,1.328125 1.015625,0 1.75,-0.703125 1.859375,-1.4375 C 3.875,-1.3125 3.875,-1.328125 3.875,-1.671875 l 0,-4.421875 C 3.875,-6.5 4,-6.5 4.640625,-6.5 l 0,-0.3125 c -0.4375,0.03125 -0.828125,0.03125 -1.296875,0.03125 -0.40625,0 -1.296875,0 -1.671875,-0.03125 l 0,0.3125 0.359375,0 c 0.984375,0 0.984375,0.125 0.984375,0.484375 z m 0,0"
   id="path3213" />
</symbol>
<symbol
   style="overflow:visible"
   overflow="visible"
   id="textext-78de2029-1">
<path
   style="stroke:none"
   d="m 5.90625,-0.625 c 0.140625,0.21875 0.53125,0.609375 0.640625,0.609375 0.09375,0 0.09375,-0.078125 0.09375,-0.21875 l 0,-1.734375 c 0,-0.390625 0.03125,-0.4375 0.6875,-0.4375 l 0,-0.3125 c -0.375,0 -0.921875,0.03125 -1.21875,0.03125 -0.390625,0 -1.25,0 -1.609375,-0.03125 l 0,0.3125 0.328125,0 C 5.71875,-2.40625 5.75,-2.296875 5.75,-1.9375 l 0,0.640625 c 0,1.125 -1.265625,1.203125 -1.546875,1.203125 -0.640625,0 -2.625,-0.34375 -2.625,-3.3125 0,-2.984375 1.96875,-3.3125 2.5625,-3.3125 1.078125,0 1.984375,0.890625 2.171875,2.359375 0.03125,0.140625 0.03125,0.171875 0.171875,0.171875 0.15625,0 0.15625,-0.03125 0.15625,-0.234375 l 0,-2.359375 c 0,-0.171875 0,-0.25 -0.109375,-0.25 -0.046875,0 -0.078125,0 -0.15625,0.125 l -0.5,0.734375 C 5.546875,-6.484375 5.015625,-7.03125 4.03125,-7.03125 c -1.859375,0 -3.46875,1.578125 -3.46875,3.625 0,2.046875 1.59375,3.625 3.484375,3.625 0.734375,0 1.53125,-0.265625 1.859375,-0.84375 z m 0,0"
   id="path3216" />
</symbol>
<symbol
   style="overflow:visible"
   overflow="visible"
   id="textext-78de2029-2">
<path
   style="stroke:none"
   d="m 0.34375,-6.8125 0,0.3125 0.25,0 c 0.765625,0 0.78125,0.109375 0.78125,0.46875 l 0,5.25 c 0,0.359375 -0.015625,0.46875 -0.78125,0.46875 l -0.25,0 0,0.3125 L 4,0 C 5.671875,0 7.046875,-1.46875 7.046875,-3.34375 7.046875,-5.25 5.703125,-6.8125 4,-6.8125 z m 2.375,6.5 C 2.25,-0.3125 2.234375,-0.375 2.234375,-0.703125 l 0,-5.390625 C 2.234375,-6.4375 2.25,-6.5 2.71875,-6.5 l 1,0 c 0.625,0 1.3125,0.21875 1.8125,0.921875 0.4375,0.59375 0.515625,1.453125 0.515625,2.234375 0,1.09375 -0.1875,1.703125 -0.546875,2.1875 -0.203125,0.265625 -0.765625,0.84375 -1.765625,0.84375 z m 0,0"
   id="path3219" />
</symbol>
<symbol
   style="overflow:visible"
   overflow="visible"
   id="textext-78de2029-3">
<path
   style="stroke:none"
   d="m 2.21875,-3.65625 0,-2.4375 C 2.21875,-6.4375 2.234375,-6.5 2.703125,-6.5 l 1.234375,0 c 0.96875,0 1.3125,0.84375 1.3125,1.375 0,0.640625 -0.484375,1.46875 -1.59375,1.46875 z M 4.5625,-3.5625 C 5.53125,-3.75 6.21875,-4.390625 6.21875,-5.125 6.21875,-5.984375 5.296875,-6.8125 4,-6.8125 l -3.640625,0 0,0.3125 0.234375,0 c 0.765625,0 0.796875,0.109375 0.796875,0.46875 l 0,5.25 c 0,0.359375 -0.03125,0.46875 -0.796875,0.46875 l -0.234375,0 0,0.3125 3.90625,0 c 1.328125,0 2.21875,-0.890625 2.21875,-1.828125 0,-0.859375 -0.8125,-1.609375 -1.921875,-1.734375 z m -0.609375,3.25 -1.25,0 c -0.46875,0 -0.484375,-0.0625 -0.484375,-0.390625 l 0,-2.71875 1.875,0 C 5.078125,-3.421875 5.5,-2.5 5.5,-1.828125 5.5,-1.125 4.96875,-0.3125 3.953125,-0.3125 z m 0,0"
   id="path3222" />
</symbol>
<symbol
   style="overflow:visible"
   overflow="visible"
   id="textext-78de2029-4">
<path
   style="stroke:none"
   d="M 6.109375,-6.03125 C 6.109375,-6.390625 6.125,-6.5 6.890625,-6.5 l 0.25,0 0,-0.3125 c -0.359375,0.03125 -1.09375,0.03125 -1.46875,0.03125 -0.375,0 -1.125,0 -1.46875,-0.03125 l 0,0.3125 0.234375,0 c 0.765625,0 0.78125,0.109375 0.78125,0.46875 l 0,2.328125 -2.96875,0 0,-2.328125 C 2.25,-6.390625 2.265625,-6.5 3.03125,-6.5 l 0.234375,0 0,-0.3125 c -0.34375,0.03125 -1.078125,0.03125 -1.46875,0.03125 -0.375,0 -1.125,0 -1.46875,-0.03125 l 0,0.3125 0.234375,0 c 0.765625,0 0.796875,0.109375 0.796875,0.46875 l 0,5.25 c 0,0.359375 -0.03125,0.46875 -0.796875,0.46875 l -0.234375,0 0,0.3125 c 0.34375,-0.03125 1.09375,-0.03125 1.46875,-0.03125 0.375,0 1.125,0 1.46875,0.03125 l 0,-0.3125 -0.234375,0 C 2.265625,-0.3125 2.25,-0.421875 2.25,-0.78125 l 0,-2.609375 2.96875,0 0,2.609375 c 0,0.359375 -0.015625,0.46875 -0.78125,0.46875 l -0.234375,0 0,0.3125 c 0.34375,-0.03125 1.078125,-0.03125 1.453125,-0.03125 0.390625,0 1.125,0 1.484375,0.03125 l 0,-0.3125 -0.25,0 c -0.765625,0 -0.78125,-0.109375 -0.78125,-0.46875 z m 0,0"
   id="path3225" />
</symbol>
<symbol
   style="overflow:visible"
   overflow="visible"
   id="textext-78de2029-5">
<path
   style="stroke:none"
   d="m 0.5625,-3.40625 c 0,2.0625 1.609375,3.625 3.46875,3.625 1.625,0 2.59375,-1.390625 2.59375,-2.546875 C 6.625,-2.421875 6.625,-2.5 6.5,-2.5 6.390625,-2.5 6.390625,-2.4375 6.375,-2.328125 6.296875,-0.90625 5.234375,-0.09375 4.140625,-0.09375 c -0.609375,0 -2.5625,-0.328125 -2.5625,-3.3125 0,-2.96875 1.953125,-3.3125 2.5625,-3.3125 1.078125,0 1.96875,0.90625 2.171875,2.359375 0.015625,0.140625 0.015625,0.171875 0.15625,0.171875 0.15625,0 0.15625,-0.03125 0.15625,-0.234375 l 0,-2.359375 c 0,-0.171875 0,-0.25 -0.109375,-0.25 -0.03125,0 -0.078125,0 -0.15625,0.125 l -0.5,0.734375 C 5.5,-6.53125 4.984375,-7.03125 4.03125,-7.03125 c -1.875,0 -3.46875,1.59375 -3.46875,3.625 z m 0,0"
   id="path3228" />
</symbol>
<symbol
   style="overflow:visible"
   overflow="visible"
   id="textext-78de2029-6">
<path
   style="stroke:none"
   d="M 3.984375,-4.171875 5.78125,-5.90625 C 5.859375,-5.984375 6.390625,-6.484375 7.203125,-6.5 l 0,-0.3125 C 6.9375,-6.78125 6.625,-6.78125 6.34375,-6.78125 c -0.359375,0 -0.921875,0 -1.265625,-0.03125 l 0,0.3125 c 0.40625,0.015625 0.46875,0.234375 0.46875,0.328125 0,0.15625 -0.109375,0.265625 -0.1875,0.328125 L 2.25,-2.859375 2.25,-6.03125 C 2.25,-6.390625 2.265625,-6.5 3.03125,-6.5 l 0.234375,0 0,-0.3125 c -0.34375,0.03125 -1.078125,0.03125 -1.46875,0.03125 -0.375,0 -1.125,0 -1.46875,-0.03125 l 0,0.3125 0.234375,0 c 0.765625,0 0.796875,0.109375 0.796875,0.46875 l 0,5.25 c 0,0.359375 -0.03125,0.46875 -0.796875,0.46875 l -0.234375,0 0,0.3125 c 0.34375,-0.03125 1.09375,-0.03125 1.46875,-0.03125 0.375,0 1.125,0 1.46875,0.03125 l 0,-0.3125 -0.234375,0 C 2.265625,-0.3125 2.25,-0.421875 2.25,-0.78125 l 0,-1.734375 1.15625,-1.109375 1.796875,2.671875 c 0.0625,0.09375 0.15625,0.21875 0.15625,0.34375 0,0.296875 -0.390625,0.296875 -0.59375,0.296875 l 0,0.3125 C 5.109375,-0.03125 5.8125,-0.03125 6.1875,-0.03125 c 0.359375,0 0.734375,0.015625 1.15625,0.03125 l 0,-0.3125 c -0.546875,0 -0.75,-0.03125 -1.046875,-0.46875 z m 0,0"
   id="path3231" />
</symbol>
<symbol
   style="overflow:visible"
   overflow="visible"
   id="textext-78de2029-7">
<path
   style="stroke:none"
   d="m 5.796875,-6.78125 -5.46875,0 0,0.3125 0.234375,0 c 0.765625,0 0.796875,0.109375 0.796875,0.46875 l 0,5.21875 c 0,0.359375 -0.03125,0.46875 -0.796875,0.46875 l -0.234375,0 0,0.3125 c 0.34375,-0.03125 1.125,-0.03125 1.515625,-0.03125 0.40625,0 1.3125,0 1.671875,0.03125 l 0,-0.3125 -0.328125,0 C 2.25,-0.3125 2.25,-0.4375 2.25,-0.78125 l 0,-2.453125 0.84375,0 c 0.96875,0 1.0625,0.3125 1.0625,1.15625 l 0.25,0 0,-2.640625 -0.25,0 c 0,0.84375 -0.09375,1.171875 -1.0625,1.171875 l -0.84375,0 0,-2.53125 c 0,-0.328125 0.015625,-0.390625 0.484375,-0.390625 l 1.1875,0 c 1.5,0 1.75,0.5625 1.90625,1.9375 l 0.25,0 z m 0,0"
   id="path3234" />
</symbol>
<symbol
   style="overflow:visible"
   overflow="visible"
   id="textext-78de2029-8">
<path
   style="stroke:none"
   d="m 1.265625,-0.765625 1.0625,-1.03125 c 1.546875,-1.375 2.140625,-1.90625 2.140625,-2.90625 0,-1.140625 -0.890625,-1.9375 -2.109375,-1.9375 -1.125,0 -1.859375,0.921875 -1.859375,1.8125 0,0.546875 0.5,0.546875 0.53125,0.546875 0.171875,0 0.515625,-0.109375 0.515625,-0.53125 0,-0.25 -0.1875,-0.515625 -0.53125,-0.515625 -0.078125,0 -0.09375,0 -0.125,0.015625 0.21875,-0.65625 0.765625,-1.015625 1.34375,-1.015625 0.90625,0 1.328125,0.8125 1.328125,1.625 C 3.5625,-3.90625 3.078125,-3.125 2.515625,-2.5 l -1.90625,2.125 C 0.5,-0.265625 0.5,-0.234375 0.5,0 l 3.703125,0 0.265625,-1.734375 -0.234375,0 C 4.171875,-1.4375 4.109375,-1 4,-0.84375 3.9375,-0.765625 3.28125,-0.765625 3.0625,-0.765625 z m 0,0"
   id="path3237" />
</symbol>
<symbol
   style="overflow:visible"
   overflow="visible"
   id="textext-78de2029-9">
<path
   style="stroke:none"
   d="m 2.9375,-6.375 c 0,-0.25 0,-0.265625 -0.234375,-0.265625 C 2.078125,-6 1.203125,-6 0.890625,-6 l 0,0.3125 c 0.203125,0 0.78125,0 1.296875,-0.265625 l 0,5.171875 c 0,0.359375 -0.03125,0.46875 -0.921875,0.46875 l -0.3125,0 0,0.3125 c 0.34375,-0.03125 1.203125,-0.03125 1.609375,-0.03125 0.390625,0 1.265625,0 1.609375,0.03125 l 0,-0.3125 -0.3125,0 c -0.90625,0 -0.921875,-0.109375 -0.921875,-0.46875 z m 0,0"
   id="path3240" />
</symbol>
<symbol
   style="overflow:visible"
   overflow="visible"
   id="textext-78de2029-10">
<path
   style="stroke:none"
   d="m 3.96875,-6.9375 c -0.046875,-0.125 -0.078125,-0.203125 -0.234375,-0.203125 -0.15625,0 -0.1875,0.0625 -0.234375,0.203125 L 1.4375,-0.984375 C 1.25,-0.46875 0.859375,-0.3125 0.3125,-0.3125 l 0,0.3125 c 0.234375,-0.015625 0.671875,-0.03125 1.015625,-0.03125 0.3125,0 0.828125,0.015625 1.15625,0.03125 l 0,-0.3125 c -0.5,0 -0.75,-0.25 -0.75,-0.5 0,-0.03125 0.015625,-0.140625 0.015625,-0.15625 l 0.46875,-1.296875 2.453125,0 0.53125,1.515625 c 0.015625,0.046875 0.03125,0.109375 0.03125,0.140625 0,0.296875 -0.5625,0.296875 -0.828125,0.296875 l 0,0.3125 c 0.359375,-0.03125 1.0625,-0.03125 1.4375,-0.03125 0.421875,0 0.890625,0.015625 1.296875,0.03125 l 0,-0.3125 -0.171875,0 C 6.375,-0.3125 6.234375,-0.375 6.125,-0.703125 z m -0.53125,1.109375 1.125,3.25 -2.234375,0 z m 0,0"
   id="path3243" />
</symbol>
<symbol
   style="overflow:visible"
   overflow="visible"
   id="textext-78de2029-11">
<path
   style="stroke:none"
   d="m 7.1875,-3.375 c 0,-2.03125 -1.5,-3.65625 -3.3125,-3.65625 -1.796875,0 -3.3125,1.59375 -3.3125,3.65625 0,2.046875 1.53125,3.59375 3.3125,3.59375 1.8125,0 3.3125,-1.578125 3.3125,-3.59375 z M 3.875,-0.046875 c -0.953125,0 -2.296875,-0.875 -2.296875,-3.46875 0,-2.578125 1.46875,-3.265625 2.296875,-3.265625 0.859375,0 2.28125,0.703125 2.28125,3.265625 0,2.640625 -1.359375,3.46875 -2.28125,3.46875 z m 0,0"
   id="path3246" />
</symbol>
<symbol
   style="overflow:visible"
   overflow="visible"
   id="textext-78de2029-12">
<path
   style="stroke:none"
   d="m 4.578125,-3.1875 c 0,-0.796875 -0.046875,-1.59375 -0.390625,-2.328125 -0.453125,-0.96875 -1.28125,-1.125 -1.6875,-1.125 -0.609375,0 -1.328125,0.265625 -1.75,1.1875 -0.3125,0.6875 -0.359375,1.46875 -0.359375,2.265625 0,0.75 0.03125,1.640625 0.453125,2.40625 0.421875,0.796875 1.15625,1 1.640625,1 0.53125,0 1.296875,-0.203125 1.734375,-1.15625 0.3125,-0.6875 0.359375,-1.46875 0.359375,-2.25 z M 2.484375,0 C 2.09375,0 1.5,-0.25 1.328125,-1.203125 1.21875,-1.796875 1.21875,-2.71875 1.21875,-3.3125 c 0,-0.640625 0,-1.296875 0.078125,-1.828125 0.1875,-1.1875 0.9375,-1.28125 1.1875,-1.28125 0.328125,0 0.984375,0.1875 1.171875,1.171875 0.109375,0.5625 0.109375,1.3125 0.109375,1.9375 0,0.75 0,1.421875 -0.109375,2.0625 C 3.5,-0.296875 2.9375,0 2.484375,0 z m 0,0"
   id="path3249" />
</symbol>
<symbol
   style="overflow:visible"
   overflow="visible"
   id="textext-78de2029-13">
<path
   style="stroke:none"
   d="m 1.90625,-0.53125 c 0,-0.28125 -0.234375,-0.53125 -0.515625,-0.53125 -0.296875,0 -0.53125,0.25 -0.53125,0.53125 C 0.859375,-0.234375 1.09375,0 1.390625,0 1.671875,0 1.90625,-0.234375 1.90625,-0.53125 z m 0,0"
   id="path3252" />
</symbol>
</g>
</defs>















</defs><g
     transform="matrix(1.25,0,0,-1.25,0,1052.5)"
     inkscape:label="ink_ext_XXXXXX"
     inkscape:groupmode="layer"
     id="g12">
<path
   d="m 50.830902,671.11929 0,-50.90104"
   style="fill:none;stroke:#000000;stroke-width:0.8;stroke-linecap:round;stroke-linejoin:round;stroke-miterlimit:10;stroke-opacity:1;stroke-dasharray:none"
   id="path60" /><path
   d="m 73.253612,671.11929 0,-53.87028"
   style="fill:none;stroke:#000000;stroke-width:0.8;stroke-linecap:round;stroke-linejoin:round;stroke-miterlimit:10;stroke-opacity:1;stroke-dasharray:none"
   id="path62" /><path
   d="m 50.830902,671.11929 22.42271,0"
   style="fill:none;stroke:#000000;stroke-width:0.8;stroke-linecap:round;stroke-linejoin:round;stroke-miterlimit:10;stroke-opacity:1;stroke-dasharray:none"
   id="path64" /><path
   d="m 95.676312,665.18084 0,-29.2681"
   style="fill:none;stroke:#000000;stroke-width:0.8;stroke-linecap:round;stroke-linejoin:round;stroke-miterlimit:10;stroke-opacity:1;stroke-dasharray:none"
   id="path66" /><path
   d="m 118.09901,665.18084 0,-47.50765"
   style="fill:none;stroke:#000000;stroke-width:0.8;stroke-linecap:round;stroke-linejoin:round;stroke-miterlimit:10;stroke-opacity:1;stroke-dasharray:none"
   id="path68" /><path
   d="m 95.676312,665.18084 22.422698,0"
   style="fill:none;stroke:#000000;stroke-width:0.8;stroke-linecap:round;stroke-linejoin:round;stroke-miterlimit:10;stroke-opacity:1;stroke-dasharray:none"
   id="path70" /><path
   d="m 140.52171,650.75888 0,-50.05271"
   style="fill:none;stroke:#000000;stroke-width:0.8;stroke-linecap:round;stroke-linejoin:round;stroke-miterlimit:10;stroke-opacity:1;stroke-dasharray:none"
   id="path72" /><path
   d="m 162.58851,650.75888 0,-55.99116"
   style="fill:none;stroke:#000000;stroke-width:0.8;stroke-linecap:round;stroke-linejoin:round;stroke-miterlimit:10;stroke-opacity:1;stroke-dasharray:none"
   id="path74" /><path
   d="m 140.52171,650.75888 22.0668,0"
   style="fill:none;stroke:#000000;stroke-width:0.8;stroke-linecap:round;stroke-linejoin:round;stroke-miterlimit:10;stroke-opacity:1;stroke-dasharray:none"
   id="path76" /><path
   d="m 207.43391,641.00284 0,-33.50986"
   style="fill:none;stroke:#000000;stroke-width:0.8;stroke-linecap:round;stroke-linejoin:round;stroke-miterlimit:10;stroke-opacity:1;stroke-dasharray:none"
   id="path78" /><path
   d="m 229.85661,641.00284 0,-33.50986"
   style="fill:none;stroke:#000000;stroke-width:0.8;stroke-linecap:round;stroke-linejoin:round;stroke-miterlimit:10;stroke-opacity:1;stroke-dasharray:none"
   id="path80" /><path
   d="m 207.43391,641.00284 22.4227,0"
   style="fill:none;stroke:#000000;stroke-width:0.8;stroke-linecap:round;stroke-linejoin:round;stroke-miterlimit:10;stroke-opacity:1;stroke-dasharray:none"
   id="path82" /><path
   d="m 185.01121,656.69732 0,-43.69005"
   style="fill:none;stroke:#000000;stroke-width:0.8;stroke-linecap:round;stroke-linejoin:round;stroke-miterlimit:10;stroke-opacity:1;stroke-dasharray:none"
   id="path84" /><path
   d="m 218.82321,656.69732 0,-15.69448"
   style="fill:none;stroke:#000000;stroke-width:0.8;stroke-linecap:round;stroke-linejoin:round;stroke-miterlimit:10;stroke-opacity:1;stroke-dasharray:none"
   id="path86" /><path
   d="m 185.01121,656.69732 33.812,0"
   style="fill:none;stroke:#000000;stroke-width:0.8;stroke-linecap:round;stroke-linejoin:round;stroke-miterlimit:10;stroke-opacity:1;stroke-dasharray:none"
   id="path88" /><path
   d="m 151.55511,664.33248 0,-13.5736"
   style="fill:none;stroke:#000000;stroke-width:0.8;stroke-linecap:round;stroke-linejoin:round;stroke-miterlimit:10;stroke-opacity:1;stroke-dasharray:none"
   id="path90" /><path
   d="m 202.09517,664.33248 0,-7.63516"
   style="fill:none;stroke:#000000;stroke-width:0.8;stroke-linecap:round;stroke-linejoin:round;stroke-miterlimit:10;stroke-opacity:1;stroke-dasharray:none"
   id="path92" /><path
   d="m 151.55511,664.33248 50.54006,0"
   style="fill:none;stroke:#000000;stroke-width:0.8;stroke-linecap:round;stroke-linejoin:round;stroke-miterlimit:10;stroke-opacity:1;stroke-dasharray:none"
   id="path94" /><path
   d="m 106.7097,674.93687 0,-9.75603"
   style="fill:none;stroke:#000000;stroke-width:0.8;stroke-linecap:round;stroke-linejoin:round;stroke-miterlimit:10;stroke-opacity:1;stroke-dasharray:none"
   id="path96" /><path
   d="m 176.82514,674.93687 0,-10.60439"
   style="fill:none;stroke:#000000;stroke-width:0.8;stroke-linecap:round;stroke-linejoin:round;stroke-miterlimit:10;stroke-opacity:1;stroke-dasharray:none"
   id="path98" /><path
   d="m 106.7097,674.93687 70.11544,0"
   style="fill:none;stroke:#000000;stroke-width:0.8;stroke-linecap:round;stroke-linejoin:round;stroke-miterlimit:10;stroke-opacity:1;stroke-dasharray:none"
   id="path100" /><path
   d="m 61.864302,681.2995 0,-10.18021"
   style="fill:none;stroke:#000000;stroke-width:0.8;stroke-linecap:round;stroke-linejoin:round;stroke-miterlimit:10;stroke-opacity:1;stroke-dasharray:none"
   id="path102" /><path
   d="m 141.58946,681.2995 0,-6.36263"
   style="fill:none;stroke:#000000;stroke-width:0.8;stroke-linecap:round;stroke-linejoin:round;stroke-miterlimit:10;stroke-opacity:1;stroke-dasharray:none"
   id="path104" /><path
   d="m 61.864302,681.2995 79.725158,0"
   style="fill:none;stroke:#000000;stroke-width:0.8;stroke-linecap:round;stroke-linejoin:round;stroke-miterlimit:10;stroke-opacity:1;stroke-dasharray:none"
   id="path106" /><path
   d="m 101.72688,688.08631 0,-6.78681"
   style="fill:none;stroke:#000000;stroke-width:0.8;stroke-linecap:round;stroke-linejoin:round;stroke-miterlimit:10;stroke-opacity:1;stroke-dasharray:none"
   id="path108" /><path
   d="m 252.27931,688.08631 0,-55.56698"
   style="fill:none;stroke:#000000;stroke-width:0.8;stroke-linecap:round;stroke-linejoin:round;stroke-miterlimit:10;stroke-opacity:1;stroke-dasharray:none"
   id="path110" /><path
   d="m 101.72688,688.08631 150.55243,0"
   style="fill:none;stroke:#000000;stroke-width:0.8;stroke-linecap:round;stroke-linejoin:round;stroke-miterlimit:10;stroke-opacity:1;stroke-dasharray:none"
   id="path112" /><path
   d="m 177.18106,705.05333 0,-16.96702"
   style="fill:none;stroke:#000000;stroke-width:0.8;stroke-linecap:round;stroke-linejoin:round;stroke-miterlimit:10;stroke-opacity:1;stroke-dasharray:none"
   id="path114" /><path
   d="m 274.70202,705.05333 0,-30.96481"
   style="fill:none;stroke:#000000;stroke-width:0.8;stroke-linecap:round;stroke-linejoin:round;stroke-miterlimit:10;stroke-opacity:1;stroke-dasharray:none"
   id="path116" /><path
   d="m 177.18106,705.05333 97.52096,0"
   style="fill:none;stroke:#000000;stroke-width:0.8;stroke-linecap:round;stroke-linejoin:round;stroke-miterlimit:10;stroke-opacity:1;stroke-dasharray:none"
   id="path118" /><path
   d="m 225.94154,790.73676 0,-85.68343"
   style="fill:none;stroke:#000000;stroke-width:0.8;stroke-linecap:round;stroke-linejoin:round;stroke-miterlimit:10;stroke-opacity:1;stroke-dasharray:none"
   id="path120" /><path
   d="m 297.12473,790.73676 0,-170.51851"
   style="fill:none;stroke:#000000;stroke-width:0.8;stroke-linecap:round;stroke-linejoin:round;stroke-miterlimit:10;stroke-opacity:1;stroke-dasharray:none"
   id="path122" /><path
   d="m 225.94154,790.73676 71.18319,0"
   style="fill:none;stroke:#000000;stroke-width:0.8;stroke-linecap:round;stroke-linejoin:round;stroke-miterlimit:10;stroke-opacity:1;stroke-dasharray:none"
   id="path124" /><path
   d="m 306.55163,627.42923 0,-31.81316"
   style="fill:none;stroke:#000000;stroke-width:0.8;stroke-linecap:round;stroke-linejoin:round;stroke-miterlimit:10;stroke-opacity:1;stroke-dasharray:none"
   id="path126" /><path
   d="m 304.41613,627.42923 4.27099,0"
   style="fill:none;stroke:#000000;stroke-width:0.8;stroke-linecap:round;stroke-linejoin:round;stroke-miterlimit:10;stroke-opacity:1;stroke-dasharray:none"
   id="path128" /><path
   d="m 304.41613,595.61607 4.27099,0"
   style="fill:none;stroke:#000000;stroke-width:0.8;stroke-linecap:round;stroke-linejoin:round;stroke-miterlimit:10;stroke-opacity:1;stroke-dasharray:none"
   id="path130" />
<g
   id="g3255"
   style="fill:#000000;fill-opacity:1"
   transform="matrix(1,0,0,-1,-175.77924,745.38854)">
  <use
   id="use3257"
   y="134.765"
   x="223.43201"
   xlink:href="#textext-78de2029-0"
   width="743.75"
   height="1052.5" />
</g><g
   id="g3259"
   style="fill:#000000;fill-opacity:1"
   transform="matrix(1,0,0,-1,-162.62299,742.93568)">
  <use
   id="use3261"
   y="134.765"
   x="231.86932"
   xlink:href="#textext-78de2029-1"
   width="743.75"
   height="1052.5" />
</g><g
   id="g3263"
   style="fill:#000000;fill-opacity:1"
   transform="matrix(1,0,0,-1,-151.02765,762.11259)">
  <use
   id="use3265"
   y="134.765"
   x="243.01448"
   xlink:href="#textext-78de2029-2"
   width="743.75"
   height="1052.5" />
</g><g
   id="g3267"
   style="fill:#000000;fill-opacity:1"
   transform="matrix(1,0,0,-1,-139.20933,743.15867)">
  <use
   id="use3269"
   y="134.765"
   x="253.94246"
   xlink:href="#textext-78de2029-3"
   width="743.75"
   height="1052.5" />
</g><g
   id="g3271"
   style="fill:#000000;fill-opacity:1"
   transform="matrix(1,0,0,-1,-127.391,726.21164)">
  <use
   id="use3273"
   y="134.765"
   x="264.31653"
   xlink:href="#textext-78de2029-4"
   width="743.75"
   height="1052.5" />
</g><g
   id="g3275"
   style="fill:#000000;fill-opacity:1"
   transform="matrix(1,0,0,-1,-116.46462,720.41396)">
  <use
   id="use3277"
   y="134.765"
   x="275.11597"
   xlink:href="#textext-78de2029-5"
   width="743.75"
   height="1052.5" />
</g><g
   id="g3279"
   style="fill:#000000;fill-opacity:1"
   transform="matrix(1,0,0,-1,-104.42331,738.47594)">
  <use
   id="use3281"
   y="134.765"
   x="285.62851"
   xlink:href="#textext-78de2029-6"
   width="743.75"
   height="1052.5" />
</g><g
   id="g3283"
   style="fill:#000000;fill-opacity:1"
   transform="matrix(1,0,0,-1,-95.280833,732.23229)">
  <use
   id="use3285"
   y="134.765"
   x="296.69498"
   xlink:href="#textext-78de2029-7"
   width="743.75"
   height="1052.5" />
  <use
   id="use3287"
   y="134.765"
   x="303.19855"
   xlink:href="#textext-78de2029-8"
   width="743.75"
   height="1052.5" />
</g><g
   id="g3289"
   style="fill:#000000;fill-opacity:1"
   transform="matrix(1,0,0,-1,-87.25329,732.45528)">
  <use
   id="use3291"
   y="134.765"
   x="311.50735"
   xlink:href="#textext-78de2029-7"
   width="743.75"
   height="1052.5" />
  <use
   id="use3293"
   y="134.765"
   x="318.01096"
   xlink:href="#textext-78de2029-9"
   width="743.75"
   height="1052.5" />
</g><g
   id="g3295"
   style="fill:#000000;fill-opacity:1"
   transform="matrix(1,0,0,-1,-80.563672,758.09882)">
  <use
   id="use3297"
   y="134.765"
   x="326.30978"
   xlink:href="#textext-78de2029-10"
   width="743.75"
   height="1052.5" />
  <use
   id="use3299"
   y="134.765"
   x="333.78174"
   xlink:href="#textext-78de2029-8"
   width="743.75"
   height="1052.5" />
</g><g
   id="g3301"
   style="fill:#000000;fill-opacity:1"
   transform="matrix(1,0,0,-1,-73.651065,798.01354)">
  <use
   id="use3303"
   y="134.765"
   x="342.0806"
   xlink:href="#textext-78de2029-10"
   width="743.75"
   height="1052.5" />
  <use
   id="use3305"
   y="134.765"
   x="349.55255"
   xlink:href="#textext-78de2029-9"
   width="743.75"
   height="1052.5" />
</g><g
   id="g3307"
   style="fill:#000000;fill-opacity:1"
   transform="matrix(1,0,0,-1,-64.954561,745.83452)">
  <use
   id="use3309"
   y="134.765"
   x="357.86136"
   xlink:href="#textext-78de2029-11"
   width="743.75"
   height="1052.5" />
</g><g
   id="g3311"
   style="fill:#000000;fill-opacity:1"
   transform="matrix(1,0,0,-1,-60.823523,744.2736)">
  <use
   id="use3313"
   y="134.765"
   x="368.9278"
   xlink:href="#textext-78de2029-12"
   width="743.75"
   height="1052.5" />
  <use
   id="use3315"
   y="134.765"
   x="373.90909"
   xlink:href="#textext-78de2029-13"
   width="743.75"
   height="1052.5" />
  <use
   id="use3317"
   y="134.765"
   x="376.67673"
   xlink:href="#textext-78de2029-9"
   width="743.75"
   height="1052.5" />
</g></g></svg>