<?xml version="1.0" encoding="UTF-8" standalone="no"?>
<!-- Created with Inkscape (http://www.inkscape.org/) -->

<svg
   xmlns:ns0="http://www.iki.fi/pav/software/textext/"
   xmlns:dc="http://purl.org/dc/elements/1.1/"
   xmlns:cc="http://creativecommons.org/ns#"
   xmlns:rdf="http://www.w3.org/1999/02/22-rdf-syntax-ns#"
   xmlns:svg="http://www.w3.org/2000/svg"
   xmlns="http://www.w3.org/2000/svg"
   xmlns:xlink="http://www.w3.org/1999/xlink"
   xmlns:sodipodi="http://sodipodi.sourceforge.net/DTD/sodipodi-0.dtd"
   xmlns:inkscape="http://www.inkscape.org/namespaces/inkscape"
   width="744.09448819"
   height="1052.3622047"
   id="svg2"
   version="1.1"
   inkscape:version="0.48.4 r9939"
   sodipodi:docname="PairRepeatHMMGeneral.svg">
  <sodipodi:namedview
     id="base"
     pagecolor="#ffffff"
     bordercolor="#666666"
     borderopacity="1.0"
     inkscape:pageopacity="0.0"
     inkscape:pageshadow="2"
     inkscape:zoom="2.56"
     inkscape:cx="264.42002"
     inkscape:cy="825.08731"
     inkscape:document-units="px"
     inkscape:current-layer="layer1"
     showgrid="false"
     inkscape:window-width="1920"
     inkscape:window-height="1056"
     inkscape:window-x="1366"
     inkscape:window-y="24"
     inkscape:window-maximized="1" />
  <defs
     id="defs4">
    <marker
       inkscape:stockid="Arrow1Mend"
       orient="auto"
       refY="0.0"
       refX="0.0"
       id="Arrow1Mend"
       style="overflow:visible;">
      <path
         id="path6362"
         d="M 0.0,0.0 L 5.0,-5.0 L -12.5,0.0 L 5.0,5.0 L 0.0,0.0 z "
         style="fill-rule:evenodd;stroke:#000000;stroke-width:1.0pt;"
         transform="scale(0.4) rotate(180) translate(10,0)" />
    </marker>
    <marker
       inkscape:stockid="Arrow2Lend"
       orient="auto"
       refY="0.0"
       refX="0.0"
       id="Arrow2Lend"
       style="overflow:visible;">
      <path
         id="path6374"
         style="fill-rule:evenodd;stroke-width:0.62500000;stroke-linejoin:round;"
         d="M 8.7185878,4.0337352 L -2.2072895,0.016013256 L 8.7185884,-4.0017078 C 6.9730900,-1.6296469 6.9831476,1.6157441 8.7185878,4.0337352 z "
         transform="scale(1.1) rotate(180) translate(1,0)" />
    </marker>
    <marker
       inkscape:stockid="Arrow1Send"
       orient="auto"
       refY="0.0"
       refX="0.0"
       id="Arrow1Send"
       style="overflow:visible;">
      <path
         id="path6368"
         d="M 0.0,0.0 L 5.0,-5.0 L -12.5,0.0 L 5.0,5.0 L 0.0,0.0 z "
         style="fill-rule:evenodd;stroke:#000000;stroke-width:1.0pt;"
         transform="scale(0.2) rotate(180) translate(6,0)" />
    </marker>
    <marker
       inkscape:stockid="Arrow1Lend"
       orient="auto"
       refY="0.0"
       refX="0.0"
       id="Arrow1Lend"
       style="overflow:visible;">
      <path
         id="path6356"
         d="M 0.0,0.0 L 5.0,-5.0 L -12.5,0.0 L 5.0,5.0 L 0.0,0.0 z "
         style="fill-rule:evenodd;stroke:#000000;stroke-width:1.0pt;"
         transform="scale(0.8) rotate(180) translate(12.5,0)" />
    </marker>
    <inkscape:perspective
       id="perspective4033"
       inkscape:persp3d-origin="372.04724 : 350.78739 : 1"
       inkscape:vp_z="744.09448 : 526.18109 : 1"
       inkscape:vp_y="0 : 1000 : 0"
       inkscape:vp_x="30.809653 : 465.57194 : 1"
       sodipodi:type="inkscape:persp3d" />
    <defs
       id="defs2995">
      <g
         id="g2997">
        <symbol
           id="textext-818a6410-0"
           overflow="visible"
           style="overflow:visible">
          <path
             id="path3000"
             d=""
             style="stroke:none"
             inkscape:connector-curvature="0" />
        </symbol>
        <symbol
           id="textext-818a6410-1"
           overflow="visible"
           style="overflow:visible">
          <path
             id="path3003"
             d="M 9.234375,-6.046875 C 9.328125,-6.40625 9.34375,-6.5 10.09375,-6.5 c 0.21875,0 0.3125,0 0.3125,-0.203125 0,-0.109375 -0.09375,-0.109375 -0.265625,-0.109375 l -1.3125,0 c -0.265625,0 -0.28125,0 -0.390625,0.1875 L 4.796875,-0.9375 4.015625,-6.578125 C 3.984375,-6.8125 3.96875,-6.8125 3.703125,-6.8125 l -1.359375,0 c -0.1875,0 -0.296875,0 -0.296875,0.1875 0,0.125 0.09375,0.125 0.28125,0.125 0.140625,0 0.3125,0.015625 0.4375,0.015625 0.15625,0.03125 0.21875,0.046875 0.21875,0.171875 0,0.03125 -0.015625,0.0625 -0.046875,0.1875 l -1.265625,5.0625 c -0.09375,0.40625 -0.265625,0.71875 -1.078125,0.75 -0.046875,0 -0.171875,0.015625 -0.171875,0.1875 0,0.09375 0.0625,0.125 0.140625,0.125 0.3125,0 0.65625,-0.03125 1,-0.03125 C 1.890625,-0.03125 2.25,0 2.578125,0 c 0.046875,0 0.1875,0 0.1875,-0.203125 0,-0.109375 -0.109375,-0.109375 -0.1875,-0.109375 -0.5625,0 -0.671875,-0.203125 -0.671875,-0.4375 0,-0.0625 0,-0.125 0.03125,-0.234375 l 1.359375,-5.421875 0.015625,0 0.859375,6.171875 C 4.1875,-0.109375 4.203125,0 4.3125,0 4.421875,0 4.484375,-0.109375 4.53125,-0.171875 l 4.03125,-6.3125 0.015625,0 -1.4375,5.703125 c -0.09375,0.390625 -0.109375,0.46875 -0.90625,0.46875 -0.15625,0 -0.265625,0 -0.265625,0.1875 C 5.96875,0 6.078125,0 6.109375,0 6.390625,0 7.0625,-0.03125 7.34375,-0.03125 7.75,-0.03125 8.1875,0 8.59375,0 8.65625,0 8.78125,0 8.78125,-0.203125 8.78125,-0.3125 8.6875,-0.3125 8.5,-0.3125 c -0.359375,0 -0.640625,0 -0.640625,-0.171875 0,-0.046875 0,-0.0625 0.046875,-0.25 z"
             style="stroke:none"
             inkscape:connector-curvature="0" />
        </symbol>
        <symbol
           id="textext-818a6410-2"
           overflow="visible"
           style="overflow:visible">
          <path
             id="path3006"
             d="M 3.734375,-6.046875 C 3.8125,-6.40625 3.84375,-6.5 4.640625,-6.5 c 0.234375,0 0.3125,0 0.3125,-0.1875 0,-0.125 -0.109375,-0.125 -0.140625,-0.125 -0.296875,0 -1.03125,0.03125 -1.328125,0.03125 -0.296875,0 -1.015625,-0.03125 -1.328125,-0.03125 -0.0625,0 -0.1875,0 -0.1875,0.203125 C 1.96875,-6.5 2.046875,-6.5 2.25,-6.5 c 0.40625,0 0.6875,0 0.6875,0.1875 0,0.046875 0,0.078125 -0.03125,0.15625 l -1.34375,5.375 c -0.09375,0.375 -0.109375,0.46875 -0.90625,0.46875 -0.234375,0 -0.3125,0 -0.3125,0.203125 C 0.34375,0 0.453125,0 0.484375,0 0.78125,0 1.5,-0.03125 1.796875,-0.03125 2.09375,-0.03125 2.828125,0 3.125,0 c 0.078125,0 0.203125,0 0.203125,-0.1875 0,-0.125 -0.078125,-0.125 -0.296875,-0.125 -0.1875,0 -0.234375,0 -0.421875,-0.015625 -0.21875,-0.015625 -0.25,-0.0625 -0.25,-0.171875 0,-0.078125 0.015625,-0.15625 0.03125,-0.234375 z"
             style="stroke:none"
             inkscape:connector-curvature="0" />
        </symbol>
        <symbol
           id="textext-818a6410-3"
           overflow="visible"
           style="overflow:visible">
          <path
             id="path3009"
             d="m 3.734375,-6.125 c 0.0625,-0.234375 0.09375,-0.328125 0.28125,-0.359375 C 4.109375,-6.5 4.421875,-6.5 4.625,-6.5 c 0.703125,0 1.8125,0 1.8125,0.984375 0,0.34375 -0.15625,1.03125 -0.546875,1.421875 -0.265625,0.25 -0.78125,0.578125 -1.6875,0.578125 l -1.109375,0 z m 1.4375,2.734375 c 1.015625,-0.21875 2.1875,-0.921875 2.1875,-1.921875 0,-0.859375 -0.890625,-1.5 -2.203125,-1.5 l -2.828125,0 c -0.203125,0 -0.296875,0 -0.296875,0.203125 C 2.03125,-6.5 2.125,-6.5 2.3125,-6.5 c 0.015625,0 0.203125,0 0.375,0.015625 0.1875,0.03125 0.265625,0.03125 0.265625,0.171875 0,0.03125 0,0.0625 -0.03125,0.1875 l -1.34375,5.34375 C 1.484375,-0.390625 1.46875,-0.3125 0.671875,-0.3125 0.5,-0.3125 0.40625,-0.3125 0.40625,-0.109375 0.40625,0 0.53125,0 0.546875,0 c 0.28125,0 0.984375,-0.03125 1.25,-0.03125 0.28125,0 1,0.03125 1.28125,0.03125 0.078125,0 0.1875,0 0.1875,-0.203125 0,-0.109375 -0.078125,-0.109375 -0.28125,-0.109375 -0.359375,0 -0.640625,0 -0.640625,-0.171875 0,-0.0625 0.015625,-0.109375 0.03125,-0.171875 l 0.65625,-2.640625 1.1875,0 c 0.90625,0 1.078125,0.5625 1.078125,0.90625 0,0.140625 -0.078125,0.453125 -0.140625,0.6875 C 5.09375,-1.421875 5,-1.0625 5,-0.859375 5,0.21875 6.203125,0.21875 6.328125,0.21875 c 0.84375,0 1.203125,-1 1.203125,-1.140625 0,-0.125 -0.109375,-0.125 -0.125,-0.125 -0.09375,0 -0.109375,0.0625 -0.125,0.140625 C 7.03125,-0.171875 6.59375,0 6.375,0 6.046875,0 5.96875,-0.21875 5.96875,-0.609375 c 0,-0.3125 0.0625,-0.8125 0.109375,-1.140625 0.015625,-0.140625 0.03125,-0.328125 0.03125,-0.46875 0,-0.765625 -0.671875,-1.078125 -0.9375,-1.171875 z"
             style="stroke:none"
             inkscape:connector-curvature="0" />
        </symbol>
        <symbol
           id="textext-818a6410-4"
           overflow="visible"
           style="overflow:visible">
          <path
             id="path3012"
             d=""
             style="stroke:none"
             inkscape:connector-curvature="0" />
        </symbol>
        <symbol
           id="textext-818a6410-5"
           overflow="visible"
           style="overflow:visible">
          <path
             id="path3015"
             d="m 3.875,-2.65625 0.65625,-0.671875 c 0.890625,-0.875 1.171875,-1.140625 1.796875,-1.1875 0.09375,0 0.171875,0 0.171875,-0.140625 0,-0.078125 -0.078125,-0.109375 -0.09375,-0.109375 -0.203125,0 -0.453125,0.03125 -0.65625,0.03125 -0.1875,0 -0.625,-0.03125 -0.8125,-0.03125 -0.046875,0 -0.140625,0.03125 -0.140625,0.15625 0,0.015625 0,0.09375 0.109375,0.09375 0.0625,0.015625 0.234375,0.03125 0.234375,0.1875 0,0.09375 -0.109375,0.203125 -0.171875,0.28125 C 4.90625,-4 4.03125,-3.140625 3.765625,-2.875 L 3.0625,-4.234375 C 3.046875,-4.265625 3.03125,-4.3125 3.03125,-4.328125 c 0,-0.0625 0.125,-0.171875 0.375,-0.1875 0.046875,0 0.140625,0 0.140625,-0.140625 0,-0.015625 0,-0.109375 -0.125,-0.109375 -0.140625,0 -0.3125,0.03125 -0.453125,0.03125 -0.15625,0 -0.3125,0 -0.453125,0 -0.125,0 -0.296875,0 -0.421875,0 -0.109375,-0.015625 -0.265625,-0.03125 -0.375,-0.03125 -0.03125,0 -0.140625,0 -0.140625,0.15625 0,0.09375 0.09375,0.09375 0.203125,0.09375 0.40625,0 0.4375,0.078125 0.5,0.21875 L 3.265625,-2.375 2.875,-1.984375 c -0.140625,0.125 -0.46875,0.4375 -0.59375,0.5625 -0.84375,0.84375 -1.125,1.140625 -1.765625,1.171875 -0.09375,0 -0.171875,0 -0.171875,0.15625 C 0.34375,-0.0625 0.375,0 0.453125,0 c 0.1875,0 0.4375,-0.03125 0.640625,-0.03125 0.125,0 0.296875,0 0.40625,0.015625 C 1.625,-0.015625 1.78125,0 1.90625,0 1.9375,0 2.046875,0 2.046875,-0.140625 2.046875,-0.25 1.96875,-0.25 1.921875,-0.25 c -0.0625,-0.015625 -0.21875,-0.03125 -0.21875,-0.171875 0,-0.109375 0.09375,-0.203125 0.25,-0.359375 l 1.40625,-1.390625 0.84375,1.65625 C 4.25,-0.453125 4.25,-0.4375 4.25,-0.421875 c 0,0.03125 -0.125,0.15625 -0.375,0.171875 -0.0625,0 -0.140625,0 -0.140625,0.15625 0,0 0,0.09375 0.109375,0.09375 C 4,0 4.171875,-0.015625 4.3125,-0.015625 c 0.140625,0 0.3125,-0.015625 0.453125,-0.015625 0.125,0 0.28125,0 0.40625,0.015625 C 5.296875,-0.015625 5.4375,0 5.546875,0 5.59375,0 5.703125,0 5.703125,-0.15625 5.703125,-0.25 5.609375,-0.25 5.5,-0.25 5.09375,-0.25 5.0625,-0.328125 5,-0.453125 z"
             style="stroke:none"
             inkscape:connector-curvature="0" />
        </symbol>
        <symbol
           id="textext-818a6410-6"
           overflow="visible"
           style="overflow:visible">
          <path
             id="path3018"
             d="M 4.71875,-3.921875 C 4.859375,-4.0625 5,-4.1875 5.15625,-4.296875 5.4375,-4.484375 5.6875,-4.5 5.78125,-4.515625 c 0.078125,0 0.15625,0 0.15625,-0.140625 0,-0.046875 -0.03125,-0.109375 -0.09375,-0.109375 -0.171875,0 -0.375,0.03125 -0.5625,0.03125 -0.21875,0 -0.515625,-0.03125 -0.71875,-0.03125 -0.046875,0 -0.140625,0 -0.140625,0.15625 0,0.09375 0.09375,0.09375 0.125,0.09375 C 4.75,-4.5 4.75,-4.421875 4.75,-4.375 c 0,0.0625 -0.046875,0.109375 -0.09375,0.1875 -0.046875,0.0625 -0.078125,0.109375 -0.125,0.140625 L 2.796875,-2.21875 1.875,-4.265625 c -0.046875,-0.09375 -0.046875,-0.109375 -0.046875,-0.125 0,-0.125 0.328125,-0.125 0.375,-0.125 0.09375,0 0.1875,0 0.1875,-0.140625 0,-0.015625 0,-0.109375 -0.125,-0.109375 -0.203125,0 -0.71875,0.03125 -0.921875,0.03125 -0.1875,0 -0.625,-0.03125 -0.796875,-0.03125 -0.0625,0 -0.140625,0.03125 -0.140625,0.15625 0,0.09375 0.09375,0.09375 0.1875,0.09375 0.40625,0 0.4375,0.0625 0.5,0.21875 l 1.078125,2.390625 -0.3125,1.265625 c -0.09375,0.359375 -0.09375,0.375 -0.640625,0.390625 -0.125,0 -0.203125,0 -0.203125,0.140625 C 1.015625,-0.03125 1.0625,0 1.125,0 1.25,0 1.421875,-0.015625 1.546875,-0.015625 c 0.140625,0 0.34375,-0.015625 0.46875,-0.015625 0.140625,0 0.296875,0.015625 0.4375,0.015625 C 2.609375,-0.015625 2.78125,0 2.921875,0 2.96875,0 3.078125,0 3.078125,-0.15625 3.078125,-0.25 3,-0.25 2.84375,-0.25 c -0.109375,0 -0.140625,0 -0.265625,-0.015625 -0.125,-0.015625 -0.15625,-0.03125 -0.15625,-0.09375 0,-0.046875 0.09375,-0.375 0.140625,-0.5625 C 2.609375,-1.15625 2.765625,-1.75 2.78125,-1.78125 2.796875,-1.890625 2.796875,-1.90625 2.875,-1.96875 z"
             style="stroke:none"
             inkscape:connector-curvature="0" />
        </symbol>
      </g>
    </defs>
    <defs
       id="defs4138">
      <g
         id="g4140">
        <symbol
           style="overflow:visible"
           overflow="visible"
           id="textext-bfa32728-0">
          <path
             inkscape:connector-curvature="0"
             style="stroke:none"
             d=""
             id="path4143" />
        </symbol>
        <symbol
           style="overflow:visible"
           overflow="visible"
           id="textext-bfa32728-1">
          <path
             inkscape:connector-curvature="0"
             style="stroke:none"
             d="M 9.234375,-6.046875 C 9.328125,-6.40625 9.34375,-6.5 10.09375,-6.5 c 0.21875,0 0.3125,0 0.3125,-0.203125 0,-0.109375 -0.09375,-0.109375 -0.265625,-0.109375 l -1.3125,0 c -0.265625,0 -0.28125,0 -0.390625,0.1875 L 4.796875,-0.9375 4.015625,-6.578125 C 3.984375,-6.8125 3.96875,-6.8125 3.703125,-6.8125 l -1.359375,0 c -0.1875,0 -0.296875,0 -0.296875,0.1875 0,0.125 0.09375,0.125 0.28125,0.125 0.140625,0 0.3125,0.015625 0.4375,0.015625 0.15625,0.03125 0.21875,0.046875 0.21875,0.171875 0,0.03125 -0.015625,0.0625 -0.046875,0.1875 l -1.265625,5.0625 c -0.09375,0.40625 -0.265625,0.71875 -1.078125,0.75 -0.046875,0 -0.171875,0.015625 -0.171875,0.1875 0,0.09375 0.0625,0.125 0.140625,0.125 0.3125,0 0.65625,-0.03125 1,-0.03125 C 1.890625,-0.03125 2.25,0 2.578125,0 c 0.046875,0 0.1875,0 0.1875,-0.203125 0,-0.109375 -0.109375,-0.109375 -0.1875,-0.109375 -0.5625,0 -0.671875,-0.203125 -0.671875,-0.4375 0,-0.0625 0,-0.125 0.03125,-0.234375 l 1.359375,-5.421875 0.015625,0 0.859375,6.171875 C 4.1875,-0.109375 4.203125,0 4.3125,0 4.421875,0 4.484375,-0.109375 4.53125,-0.171875 l 4.03125,-6.3125 0.015625,0 -1.4375,5.703125 c -0.09375,0.390625 -0.109375,0.46875 -0.90625,0.46875 -0.15625,0 -0.265625,0 -0.265625,0.1875 C 5.96875,0 6.078125,0 6.109375,0 6.390625,0 7.0625,-0.03125 7.34375,-0.03125 7.75,-0.03125 8.1875,0 8.59375,0 8.65625,0 8.78125,0 8.78125,-0.203125 8.78125,-0.3125 8.6875,-0.3125 8.5,-0.3125 c -0.359375,0 -0.640625,0 -0.640625,-0.171875 0,-0.046875 0,-0.0625 0.046875,-0.25 z"
             id="path4146" />
        </symbol>
        <symbol
           style="overflow:visible"
           overflow="visible"
           id="textext-bfa32728-2">
          <path
             inkscape:connector-curvature="0"
             style="stroke:none"
             d="M 3.734375,-6.046875 C 3.8125,-6.40625 3.84375,-6.5 4.640625,-6.5 c 0.234375,0 0.3125,0 0.3125,-0.1875 0,-0.125 -0.109375,-0.125 -0.140625,-0.125 -0.296875,0 -1.03125,0.03125 -1.328125,0.03125 -0.296875,0 -1.015625,-0.03125 -1.328125,-0.03125 -0.0625,0 -0.1875,0 -0.1875,0.203125 C 1.96875,-6.5 2.046875,-6.5 2.25,-6.5 c 0.40625,0 0.6875,0 0.6875,0.1875 0,0.046875 0,0.078125 -0.03125,0.15625 l -1.34375,5.375 c -0.09375,0.375 -0.109375,0.46875 -0.90625,0.46875 -0.234375,0 -0.3125,0 -0.3125,0.203125 C 0.34375,0 0.453125,0 0.484375,0 0.78125,0 1.5,-0.03125 1.796875,-0.03125 2.09375,-0.03125 2.828125,0 3.125,0 c 0.078125,0 0.203125,0 0.203125,-0.1875 0,-0.125 -0.078125,-0.125 -0.296875,-0.125 -0.1875,0 -0.234375,0 -0.421875,-0.015625 -0.21875,-0.015625 -0.25,-0.0625 -0.25,-0.171875 0,-0.078125 0.015625,-0.15625 0.03125,-0.234375 z"
             id="path4149" />
        </symbol>
        <symbol
           style="overflow:visible"
           overflow="visible"
           id="textext-bfa32728-3">
          <path
             inkscape:connector-curvature="0"
             style="stroke:none"
             d="m 3.734375,-6.125 c 0.0625,-0.234375 0.09375,-0.328125 0.28125,-0.359375 C 4.109375,-6.5 4.421875,-6.5 4.625,-6.5 c 0.703125,0 1.8125,0 1.8125,0.984375 0,0.34375 -0.15625,1.03125 -0.546875,1.421875 -0.265625,0.25 -0.78125,0.578125 -1.6875,0.578125 l -1.109375,0 z m 1.4375,2.734375 c 1.015625,-0.21875 2.1875,-0.921875 2.1875,-1.921875 0,-0.859375 -0.890625,-1.5 -2.203125,-1.5 l -2.828125,0 c -0.203125,0 -0.296875,0 -0.296875,0.203125 C 2.03125,-6.5 2.125,-6.5 2.3125,-6.5 c 0.015625,0 0.203125,0 0.375,0.015625 0.1875,0.03125 0.265625,0.03125 0.265625,0.171875 0,0.03125 0,0.0625 -0.03125,0.1875 l -1.34375,5.34375 C 1.484375,-0.390625 1.46875,-0.3125 0.671875,-0.3125 0.5,-0.3125 0.40625,-0.3125 0.40625,-0.109375 0.40625,0 0.53125,0 0.546875,0 c 0.28125,0 0.984375,-0.03125 1.25,-0.03125 0.28125,0 1,0.03125 1.28125,0.03125 0.078125,0 0.1875,0 0.1875,-0.203125 0,-0.109375 -0.078125,-0.109375 -0.28125,-0.109375 -0.359375,0 -0.640625,0 -0.640625,-0.171875 0,-0.0625 0.015625,-0.109375 0.03125,-0.171875 l 0.65625,-2.640625 1.1875,0 c 0.90625,0 1.078125,0.5625 1.078125,0.90625 0,0.140625 -0.078125,0.453125 -0.140625,0.6875 C 5.09375,-1.421875 5,-1.0625 5,-0.859375 5,0.21875 6.203125,0.21875 6.328125,0.21875 c 0.84375,0 1.203125,-1 1.203125,-1.140625 0,-0.125 -0.109375,-0.125 -0.125,-0.125 -0.09375,0 -0.109375,0.0625 -0.125,0.140625 C 7.03125,-0.171875 6.59375,0 6.375,0 6.046875,0 5.96875,-0.21875 5.96875,-0.609375 c 0,-0.3125 0.0625,-0.8125 0.109375,-1.140625 0.015625,-0.140625 0.03125,-0.328125 0.03125,-0.46875 0,-0.765625 -0.671875,-1.078125 -0.9375,-1.171875 z"
             id="path4152" />
        </symbol>
        <symbol
           style="overflow:visible"
           overflow="visible"
           id="textext-bfa32728-4">
          <path
             inkscape:connector-curvature="0"
             style="stroke:none"
             d="M 1.78125,-1.140625 C 1.390625,-0.484375 1,-0.34375 0.5625,-0.3125 0.4375,-0.296875 0.34375,-0.296875 0.34375,-0.109375 0.34375,-0.046875 0.40625,0 0.484375,0 0.75,0 1.0625,-0.03125 1.328125,-0.03125 c 0.34375,0 0.6875,0.03125 1,0.03125 0.0625,0 0.1875,0 0.1875,-0.1875 0,-0.109375 -0.078125,-0.125 -0.15625,-0.125 -0.21875,-0.015625 -0.46875,-0.09375 -0.46875,-0.34375 0,-0.125 0.0625,-0.234375 0.140625,-0.375 l 0.765625,-1.265625 2.5,0 c 0.015625,0.203125 0.15625,1.5625 0.15625,1.65625 0,0.296875 -0.515625,0.328125 -0.71875,0.328125 C 4.59375,-0.3125 4.5,-0.3125 4.5,-0.109375 4.5,0 4.609375,0 4.640625,0 5.046875,0 5.46875,-0.03125 5.875,-0.03125 6.125,-0.03125 6.765625,0 7.015625,0 7.0625,0 7.1875,0 7.1875,-0.203125 7.1875,-0.3125 7.09375,-0.3125 6.953125,-0.3125 6.34375,-0.3125 6.34375,-0.375 6.3125,-0.671875 l -0.609375,-6.21875 c -0.015625,-0.203125 -0.015625,-0.25 -0.1875,-0.25 -0.15625,0 -0.203125,0.078125 -0.265625,0.171875 z M 2.984375,-2.609375 4.9375,-5.90625 5.265625,-2.609375 z"
             id="path4155" />
        </symbol>
        <symbol
           style="overflow:visible"
           overflow="visible"
           id="textext-bfa32728-5">
          <path
             inkscape:connector-curvature="0"
             style="stroke:none"
             d="m 7.578125,-6.921875 c 0,-0.03125 -0.015625,-0.109375 -0.109375,-0.109375 -0.03125,0 -0.046875,0.015625 -0.15625,0.125 L 6.625,-6.140625 C 6.53125,-6.28125 6.078125,-7.03125 4.96875,-7.03125 2.734375,-7.03125 0.5,-4.828125 0.5,-2.515625 0.5,-0.875 1.671875,0.21875 3.203125,0.21875 c 0.859375,0 1.625,-0.390625 2.15625,-0.859375 0.921875,-0.8125 1.09375,-1.71875 1.09375,-1.75 C 6.453125,-2.5 6.34375,-2.5 6.328125,-2.5 c -0.0625,0 -0.109375,0.03125 -0.125,0.109375 -0.09375,0.28125 -0.328125,1 -1.015625,1.578125 -0.6875,0.546875 -1.3125,0.71875 -1.828125,0.71875 -0.890625,0 -1.953125,-0.515625 -1.953125,-2.0625 0,-0.578125 0.203125,-2.1875 1.203125,-3.359375 0.609375,-0.703125 1.546875,-1.203125 2.4375,-1.203125 1.015625,0 1.609375,0.765625 1.609375,1.921875 0,0.40625 -0.03125,0.40625 -0.03125,0.515625 0,0.09375 0.109375,0.09375 0.140625,0.09375 0.125,0 0.125,-0.015625 0.1875,-0.203125 z"
             id="path4158" />
        </symbol>
        <symbol
           style="overflow:visible"
           overflow="visible"
           id="textext-bfa32728-6">
          <path
             inkscape:connector-curvature="0"
             style="stroke:none"
             d="m 7.578125,-6.921875 c 0,-0.03125 -0.015625,-0.109375 -0.109375,-0.109375 -0.03125,0 -0.046875,0.015625 -0.15625,0.125 L 6.625,-6.140625 C 6.53125,-6.28125 6.078125,-7.03125 4.96875,-7.03125 2.734375,-7.03125 0.5,-4.828125 0.5,-2.515625 c 0,1.59375 1.109375,2.734375 2.71875,2.734375 0.4375,0 0.890625,-0.09375 1.25,-0.234375 0.5,-0.203125 0.6875,-0.40625 0.859375,-0.609375 0.09375,0.25 0.359375,0.609375 0.453125,0.609375 0.046875,0 0.078125,-0.03125 0.078125,-0.03125 C 5.875,-0.0625 5.96875,-0.453125 6.015625,-0.65625 l 0.1875,-0.765625 C 6.25,-1.59375 6.296875,-1.765625 6.34375,-1.9375 c 0.109375,-0.4375 0.109375,-0.46875 0.6875,-0.46875 0.046875,0 0.15625,-0.015625 0.15625,-0.203125 0,-0.078125 -0.046875,-0.109375 -0.125,-0.109375 -0.234375,0 -0.828125,0.03125 -1.046875,0.03125 -0.3125,0 -1.09375,-0.03125 -1.40625,-0.03125 -0.078125,0 -0.203125,0 -0.203125,0.203125 0,0.109375 0.078125,0.109375 0.296875,0.109375 0.015625,0 0.296875,0 0.53125,0.015625 0.265625,0.03125 0.3125,0.0625 0.3125,0.1875 0,0.09375 -0.109375,0.53125 -0.21875,0.90625 -0.28125,1.09375 -1.5625,1.203125 -1.921875,1.203125 -0.953125,0 -2,-0.5625 -2,-2.09375 0,-0.3125 0.09375,-1.953125 1.140625,-3.25 0.546875,-0.671875 1.515625,-1.28125 2.5,-1.28125 1.015625,0 1.609375,0.765625 1.609375,1.921875 0,0.40625 -0.03125,0.40625 -0.03125,0.515625 0,0.09375 0.109375,0.09375 0.140625,0.09375 0.125,0 0.125,-0.015625 0.1875,-0.203125 z"
             id="path4161" />
        </symbol>
        <symbol
           style="overflow:visible"
           overflow="visible"
           id="textext-bfa32728-7">
          <path
             inkscape:connector-curvature="0"
             style="stroke:none"
             d="m 4.25,-6.046875 c 0.078125,-0.28125 0.109375,-0.34375 0.234375,-0.375 0.09375,-0.015625 0.421875,-0.015625 0.625,-0.015625 1.015625,0 1.453125,0.03125 1.453125,0.8125 0,0.15625 -0.03125,0.546875 -0.078125,0.796875 0,0.046875 -0.03125,0.15625 -0.03125,0.1875 0,0.0625 0.03125,0.140625 0.125,0.140625 0.109375,0 0.125,-0.078125 0.15625,-0.234375 L 7,-6.46875 C 7.015625,-6.515625 7.015625,-6.609375 7.015625,-6.640625 7.015625,-6.75 6.921875,-6.75 6.75,-6.75 l -5.53125,0 c -0.234375,0 -0.25,0.015625 -0.328125,0.203125 l -0.59375,1.75 c 0,0.015625 -0.0625,0.15625 -0.0625,0.1875 0,0.046875 0.0625,0.109375 0.125,0.109375 0.09375,0 0.109375,-0.0625 0.171875,-0.21875 C 1.0625,-6.265625 1.328125,-6.4375 2.796875,-6.4375 l 0.390625,0 c 0.28125,0 0.28125,0.03125 0.28125,0.125 0,0.046875 -0.03125,0.171875 -0.046875,0.203125 L 2.09375,-0.78125 C 2,-0.421875 1.96875,-0.3125 0.90625,-0.3125 c -0.359375,0 -0.421875,0 -0.421875,0.1875 C 0.484375,0 0.59375,0 0.65625,0 c 0.265625,0 0.546875,-0.015625 0.8125,-0.015625 0.28125,0 0.578125,-0.015625 0.859375,-0.015625 0.28125,0 0.546875,0.015625 0.828125,0.015625 C 3.4375,-0.015625 3.734375,0 4.015625,0 c 0.09375,0 0.21875,0 0.21875,-0.203125 0,-0.109375 -0.078125,-0.109375 -0.34375,-0.109375 -0.234375,0 -0.375,0 -0.625,-0.015625 -0.296875,-0.03125 -0.375,-0.0625 -0.375,-0.21875 0,-0.015625 0,-0.0625 0.046875,-0.203125 z"
             id="path4164" />
        </symbol>
        <symbol
           style="overflow:visible"
           overflow="visible"
           id="textext-bfa32728-8">
          <path
             inkscape:connector-curvature="0"
             style="stroke:none"
             d=""
             id="path4167" />
        </symbol>
        <symbol
           style="overflow:visible"
           overflow="visible"
           id="textext-bfa32728-9">
          <path
             inkscape:connector-curvature="0"
             style="stroke:none"
             d="M 4.71875,-3.921875 C 4.859375,-4.0625 5,-4.1875 5.15625,-4.296875 5.4375,-4.484375 5.6875,-4.5 5.78125,-4.515625 c 0.078125,0 0.15625,0 0.15625,-0.140625 0,-0.046875 -0.03125,-0.109375 -0.09375,-0.109375 -0.171875,0 -0.375,0.03125 -0.5625,0.03125 -0.21875,0 -0.515625,-0.03125 -0.71875,-0.03125 -0.046875,0 -0.140625,0 -0.140625,0.15625 0,0.09375 0.09375,0.09375 0.125,0.09375 C 4.75,-4.5 4.75,-4.421875 4.75,-4.375 c 0,0.0625 -0.046875,0.109375 -0.09375,0.1875 -0.046875,0.0625 -0.078125,0.109375 -0.125,0.140625 L 2.796875,-2.21875 1.875,-4.265625 c -0.046875,-0.09375 -0.046875,-0.109375 -0.046875,-0.125 0,-0.125 0.328125,-0.125 0.375,-0.125 0.09375,0 0.1875,0 0.1875,-0.140625 0,-0.015625 0,-0.109375 -0.125,-0.109375 -0.203125,0 -0.71875,0.03125 -0.921875,0.03125 -0.1875,0 -0.625,-0.03125 -0.796875,-0.03125 -0.0625,0 -0.140625,0.03125 -0.140625,0.15625 0,0.09375 0.09375,0.09375 0.1875,0.09375 0.40625,0 0.4375,0.0625 0.5,0.21875 l 1.078125,2.390625 -0.3125,1.265625 c -0.09375,0.359375 -0.09375,0.375 -0.640625,0.390625 -0.125,0 -0.203125,0 -0.203125,0.140625 C 1.015625,-0.03125 1.0625,0 1.125,0 1.25,0 1.421875,-0.015625 1.546875,-0.015625 c 0.140625,0 0.34375,-0.015625 0.46875,-0.015625 0.140625,0 0.296875,0.015625 0.4375,0.015625 C 2.609375,-0.015625 2.78125,0 2.921875,0 2.96875,0 3.078125,0 3.078125,-0.15625 3.078125,-0.25 3,-0.25 2.84375,-0.25 c -0.109375,0 -0.140625,0 -0.265625,-0.015625 -0.125,-0.015625 -0.15625,-0.03125 -0.15625,-0.09375 0,-0.046875 0.09375,-0.375 0.140625,-0.5625 C 2.609375,-1.15625 2.765625,-1.75 2.78125,-1.78125 2.796875,-1.890625 2.796875,-1.90625 2.875,-1.96875 z"
             id="path4170" />
        </symbol>
        <symbol
           style="overflow:visible"
           overflow="visible"
           id="textext-bfa32728-10">
          <path
             inkscape:connector-curvature="0"
             style="stroke:none"
             d="m 3.875,-2.65625 0.65625,-0.671875 c 0.890625,-0.875 1.171875,-1.140625 1.796875,-1.1875 0.09375,0 0.171875,0 0.171875,-0.140625 0,-0.078125 -0.078125,-0.109375 -0.09375,-0.109375 -0.203125,0 -0.453125,0.03125 -0.65625,0.03125 -0.1875,0 -0.625,-0.03125 -0.8125,-0.03125 -0.046875,0 -0.140625,0.03125 -0.140625,0.15625 0,0.015625 0,0.09375 0.109375,0.09375 0.0625,0.015625 0.234375,0.03125 0.234375,0.1875 0,0.09375 -0.109375,0.203125 -0.171875,0.28125 C 4.90625,-4 4.03125,-3.140625 3.765625,-2.875 L 3.0625,-4.234375 C 3.046875,-4.265625 3.03125,-4.3125 3.03125,-4.328125 c 0,-0.0625 0.125,-0.171875 0.375,-0.1875 0.046875,0 0.140625,0 0.140625,-0.140625 0,-0.015625 0,-0.109375 -0.125,-0.109375 -0.140625,0 -0.3125,0.03125 -0.453125,0.03125 -0.15625,0 -0.3125,0 -0.453125,0 -0.125,0 -0.296875,0 -0.421875,0 -0.109375,-0.015625 -0.265625,-0.03125 -0.375,-0.03125 -0.03125,0 -0.140625,0 -0.140625,0.15625 0,0.09375 0.09375,0.09375 0.203125,0.09375 0.40625,0 0.4375,0.078125 0.5,0.21875 L 3.265625,-2.375 2.875,-1.984375 c -0.140625,0.125 -0.46875,0.4375 -0.59375,0.5625 -0.84375,0.84375 -1.125,1.140625 -1.765625,1.171875 -0.09375,0 -0.171875,0 -0.171875,0.15625 C 0.34375,-0.0625 0.375,0 0.453125,0 c 0.1875,0 0.4375,-0.03125 0.640625,-0.03125 0.125,0 0.296875,0 0.40625,0.015625 C 1.625,-0.015625 1.78125,0 1.90625,0 1.9375,0 2.046875,0 2.046875,-0.140625 2.046875,-0.25 1.96875,-0.25 1.921875,-0.25 c -0.0625,-0.015625 -0.21875,-0.03125 -0.21875,-0.171875 0,-0.109375 0.09375,-0.203125 0.25,-0.359375 l 1.40625,-1.390625 0.84375,1.65625 C 4.25,-0.453125 4.25,-0.4375 4.25,-0.421875 c 0,0.03125 -0.125,0.15625 -0.375,0.171875 -0.0625,0 -0.140625,0 -0.140625,0.15625 0,0 0,0.09375 0.109375,0.09375 C 4,0 4.171875,-0.015625 4.3125,-0.015625 c 0.140625,0 0.3125,-0.015625 0.453125,-0.015625 0.125,0 0.28125,0 0.40625,0.015625 C 5.296875,-0.015625 5.4375,0 5.546875,0 5.59375,0 5.703125,0 5.703125,-0.15625 5.703125,-0.25 5.609375,-0.25 5.5,-0.25 5.09375,-0.25 5.0625,-0.328125 5,-0.453125 z"
             id="path4173" />
        </symbol>
        <symbol
           style="overflow:visible"
           overflow="visible"
           id="textext-bfa32728-11">
          <path
             inkscape:connector-curvature="0"
             style="stroke:none"
             d=""
             id="path4176" />
        </symbol>
        <symbol
           style="overflow:visible"
           overflow="visible"
           id="textext-bfa32728-12">
          <path
             inkscape:connector-curvature="0"
             style="stroke:none"
             d="m 6.5625,-2.296875 c 0.171875,0 0.359375,0 0.359375,-0.203125 0,-0.1875 -0.1875,-0.1875 -0.359375,-0.1875 l -5.390625,0 c -0.171875,0 -0.34375,0 -0.34375,0.1875 0,0.203125 0.171875,0.203125 0.34375,0.203125 z"
             id="path4179" />
        </symbol>
      </g>
    </defs>
    <marker
       inkscape:stockid="Arrow1Mend"
       orient="auto"
       refY="0"
       refX="0"
       id="Arrow1Mend-1"
       style="overflow:visible">
      <path
         inkscape:connector-curvature="0"
         id="path6362-5"
         d="M 0,0 5,-5 -12.5,0 5,5 0,0 z"
         style="fill-rule:evenodd;stroke:#000000;stroke-width:1pt"
         transform="matrix(-0.4,0,0,-0.4,-4,0)" />
    </marker>
    <marker
       inkscape:stockid="Arrow1Mend"
       orient="auto"
       refY="0"
       refX="0"
       id="Arrow1Mend-0"
       style="overflow:visible">
      <path
         inkscape:connector-curvature="0"
         id="path6362-3"
         d="M 0,0 5,-5 -12.5,0 5,5 0,0 z"
         style="fill-rule:evenodd;stroke:#000000;stroke-width:1pt"
         transform="matrix(-0.4,0,0,-0.4,-4,0)" />
    </marker>
    <marker
       inkscape:stockid="Arrow1Mend"
       orient="auto"
       refY="0"
       refX="0"
       id="Arrow1Mend-0-7"
       style="overflow:visible">
      <path
         inkscape:connector-curvature="0"
         id="path6362-3-2"
         d="M 0,0 5,-5 -12.5,0 5,5 0,0 z"
         style="fill-rule:evenodd;stroke:#000000;stroke-width:1pt"
         transform="matrix(-0.4,0,0,-0.4,-4,0)" />
    </marker>
    <marker
       inkscape:stockid="Arrow1Mend"
       orient="auto"
       refY="0"
       refX="0"
       id="Arrow1Mend-0-2"
       style="overflow:visible">
      <path
         inkscape:connector-curvature="0"
         id="path6362-3-3"
         d="M 0,0 5,-5 -12.5,0 5,5 0,0 z"
         style="fill-rule:evenodd;stroke:#000000;stroke-width:1pt"
         transform="matrix(-0.4,0,0,-0.4,-4,0)" />
    </marker>
    <marker
       inkscape:stockid="Arrow1Mend"
       orient="auto"
       refY="0"
       refX="0"
       id="Arrow1Mend-0-75"
       style="overflow:visible">
      <path
         inkscape:connector-curvature="0"
         id="path6362-3-0"
         d="M 0,0 5,-5 -12.5,0 5,5 0,0 z"
         style="fill-rule:evenodd;stroke:#000000;stroke-width:1pt"
         transform="matrix(-0.4,0,0,-0.4,-4,0)" />
    </marker>
    <marker
       inkscape:stockid="Arrow1Mend"
       orient="auto"
       refY="0"
       refX="0"
       id="Arrow1Mend-0-72"
       style="overflow:visible">
      <path
         inkscape:connector-curvature="0"
         id="path6362-3-9"
         d="M 0,0 5,-5 -12.5,0 5,5 0,0 z"
         style="fill-rule:evenodd;stroke:#000000;stroke-width:1pt"
         transform="matrix(-0.4,0,0,-0.4,-4,0)" />
    </marker>
  </defs>
  <metadata
     id="metadata7">
    <rdf:RDF>
      <cc:Work
         rdf:about="">
        <dc:format>image/svg+xml</dc:format>
        <dc:type
           rdf:resource="http://purl.org/dc/dcmitype/StillImage" />
        <dc:title />
      </cc:Work>
    </rdf:RDF>
  </metadata>
  <g
     inkscape:label="Layer 1"
     inkscape:groupmode="layer"
     id="layer1">
    <path
       style="fill:none;stroke:#000000;stroke-width:1.20000005;stroke-linecap:butt;stroke-linejoin:miter;stroke-miterlimit:4;stroke-opacity:1;stroke-dasharray:none;marker-end:url(#Arrow1Mend-0)"
       d="m 379.4597,192.75742 33.27592,-0.0185"
       id="path10952"
       inkscape:connector-type="polyline"
       inkscape:connector-curvature="0"
       inkscape:connection-start="#path2985-3-5"
       inkscape:connection-start-point="d4"
       inkscape:connection-end="#path9163-14"
       inkscape:connection-end-point="d4" />
    <path
       sodipodi:type="arc"
       style="color:#000000;fill:none;stroke:#000000;stroke-width:1.10000002;stroke-linecap:butt;stroke-linejoin:miter;stroke-miterlimit:4;stroke-opacity:1;stroke-dasharray:none;stroke-dashoffset:0;marker:none;marker-end:url(#Arrow1Mend-0);visibility:visible;display:inline;overflow:visible;enable-background:accumulate"
       id="path11359-3"
       sodipodi:cx="277.73438"
       sodipodi:cy="53.534054"
       sodipodi:rx="10.546875"
       sodipodi:ry="10.546875"
       d="M 277.91844,64.079322 A 10.546875,10.546875 0 1 1 288.28125,53.534054"
       sodipodi:start="1.553343"
       sodipodi:end="6.2831853"
       sodipodi:open="true"
       transform="translate(-230.35311,150.00001)" />
    <path
       style="fill:none;stroke:#999999;stroke-width:1.5;stroke-linecap:butt;stroke-linejoin:miter;stroke-miterlimit:4;stroke-opacity:1;stroke-dasharray:4.5, 1.5;stroke-dashoffset:0"
       d="m 60.071967,233.45744 0.370262,54.47136"
       id="path7950"
       inkscape:connector-type="polyline"
       inkscape:connector-curvature="0"
       inkscape:connection-start="#path2985"
       inkscape:connection-start-point="d4"
       inkscape:connection-end="#rect7040-6"
       inkscape:connection-end-point="d4" />
    <path
       transform="translate(-62.882275,-67.475835)"
       sodipodi:type="arc"
       style="fill:#ffffff;stroke:#000000;stroke-width:1;stroke-miterlimit:4;stroke-opacity:1;stroke-dasharray:none;stroke-dashoffset:0"
       id="path2985"
       sodipodi:cx="122.85714"
       sodipodi:cy="286.64789"
       sodipodi:rx="14.285714"
       sodipodi:ry="14.285714"
       d="m 137.14285,286.64789 a 14.285714,14.285714 0 1 1 -28.57142,0 14.285714,14.285714 0 1 1 28.57142,0 z" />
    <g
       transform="matrix(1.8325735,0,0,1.8325735,-359.40238,-21.55251)"
       style="fill:#000000;fill-opacity:1"
       id="g3021">
      <use
         height="1052.3622"
         width="744.09448"
         xlink:href="#textext-818a6410-1"
         x="223.43201"
         y="134.765"
         id="use3023" />
    </g>
    <path
       sodipodi:type="arc"
       style="color:#000000;fill:none;stroke:#000000;stroke-width:1.10000002;stroke-linecap:butt;stroke-linejoin:miter;stroke-miterlimit:4;stroke-opacity:1;stroke-dasharray:none;stroke-dashoffset:0;marker:none;marker-end:url(#Arrow1Mend-0);visibility:visible;display:inline;overflow:visible;enable-background:accumulate"
       id="path11359-2"
       sodipodi:cx="277.73438"
       sodipodi:cy="53.534054"
       sodipodi:rx="10.546875"
       sodipodi:ry="10.546875"
       d="M 277.91844,64.079322 A 10.546875,10.546875 0 1 1 288.28125,53.534054"
       sodipodi:start="1.553343"
       sodipodi:end="6.2831853"
       sodipodi:open="true"
       transform="matrix(-0.96592583,0.25881905,-0.25881905,-0.96592583,501.80613,211.2838)" />
    <path
       style="fill:none;stroke:#999999;stroke-width:1.5;stroke-linecap:butt;stroke-linejoin:miter;stroke-miterlimit:4;stroke-opacity:1;stroke-dasharray:4.5, 1.5;stroke-dashoffset:0"
       d="m 202.3218,233.45729 0.44946,54.37529"
       id="path7954"
       inkscape:connector-type="polyline"
       inkscape:connector-curvature="0"
       inkscape:connection-start="#path2985-0"
       inkscape:connection-start-point="d4"
       inkscape:connection-end="#rect7040-6-9-1"
       inkscape:connection-end-point="d4" />
    <path
       transform="translate(79.346584,-67.475835)"
       sodipodi:type="arc"
       style="fill:#ffffff;stroke:#000000;stroke-width:1;stroke-miterlimit:4;stroke-opacity:1;stroke-dasharray:none;stroke-dashoffset:0"
       id="path2985-0"
       sodipodi:cx="122.85714"
       sodipodi:cy="286.64789"
       sodipodi:rx="14.285714"
       sodipodi:ry="14.285714"
       d="m 137.14285,286.64789 a 14.285714,14.285714 0 1 1 -28.57142,0 14.285714,14.285714 0 1 1 28.57142,0 z" />
    <g
       transform="translate(-53.800095,-70.708997)"
       id="g3974">
      <g
         id="g3025"
         style="fill:#000000;fill-opacity:1"
         transform="matrix(1.8325735,0,0,1.8325735,-191.12099,25.879132)">
        <use
           id="use3027"
           y="146.72"
           x="238.37601"
           xlink:href="#textext-818a6410-2"
           width="744.09448"
           height="1052.3622" />
      </g>
      <g
         id="g3029"
         style="fill:#000000;fill-opacity:1"
         transform="matrix(1.8325735,0,0,1.8325735,-191.12099,25.879132)">
        <use
           id="use3031"
           y="148.214"
           x="242.755"
           xlink:href="#textext-818a6410-5"
           width="744.09448"
           height="1052.3622" />
      </g>
    </g>
    <path
       sodipodi:type="arc"
       style="color:#000000;fill:none;stroke:#000000;stroke-width:1.10000002;stroke-linecap:butt;stroke-linejoin:miter;stroke-miterlimit:4;stroke-opacity:1;stroke-dasharray:none;stroke-dashoffset:0;marker:none;marker-end:url(#Arrow1Mend-0);visibility:visible;display:inline;overflow:visible;enable-background:accumulate"
       id="path11359"
       sodipodi:cx="277.73438"
       sodipodi:cy="53.534054"
       sodipodi:rx="10.546875"
       sodipodi:ry="10.546875"
       d="M 277.91844,64.079322 A 10.546875,10.546875 0 1 1 288.28125,53.534054"
       sodipodi:start="1.553343"
       sodipodi:end="6.2831853"
       sodipodi:open="true"
       transform="translate(-156.59375,74.609375)" />
    <path
       style="fill:none;stroke:#999999;stroke-width:1.5;stroke-linecap:butt;stroke-linejoin:miter;stroke-miterlimit:4;stroke-opacity:1;stroke-dasharray:4.5, 1.5;stroke-dashoffset:0"
       d="m 135.23612,158.19018 1.33251,129.6424"
       id="path7952"
       inkscape:connector-type="polyline"
       inkscape:connector-curvature="0"
       inkscape:connection-start="#path2985-8"
       inkscape:connection-start-point="d4"
       inkscape:connection-end="#rect7040-6-9"
       inkscape:connection-end-point="d4" />
    <path
       transform="translate(12.23216,-142.74268)"
       sodipodi:type="arc"
       style="fill:#ffffff;stroke:#000000;stroke-width:1;stroke-miterlimit:4;stroke-opacity:1;stroke-dasharray:none;stroke-dashoffset:0"
       id="path2985-8"
       sodipodi:cx="122.85714"
       sodipodi:cy="286.64789"
       sodipodi:rx="14.285714"
       sodipodi:ry="14.285714"
       d="m 137.14285,286.64789 a 14.285714,14.285714 0 1 1 -28.57142,0 14.285714,14.285714 0 1 1 28.57142,0 z" />
    <g
       transform="translate(-136.05647,-190.61269)"
       id="g3980">
      <g
         id="g3033"
         style="fill:#000000;fill-opacity:1"
         transform="matrix(1.8325735,0,0,1.8325735,-175.46363,48.607564)">
        <use
           id="use3035"
           y="158.675"
           x="238.37601"
           xlink:href="#textext-818a6410-2"
           width="744.09448"
           height="1052.3622" />
      </g>
      <g
         id="g3037"
         style="fill:#000000;fill-opacity:1"
         transform="matrix(1.8325735,0,0,1.8325735,-175.46363,48.607564)">
        <use
           id="use3039"
           y="160.16901"
           x="242.755"
           xlink:href="#textext-818a6410-6"
           width="744.09448"
           height="1052.3622" />
      </g>
    </g>
    <path
       transform="translate(148.46101,-142.74268)"
       sodipodi:type="arc"
       style="fill:#ffffff;stroke:#000000;stroke-width:1;stroke-miterlimit:4;stroke-opacity:1;stroke-dasharray:none;stroke-dashoffset:0"
       id="path2985-3"
       sodipodi:cx="122.85714"
       sodipodi:cy="286.64789"
       sodipodi:rx="14.285714"
       sodipodi:ry="14.285714"
       d="m 137.14285,286.64789 a 14.285714,14.285714 0 1 1 -28.57142,0 14.285714,14.285714 0 1 1 28.57142,0 z" />
    <use
       transform="matrix(1.8325735,0,0,1.8325735,-172.79643,-162.74505)"
       id="use3043"
       y="170.63"
       x="238.37601"
       xlink:href="#textext-818a6410-3"
       width="744.09448"
       height="1052.3622"
       style="fill:#000000;fill-opacity:1" />
    <g
       transform="scale(1.000000,1.000000)"
       ns0:text="{"
       ns0:preamble=""
       id="g5606">
      <g
         id="textext-6db57f41-0" />
    </g>
    <path
       style="fill:none;stroke:#000000;stroke-width:1.29999995;stroke-linecap:butt;stroke-linejoin:miter;stroke-miterlimit:4;stroke-opacity:1;stroke-dasharray:none;marker-end:none"
       d="m 74.260579,219.17205 113.657431,0"
       id="path6347"
       inkscape:connector-type="polyline"
       inkscape:connector-curvature="0"
       inkscape:connection-start="#path2985"
       inkscape:connection-start-point="d4"
       inkscape:connection-end="#path2985-0"
       inkscape:connection-end-point="d4" />
    <path
       style="fill:none;stroke:#000000;stroke-width:1.29999995;stroke-linecap:butt;stroke-linejoin:miter;stroke-miterlimit:4;stroke-opacity:1;stroke-dasharray:none"
       d="M 70.066147,209.0603 124.99802,154.01697"
       id="path6981"
       inkscape:connector-type="polyline"
       inkscape:connector-curvature="0"
       inkscape:connection-start="#path2985"
       inkscape:connection-start-point="d4"
       inkscape:connection-end="#path2985-8"
       inkscape:connection-end-point="d4" />
    <path
       style="fill:none;stroke:#000000;stroke-width:1.29999995;stroke-linecap:butt;stroke-linejoin:miter;stroke-miterlimit:4;stroke-opacity:1;stroke-dasharray:none"
       d="m 144.59696,154.56777 48.0991,53.94172"
       id="path6983"
       inkscape:connector-type="polyline"
       inkscape:connector-curvature="0"
       inkscape:connection-start="#path2985-8"
       inkscape:connection-start-point="d4"
       inkscape:connection-end="#path2985-0"
       inkscape:connection-end-point="d4" />
    <path
       style="fill:none;stroke:#000000;stroke-width:1.29999995;stroke-linecap:butt;stroke-linejoin:miter;stroke-miterlimit:4;stroke-opacity:1;stroke-dasharray:none"
       d="m 257.03244,143.90521 -107.65743,0"
       id="path6985"
       inkscape:connector-type="polyline"
       inkscape:connector-curvature="0"
       inkscape:connection-start="#path2985-3"
       inkscape:connection-start-point="d4"
       inkscape:connection-end="#path2985-8"
       inkscape:connection-end-point="d4" />
    <path
       style="fill:none;stroke:#000000;stroke-width:1.29999995;stroke-linecap:butt;stroke-linejoin:miter;stroke-miterlimit:4;stroke-opacity:1;stroke-dasharray:none"
       d="m 261.65579,154.42769 -49.7897,54.22188"
       id="path6987"
       inkscape:connector-type="polyline"
       inkscape:connector-curvature="0"
       inkscape:connection-start="#path2985-3"
       inkscape:connection-start-point="d4"
       inkscape:connection-end="#path2985-0"
       inkscape:connection-end-point="d4" />
    <path
       style="fill:none;stroke:#000000;stroke-width:1.29999995;stroke-linecap:butt;stroke-linejoin:miter;stroke-miterlimit:4;stroke-opacity:1;stroke-dasharray:none"
       d="M 73.436276,214.37797 257.85674,148.69929"
       id="path6989"
       inkscape:connector-type="polyline"
       inkscape:connector-curvature="0"
       inkscape:connection-start="#path2985"
       inkscape:connection-start-point="d4"
       inkscape:connection-end="#path2985-3"
       inkscape:connection-end-point="d4" />
    <g
       id="g5348"
       transform="translate(-135.45657,-1.9073486e-6)"
       style="stroke-width:0.40000001;stroke-miterlimit:4;stroke-dasharray:none">
      <use
         transform="matrix(1.78854,0,0,1.78854,-203.58024,45.979337)"
         id="use4288"
         y="146.72"
         x="323.69016"
         xlink:href="#textext-bfa32728-4"
         width="744.09448"
         height="1052.3622"
         style="fill:#000000;fill-opacity:1;stroke-width:0.2236461;stroke-miterlimit:4;stroke-dasharray:none" />
      <use
         transform="matrix(1.78854,0,0,1.78854,-203.58024,45.979337)"
         id="use4372"
         y="158.675"
         x="323.69299"
         xlink:href="#textext-bfa32728-4"
         width="744.09448"
         height="1052.3622"
         style="fill:#000000;fill-opacity:1;stroke-width:0.2236461;stroke-miterlimit:4;stroke-dasharray:none" />
    </g>
    <g
       id="g5352"
       transform="translate(-192.09841,-1.9073486e-6)"
       style="stroke-width:0.40000001;stroke-miterlimit:4;stroke-dasharray:none">
      <use
         transform="matrix(1.78854,0,0,1.78854,-139.58024,45.979337)"
         id="use4290"
         y="146.72"
         x="331.16211"
         xlink:href="#textext-bfa32728-7"
         width="744.09448"
         height="1052.3622"
         style="fill:#000000;fill-opacity:1;stroke-width:0.2236461;stroke-miterlimit:4;stroke-dasharray:none" />
      <use
         transform="matrix(1.78854,0,0,1.78854,-139.58024,45.979337)"
         id="use4374"
         y="158.675"
         x="331.16495"
         xlink:href="#textext-bfa32728-7"
         width="744.09448"
         height="1052.3622"
         style="fill:#000000;fill-opacity:1;stroke-width:0.2236461;stroke-miterlimit:4;stroke-dasharray:none" />
    </g>
    <g
       id="g5356"
       transform="translate(-184.76931,-1.9073486e-6)"
       style="stroke-width:0.40000001;stroke-miterlimit:4;stroke-dasharray:none">
      <use
         transform="matrix(1.78854,0,0,1.78854,-139.58024,45.979337)"
         id="use4294"
         y="146.72"
         x="338.36905"
         xlink:href="#textext-bfa32728-4"
         width="744.09448"
         height="1052.3622"
         style="fill:#000000;fill-opacity:1;stroke-width:0.2236461;stroke-miterlimit:4;stroke-dasharray:none" />
      <use
         transform="matrix(1.78854,0,0,1.78854,-139.58024,45.979337)"
         id="use4378"
         y="158.675"
         x="338.37189"
         xlink:href="#textext-bfa32728-4"
         width="744.09448"
         height="1052.3622"
         style="fill:#000000;fill-opacity:1;stroke-width:0.2236461;stroke-miterlimit:4;stroke-dasharray:none" />
    </g>
    <g
       id="g5360"
       transform="translate(-177.41115,-1.9073486e-6)"
       style="stroke-width:0.40000001;stroke-miterlimit:4;stroke-dasharray:none">
      <use
         transform="matrix(1.78854,0,0,1.78854,-139.58024,45.979337)"
         id="use4296"
         y="146.72"
         x="345.841"
         xlink:href="#textext-bfa32728-7"
         width="744.09448"
         height="1052.3622"
         style="fill:#000000;fill-opacity:1;stroke-width:0.2236461;stroke-miterlimit:4;stroke-dasharray:none" />
      <use
         transform="matrix(1.78854,0,0,1.78854,-139.58024,45.979337)"
         id="use4380"
         y="158.675"
         x="345.84384"
         xlink:href="#textext-bfa32728-7"
         width="744.09448"
         height="1052.3622"
         style="fill:#000000;fill-opacity:1;stroke-width:0.2236461;stroke-miterlimit:4;stroke-dasharray:none" />
    </g>
    <g
       id="g5370"
       transform="translate(-170.43131,-1.9073486e-6)"
       style="stroke-width:0.40000001;stroke-miterlimit:4;stroke-dasharray:none">
      <use
         transform="matrix(1.78854,0,0,1.78854,-139.22838,45.979337)"
         id="use4300"
         y="146.72"
         x="353.04794"
         xlink:href="#textext-bfa32728-4"
         width="744.09448"
         height="1052.3622"
         style="fill:#000000;fill-opacity:1;stroke-width:0.2236461;stroke-miterlimit:4;stroke-dasharray:none" />
      <use
         transform="matrix(1.78854,0,0,1.78854,-139.72251,45.979337)"
         id="use4384"
         y="158.675"
         x="353.05078"
         xlink:href="#textext-bfa32728-5"
         width="744.09448"
         height="1052.3622"
         style="fill:#000000;fill-opacity:1;stroke-width:0.2236461;stroke-miterlimit:4;stroke-dasharray:none" />
    </g>
    <g
       id="g5374"
       transform="translate(-163.04195,-1.9073486e-6)"
       style="stroke-width:0.40000001;stroke-miterlimit:4;stroke-dasharray:none">
      <use
         transform="matrix(1.78854,0,0,1.78854,-139.25963,45.979337)"
         id="use4302"
         y="146.72"
         x="360.5199"
         xlink:href="#textext-bfa32728-7"
         width="744.09448"
         height="1052.3622"
         style="fill:#000000;fill-opacity:1;stroke-width:0.2236461;stroke-miterlimit:4;stroke-dasharray:none" />
      <use
         transform="matrix(1.78854,0,0,1.78854,-139.90085,45.979337)"
         id="use4388"
         y="158.675"
         x="360.87842"
         xlink:href="#textext-bfa32728-7"
         width="744.09448"
         height="1052.3622"
         style="fill:#000000;fill-opacity:1;stroke-width:0.2236461;stroke-miterlimit:4;stroke-dasharray:none" />
    </g>
    <g
       id="g5384"
       transform="translate(-155.71282,-1.9073486e-6)"
       style="stroke-width:0.40000001;stroke-miterlimit:4;stroke-dasharray:none">
      <use
         transform="matrix(1.78854,0,0,1.78854,-139.25963,45.979337)"
         id="use4306"
         y="146.72"
         x="367.72684"
         xlink:href="#textext-bfa32728-4"
         width="744.09448"
         height="1052.3622"
         style="fill:#000000;fill-opacity:1;stroke-width:0.2236461;stroke-miterlimit:4;stroke-dasharray:none" />
      <use
         transform="matrix(1.78854,0,0,1.78854,-139.90085,45.979337)"
         id="use4392"
         y="158.675"
         x="368.08536"
         xlink:href="#textext-bfa32728-4"
         width="744.09448"
         height="1052.3622"
         style="fill:#000000;fill-opacity:1;stroke-width:0.2236461;stroke-miterlimit:4;stroke-dasharray:none" />
    </g>
    <g
       id="g5388"
       transform="translate(-148.35467,-1.9073486e-6)"
       style="stroke-width:0.40000001;stroke-miterlimit:4;stroke-dasharray:none">
      <use
         transform="matrix(1.78854,0,0,1.78854,-139.25963,45.979337)"
         id="use4308"
         y="146.72"
         x="375.19879"
         xlink:href="#textext-bfa32728-7"
         width="744.09448"
         height="1052.3622"
         style="fill:#000000;fill-opacity:1;stroke-width:0.2236461;stroke-miterlimit:4;stroke-dasharray:none" />
      <use
         transform="matrix(1.78854,0,0,1.78854,-139.90085,45.979337)"
         id="use4394"
         y="158.675"
         x="375.55731"
         xlink:href="#textext-bfa32728-7"
         width="744.09448"
         height="1052.3622"
         style="fill:#000000;fill-opacity:1;stroke-width:0.2236461;stroke-miterlimit:4;stroke-dasharray:none" />
    </g>
    <g
       id="g5392"
       transform="translate(-142.76857,-1.9073486e-6)"
       style="stroke-width:0.40000001;stroke-miterlimit:4;stroke-dasharray:none">
      <use
         transform="matrix(1.78854,0,0,1.78854,-137.51658,45.979337)"
         id="use4312"
         y="146.72"
         x="382.40573"
         xlink:href="#textext-bfa32728-4"
         width="744.09448"
         height="1052.3622"
         style="fill:#000000;fill-opacity:1;stroke-width:0.2236461;stroke-miterlimit:4;stroke-dasharray:none" />
      <use
         transform="matrix(1.78854,0,0,1.78854,-142.3146,45.979337)"
         id="use4398"
         y="158.675"
         x="384.979"
         xlink:href="#textext-bfa32728-12"
         width="744.09448"
         height="1052.3622"
         style="fill:#000000;fill-opacity:1;stroke-width:0.2236461;stroke-miterlimit:4;stroke-dasharray:none" />
    </g>
    <g
       id="g5396"
       transform="translate(-133.78963,-1.9073486e-6)"
       style="stroke-width:0.40000001;stroke-miterlimit:4;stroke-dasharray:none">
      <use
         transform="matrix(1.78854,0,0,1.78854,-139.13735,45.979337)"
         id="use4314"
         y="146.72"
         x="389.87769"
         xlink:href="#textext-bfa32728-7"
         width="744.09448"
         height="1052.3622"
         style="fill:#000000;fill-opacity:1;stroke-width:0.2236461;stroke-miterlimit:4;stroke-dasharray:none" />
      <use
         transform="matrix(1.78854,0,0,1.78854,-148.63794,45.979337)"
         id="use4402"
         y="158.675"
         x="394.93961"
         xlink:href="#textext-bfa32728-12"
         width="744.09448"
         height="1052.3622"
         style="fill:#000000;fill-opacity:1;stroke-width:0.2236461;stroke-miterlimit:4;stroke-dasharray:none" />
    </g>
    <g
       id="g5400"
       transform="translate(-128.76934,-1.9073486e-6)"
       style="stroke-width:0.40000001;stroke-miterlimit:4;stroke-dasharray:none">
      <use
         transform="matrix(1.78854,0,0,1.78854,-136.82854,45.979337)"
         id="use4318"
         y="146.72"
         x="397.08463"
         xlink:href="#textext-bfa32728-4"
         width="744.09448"
         height="1052.3622"
         style="fill:#000000;fill-opacity:1;stroke-width:0.2236461;stroke-miterlimit:4;stroke-dasharray:none" />
      <use
         transform="matrix(1.78854,0,0,1.78854,-151.00264,45.979337)"
         id="use4406"
         y="158.675"
         x="404.90021"
         xlink:href="#textext-bfa32728-12"
         width="744.09448"
         height="1052.3622"
         style="fill:#000000;fill-opacity:1;stroke-width:0.2236461;stroke-miterlimit:4;stroke-dasharray:none" />
    </g>
    <g
       id="g5404"
       transform="translate(-123.79936,-1.9073486e-6)"
       style="stroke-width:0.40000001;stroke-miterlimit:4;stroke-dasharray:none">
      <use
         transform="matrix(1.78854,0,0,1.78854,-134.44039,45.979337)"
         id="use4320"
         y="146.72"
         x="404.55658"
         xlink:href="#textext-bfa32728-7"
         width="744.09448"
         height="1052.3622"
         style="fill:#000000;fill-opacity:1;stroke-width:0.2236461;stroke-miterlimit:4;stroke-dasharray:none" />
      <use
         transform="matrix(1.78854,0,0,1.78854,-153.3349,45.979337)"
         id="use4410"
         y="158.675"
         x="414.87079"
         xlink:href="#textext-bfa32728-12"
         width="744.09448"
         height="1052.3622"
         style="fill:#000000;fill-opacity:1;stroke-width:0.2236461;stroke-miterlimit:4;stroke-dasharray:none" />
    </g>
    <g
       id="g5408"
       transform="translate(-118.77901,-1.9073486e-6)"
       style="stroke-width:0.40000001;stroke-miterlimit:4;stroke-dasharray:none">
      <use
         transform="matrix(1.78854,0,0,1.78854,-132.13158,45.979337)"
         id="use4324"
         y="146.72"
         x="411.76352"
         xlink:href="#textext-bfa32728-4"
         width="744.09448"
         height="1052.3622"
         style="fill:#000000;fill-opacity:1;stroke-width:0.2236461;stroke-miterlimit:4;stroke-dasharray:none" />
      <use
         transform="matrix(1.78854,0,0,1.78854,-155.69961,45.979337)"
         id="use4414"
         y="158.675"
         x="424.83139"
         xlink:href="#textext-bfa32728-12"
         width="744.09448"
         height="1052.3622"
         style="fill:#000000;fill-opacity:1;stroke-width:0.2236461;stroke-miterlimit:4;stroke-dasharray:none" />
    </g>
    <g
       id="g5412"
       transform="translate(-113.80009,-1.9073486e-6)"
       style="stroke-width:0.40000001;stroke-miterlimit:4;stroke-dasharray:none">
      <use
         transform="matrix(1.78854,0,0,1.78854,-129.75235,45.979337)"
         id="use4326"
         y="146.72"
         x="419.23547"
         xlink:href="#textext-bfa32728-7"
         width="744.09448"
         height="1052.3622"
         style="fill:#000000;fill-opacity:1;stroke-width:0.2236461;stroke-miterlimit:4;stroke-dasharray:none" />
      <use
         transform="matrix(1.78854,0,0,1.78854,-158.02294,45.979337)"
         id="use4418"
         y="158.675"
         x="434.79199"
         xlink:href="#textext-bfa32728-12"
         width="744.09448"
         height="1052.3622"
         style="fill:#000000;fill-opacity:1;stroke-width:0.2236461;stroke-miterlimit:4;stroke-dasharray:none" />
    </g>
    <g
       id="g5416"
       transform="translate(-108.77086,-1.9073486e-6)"
       style="stroke-width:0.40000001;stroke-miterlimit:4;stroke-dasharray:none">
      <use
         transform="matrix(1.78854,0,0,1.78854,-127.43464,45.979337)"
         id="use4330"
         y="146.72"
         x="426.43246"
         xlink:href="#textext-bfa32728-4"
         width="744.09448"
         height="1052.3622"
         style="fill:#000000;fill-opacity:1;stroke-width:0.2236461;stroke-miterlimit:4;stroke-dasharray:none" />
      <use
         transform="matrix(1.78854,0,0,1.78854,-160.39654,45.979337)"
         id="use4422"
         y="158.675"
         x="444.75259"
         xlink:href="#textext-bfa32728-12"
         width="744.09448"
         height="1052.3622"
         style="fill:#000000;fill-opacity:1;stroke-width:0.2236461;stroke-miterlimit:4;stroke-dasharray:none" />
    </g>
    <g
       id="g5420"
       transform="translate(-103.79198,-1.9073486e-6)"
       style="stroke-width:0.40000001;stroke-miterlimit:4;stroke-dasharray:none">
      <use
         transform="matrix(1.78854,0,0,1.78854,-125.05536,45.979337)"
         id="use4332"
         y="146.72"
         x="433.90439"
         xlink:href="#textext-bfa32728-7"
         width="744.09448"
         height="1052.3622"
         style="fill:#000000;fill-opacity:1;stroke-width:0.2236461;stroke-miterlimit:4;stroke-dasharray:none" />
      <use
         transform="matrix(1.78854,0,0,1.78854,-162.71993,45.979337)"
         id="use4426"
         y="158.675"
         x="454.71323"
         xlink:href="#textext-bfa32728-12"
         width="744.09448"
         height="1052.3622"
         style="fill:#000000;fill-opacity:1;stroke-width:0.2236461;stroke-miterlimit:4;stroke-dasharray:none" />
    </g>
    <path
       style="fill:none;stroke:#999999;stroke-width:1.5;stroke-linecap:butt;stroke-linejoin:miter;stroke-miterlimit:4;stroke-opacity:1;stroke-dasharray:none"
       d="M 383.44781,288.29968 280.08051,155.1889"
       id="path7946"
       inkscape:connector-type="polyline"
       inkscape:connector-curvature="0"
       inkscape:connection-start="#rect7040"
       inkscape:connection-start-point="d4"
       inkscape:connection-end="#path2985-3"
       inkscape:connection-end-point="d4" />
    <rect
       style="color:#000000;fill:none;stroke:#999999;stroke-width:1.50000000000000000;stroke-linecap:butt;stroke-linejoin:miter;stroke-miterlimit:4;stroke-opacity:1;stroke-dasharray:none;stroke-dashoffset:0;marker:none;visibility:visible;display:inline;overflow:visible;enable-background:accumulate"
       id="rect7040"
       width="328.90625"
       height="48.4375"
       x="237.80177"
       y="288.29968"
       rx="5"
       ry="5" />
    <g
       id="g6206"
       transform="translate(-8,-7.6293945e-6)">
      <use
         transform="matrix(1.78854,0,0,1.78854,-395.35989,45.979337)"
         id="use4252"
         y="146.72"
         x="238.37601"
         xlink:href="#textext-bfa32728-4"
         width="744.09448"
         height="1052.3622"
         style="fill:#000000;fill-opacity:1;stroke-width:0.2236461;stroke-miterlimit:4;stroke-dasharray:none" />
      <use
         transform="matrix(1.78854,0,0,1.78854,-395.84894,45.979337)"
         id="use4336"
         y="158.675"
         x="238.37601"
         xlink:href="#textext-bfa32728-5"
         width="744.09448"
         height="1052.3622"
         style="fill:#000000;fill-opacity:1;stroke-width:0.2236461;stroke-miterlimit:4;stroke-dasharray:none" />
    </g>
    <g
       id="g6210"
       transform="translate(-8,-7.6293945e-6)">
      <use
         transform="matrix(1.78854,0,0,1.78854,-388.74226,45.979337)"
         id="use4254"
         y="146.72"
         x="245.84795"
         xlink:href="#textext-bfa32728-5"
         width="744.09448"
         height="1052.3622"
         style="fill:#000000;fill-opacity:1;stroke-width:0.2236461;stroke-miterlimit:4;stroke-dasharray:none" />
      <use
         transform="matrix(1.78854,0,0,1.78854,-389.39621,45.979337)"
         id="use4340"
         y="158.675"
         x="246.21358"
         xlink:href="#textext-bfa32728-5"
         width="744.09448"
         height="1052.3622"
         style="fill:#000000;fill-opacity:1;stroke-width:0.2236461;stroke-miterlimit:4;stroke-dasharray:none" />
    </g>
    <g
       id="g6214"
       transform="translate(-8,-7.6293945e-6)">
      <use
         transform="matrix(1.78854,0,0,1.78854,-382.28957,45.979337)"
         id="use4258"
         y="146.72"
         x="253.68553"
         xlink:href="#textext-bfa32728-6"
         width="744.09448"
         height="1052.3622"
         style="fill:#000000;fill-opacity:1;stroke-width:0.2236461;stroke-miterlimit:4;stroke-dasharray:none" />
      <use
         transform="matrix(1.78854,0,0,1.78854,-382.92569,45.979337)"
         id="use4344"
         y="158.675"
         x="254.0412"
         xlink:href="#textext-bfa32728-6"
         width="744.09448"
         height="1052.3622"
         style="fill:#000000;fill-opacity:1;stroke-width:0.2236461;stroke-miterlimit:4;stroke-dasharray:none" />
    </g>
    <g
       id="g6218"
       transform="translate(-8,-7.6293945e-6)">
      <use
         transform="matrix(1.78854,0,0,1.78854,-375.08918,45.979337)"
         id="use4260"
         y="146.72"
         x="261.51913"
         xlink:href="#textext-bfa32728-7"
         width="744.09448"
         height="1052.3622"
         style="fill:#000000;fill-opacity:1;stroke-width:0.2236461;stroke-miterlimit:4;stroke-dasharray:none" />
      <use
         transform="matrix(1.78854,0,0,1.78854,-388.61518,45.979337)"
         id="use4350"
         y="158.675"
         x="269.08173"
         xlink:href="#textext-bfa32728-7"
         width="744.09448"
         height="1052.3622"
         style="fill:#000000;fill-opacity:1;stroke-width:0.2236461;stroke-miterlimit:4;stroke-dasharray:none" />
    </g>
    <rect
       style="color:#000000;fill:none;stroke:#999999;stroke-width:1.50000000000000000;stroke-linecap:butt;stroke-linejoin:miter;stroke-miterlimit:4;stroke-opacity:1;stroke-dasharray:4.50000000000000000, 1.50000000000000000;stroke-dashoffset:0;marker:none;visibility:visible;display:inline;overflow:visible;enable-background:accumulate"
       id="rect7040-6"
       width="82.773018"
       height="49.179272"
       x="19.222864"
       y="287.9288"
       rx="5"
       ry="5" />
    <g
       id="g6222"
       transform="translate(-3.6307659,0)">
      <use
         transform="matrix(1.78854,0,0,1.78854,-355.25474,45.979337)"
         id="use4346"
         y="158.675"
         x="261.87479"
         xlink:href="#textext-bfa32728-7"
         width="744.09448"
         height="1052.3622"
         style="fill:#000000;fill-opacity:1;stroke-width:0.2236461;stroke-miterlimit:4;stroke-dasharray:none" />
      <use
         transform="matrix(1.78854,0,0,1.78854,-371.90463,45.979337)"
         id="use4264"
         y="146.72"
         x="270.93399"
         xlink:href="#textext-bfa32728-12"
         width="744.09448"
         height="1052.3622"
         style="fill:#000000;fill-opacity:1;stroke-width:0.2236461;stroke-miterlimit:4;stroke-dasharray:none" />
    </g>
    <g
       id="g6226"
       transform="translate(-3.6307659,0)">
      <use
         transform="matrix(1.78854,0,0,1.78854,-360.81552,45.979337)"
         id="use4354"
         y="158.675"
         x="276.28867"
         xlink:href="#textext-bfa32728-4"
         width="744.09448"
         height="1052.3622"
         style="fill:#000000;fill-opacity:1;stroke-width:0.2236461;stroke-miterlimit:4;stroke-dasharray:none" />
      <use
         transform="matrix(1.78854,0,0,1.78854,-369.24902,45.979337)"
         id="use4268"
         y="146.72"
         x="280.89459"
         xlink:href="#textext-bfa32728-12"
         width="744.09448"
         height="1052.3622"
         style="fill:#000000;fill-opacity:1;stroke-width:0.2236461;stroke-miterlimit:4;stroke-dasharray:none" />
    </g>
    <g
       id="g6230"
       transform="translate(-3.6307659,0)">
      <use
         transform="matrix(1.78854,0,0,1.78854,-354.19793,45.979337)"
         id="use4356"
         y="158.675"
         x="283.76062"
         xlink:href="#textext-bfa32728-5"
         width="744.09448"
         height="1052.3622"
         style="fill:#000000;fill-opacity:1;stroke-width:0.2236461;stroke-miterlimit:4;stroke-dasharray:none" />
      <use
         transform="matrix(1.78854,0,0,1.78854,-366.59348,45.979337)"
         id="use4272"
         y="146.72"
         x="290.85522"
         xlink:href="#textext-bfa32728-12"
         width="744.09448"
         height="1052.3622"
         style="fill:#000000;fill-opacity:1;stroke-width:0.2236461;stroke-miterlimit:4;stroke-dasharray:none" />
    </g>
    <rect
       style="color:#000000;fill:none;stroke:#999999;stroke-width:1.50000000000000000;stroke-linecap:butt;stroke-linejoin:miter;stroke-miterlimit:4;stroke-opacity:1;stroke-dasharray:4.50000000000000000, 1.50000000000000000;stroke-dashoffset:0;marker:none;visibility:visible;display:inline;overflow:visible;enable-background:accumulate"
       id="rect7040-6-9"
       width="62.652946"
       height="49.3717"
       x="105.49588"
       y="287.83258"
       rx="5"
       ry="5" />
    <g
       id="g6234"
       transform="translate(0.52218056,0)">
      <use
         transform="matrix(1.78854,0,0,1.78854,-351.40051,45.979337)"
         id="use4360"
         y="158.675"
         x="293.806"
         xlink:href="#textext-bfa32728-12"
         width="744.09448"
         height="1052.3622"
         style="fill:#000000;fill-opacity:1;stroke-width:0.2236461;stroke-miterlimit:4;stroke-dasharray:none" />
      <use
         transform="matrix(1.78854,0,0,1.78854,-364.24232,45.979337)"
         id="use4276"
         y="146.72"
         x="300.82199"
         xlink:href="#textext-bfa32728-5"
         width="744.09448"
         height="1052.3622"
         style="fill:#000000;fill-opacity:1;stroke-width:0.2236461;stroke-miterlimit:4;stroke-dasharray:none" />
    </g>
    <g
       id="g6238"
       transform="translate(0.52218056,0)">
      <use
         transform="matrix(1.78854,0,0,1.78854,-357.78963,45.979337)"
         id="use4280"
         y="146.72"
         x="308.65958"
         xlink:href="#textext-bfa32728-6"
         width="744.09448"
         height="1052.3622"
         style="fill:#000000;fill-opacity:1;stroke-width:0.2236461;stroke-miterlimit:4;stroke-dasharray:none" />
      <use
         transform="matrix(1.78854,0,0,1.78854,-348.74491,45.979337)"
         id="use4364"
         y="158.675"
         x="303.7666"
         xlink:href="#textext-bfa32728-12"
         width="744.09448"
         height="1052.3622"
         style="fill:#000000;fill-opacity:1;stroke-width:0.2236461;stroke-miterlimit:4;stroke-dasharray:none" />
    </g>
    <g
       id="g6242"
       transform="translate(0.52218056,0)">
      <use
         transform="matrix(1.78854,0,0,1.78854,-350.57142,45.979337)"
         id="use4284"
         y="146.72"
         x="316.48322"
         xlink:href="#textext-bfa32728-7"
         width="744.09448"
         height="1052.3622"
         style="fill:#000000;fill-opacity:1;stroke-width:0.2236461;stroke-miterlimit:4;stroke-dasharray:none" />
      <use
         transform="matrix(1.78854,0,0,1.78854,-346.08932,45.979337)"
         id="use4368"
         y="158.675"
         x="313.7272"
         xlink:href="#textext-bfa32728-12"
         width="744.09448"
         height="1052.3622"
         style="fill:#000000;fill-opacity:1;stroke-width:0.2236461;stroke-miterlimit:4;stroke-dasharray:none" />
    </g>
    <rect
       style="color:#000000;fill:none;stroke:#999999;stroke-width:1.50000000000000000;stroke-linecap:butt;stroke-linejoin:miter;stroke-miterlimit:4;stroke-opacity:1;stroke-dasharray:4.50000000000000000, 1.50000000000000000;stroke-dashoffset:0;marker:none;visibility:visible;display:inline;overflow:visible;enable-background:accumulate"
       id="rect7040-6-9-1"
       width="62.652946"
       height="49.3717"
       x="171.64883"
       y="287.83258"
       rx="5"
       ry="5" />
    <rect
       style="color:#000000;fill:none;stroke:#000000;stroke-width:1.5;stroke-linecap:butt;stroke-linejoin:miter;stroke-miterlimit:4;stroke-opacity:1;stroke-dasharray:1.5, 1.5;stroke-dashoffset:0;marker:none;visibility:visible;display:inline;overflow:visible;enable-background:accumulate"
       id="rect7859"
       width="203.125"
       height="125.78125"
       x="358.59375"
       y="129.86949"
       rx="15"
       ry="15" />
    <path
       transform="matrix(0.33952294,0,0,0.33952294,332.89656,95.436583)"
       sodipodi:type="arc"
       style="fill:#000000;stroke:#000000;stroke-width:1;stroke-miterlimit:4;stroke-opacity:1;stroke-dasharray:none;stroke-dashoffset:0"
       id="path2985-3-5"
       sodipodi:cx="122.85714"
       sodipodi:cy="286.64789"
       sodipodi:rx="14.285714"
       sodipodi:ry="14.285714"
       d="m 137.14285,286.64789 a 14.285714,14.285714 0 1 1 -28.57142,0 14.285714,14.285714 0 1 1 28.57142,0 z" />
    <path
       transform="matrix(0.33952294,0,0,0.33952294,504.38093,95.436583)"
       sodipodi:type="arc"
       style="fill:#000000;stroke:#000000;stroke-width:1;stroke-miterlimit:4;stroke-opacity:1;stroke-dasharray:none;stroke-dashoffset:0"
       id="path2985-3-5-1"
       sodipodi:cx="122.85714"
       sodipodi:cy="286.64789"
       sodipodi:rx="14.285714"
       sodipodi:ry="14.285714"
       d="m 137.14285,286.64789 a 14.285714,14.285714 0 1 1 -28.57142,0 14.285714,14.285714 0 1 1 28.57142,0 z" />
    <path
       style="fill:none;stroke:#000000;stroke-width:1.5;stroke-linecap:butt;stroke-linejoin:miter;stroke-miterlimit:4;stroke-opacity:1;stroke-dasharray:1.5, 1.5;stroke-dashoffset:0"
       d="m 285.15186,147.48417 73.44189,19.00039"
       id="path7938"
       inkscape:connector-type="polyline"
       inkscape:connector-curvature="0"
       inkscape:connection-start="#path2985-3"
       inkscape:connection-start-point="d4"
       inkscape:connection-end="#rect7859"
       inkscape:connection-end-point="d4" />
    <path
       style="fill:none;stroke:#000000;stroke-width:1.20000005;stroke-linecap:butt;stroke-linejoin:miter;stroke-miterlimit:4;stroke-opacity:1;stroke-dasharray:none;marker-end:url(#Arrow1Mend-0)"
       d="m 434.16556,150.74216 52.11619,-0.007"
       id="path9590"
       inkscape:connector-type="polyline"
       inkscape:connector-curvature="0"
       inkscape:connection-start="#path9163"
       inkscape:connection-start-point="d4"
       inkscape:connection-end="#path9163-1"
       inkscape:connection-end-point="d4" />
    <path
       sodipodi:type="spiral"
       style="fill:#ffffff;stroke:#000000;stroke-width:2.49297877;stroke-linecap:butt;stroke-linejoin:miter;stroke-miterlimit:4;stroke-opacity:1;stroke-dasharray:none"
       id="path9163-1"
       sodipodi:cx="183.59375"
       sodipodi:cy="43.768429"
       sodipodi:expansion="1"
       sodipodi:revolution="3.3398983"
       sodipodi:radius="34.222931"
       sodipodi:argument="-18.099857"
       sodipodi:t0="0"
       d="m 183.59375,43.768429 c 1.12804,1.050242 -0.85917,2.038726 -1.74557,1.874875 -2.40209,-0.444028 -2.89423,-3.482918 -2.00418,-5.366019 1.59209,-3.368424 6.01929,-3.91449 8.98646,-2.133481 4.35445,2.613702 4.96352,8.589538 2.26279,12.606911 -3.59965,5.354527 -11.17174,6.024715 -16.22736,2.392089 -6.36198,-4.57129 -7.09218,-13.759625 -2.52139,-19.847805 5.53585,-7.373602 16.35071,-8.16329 23.46825,-2.650695 8.38778,6.496401 9.23667,18.943777 2.78,27.088698 -7.45448,9.403634 -21.53818,10.311573 -30.70914,2.909302 -10.42064,-8.410932 -11.38754,-24.133516 -3.03861,-34.329592 9.36624,-11.438456 26.72953,-12.464277 37.95004,-3.167908 12.45689,10.320731 13.54159,29.326064 3.29721,41.570485 -11.27461,13.47578 -31.92299,14.619353 -45.19093,3.426515 -4.87589,-4.113299 -8.50522,-9.615408 -10.41303,-15.699417"
       transform="matrix(0.40112656,0,0,0.40112656,422.26364,132.15536)" />
    <path
       style="fill:none;stroke:#000000;stroke-width:1.20000005;stroke-linecap:butt;stroke-linejoin:miter;stroke-miterlimit:4;stroke-opacity:1;stroke-dasharray:none;marker-end:url(#Arrow1Mend-0)"
       d="m 434.16579,192.73398 52.11576,0"
       id="path9784"
       inkscape:connector-type="polyline"
       inkscape:connector-curvature="0"
       inkscape:connection-start="#path9163-14"
       inkscape:connection-start-point="d4"
       inkscape:connection-end="#path9163-1-7"
       inkscape:connection-end-point="d4" />
    <path
       sodipodi:type="spiral"
       style="fill:#ffffff;stroke:#000000;stroke-width:2.49297877;stroke-linecap:butt;stroke-linejoin:miter;stroke-miterlimit:4;stroke-opacity:1;stroke-dasharray:none"
       id="path9163-1-7"
       sodipodi:cx="183.59375"
       sodipodi:cy="43.768429"
       sodipodi:expansion="1"
       sodipodi:revolution="3.3398983"
       sodipodi:radius="34.222931"
       sodipodi:argument="-18.099857"
       sodipodi:t0="0"
       d="m 183.59375,43.768429 c 1.12804,1.050242 -0.85917,2.038726 -1.74557,1.874875 -2.40209,-0.444028 -2.89423,-3.482918 -2.00418,-5.366019 1.59209,-3.368424 6.01929,-3.91449 8.98646,-2.133481 4.35445,2.613702 4.96352,8.589538 2.26279,12.606911 -3.59965,5.354527 -11.17174,6.024715 -16.22736,2.392089 -6.36198,-4.57129 -7.09218,-13.759625 -2.52139,-19.847805 5.53585,-7.373602 16.35071,-8.16329 23.46825,-2.650695 8.38778,6.496401 9.23667,18.943777 2.78,27.088698 -7.45448,9.403634 -21.53818,10.311573 -30.70914,2.909302 -10.42064,-8.410932 -11.38754,-24.133516 -3.03861,-34.329592 9.36624,-11.438456 26.72953,-12.464277 37.95004,-3.167908 12.45689,10.320731 13.54159,29.326064 3.29721,41.570485 -11.27461,13.47578 -31.92299,14.619353 -45.19093,3.426515 -4.87589,-4.113299 -8.50522,-9.615408 -10.41303,-15.699417"
       transform="matrix(0.40112656,0,0,0.40112656,422.26364,174.15534)" />
    <path
       style="fill:none;stroke:#000000;stroke-width:1.20000005;stroke-linecap:butt;stroke-linejoin:miter;stroke-miterlimit:4;stroke-opacity:1;stroke-dasharray:none;marker-end:url(#Arrow1Mend-0)"
       d="m 434.1658,234.73398 52.11575,0"
       id="path9978"
       inkscape:connector-type="polyline"
       inkscape:connector-curvature="0"
       inkscape:connection-start="#path9163-6"
       inkscape:connection-start-point="d4"
       inkscape:connection-end="#path9163-1-9"
       inkscape:connection-end-point="d4" />
    <path
       sodipodi:type="spiral"
       style="fill:#ffffff;stroke:#000000;stroke-width:2.49297877;stroke-linecap:butt;stroke-linejoin:miter;stroke-miterlimit:4;stroke-opacity:1;stroke-dasharray:none"
       id="path9163-1-9"
       sodipodi:cx="183.59375"
       sodipodi:cy="43.768429"
       sodipodi:expansion="1"
       sodipodi:revolution="3.3398983"
       sodipodi:radius="34.222931"
       sodipodi:argument="-18.099857"
       sodipodi:t0="0"
       d="m 183.59375,43.768429 c 1.12804,1.050242 -0.85917,2.038726 -1.74557,1.874875 -2.40209,-0.444028 -2.89423,-3.482918 -2.00418,-5.366019 1.59209,-3.368424 6.01929,-3.91449 8.98646,-2.133481 4.35445,2.613702 4.96352,8.589538 2.26279,12.606911 -3.59965,5.354527 -11.17174,6.024715 -16.22736,2.392089 -6.36198,-4.57129 -7.09218,-13.759625 -2.52139,-19.847805 5.53585,-7.373602 16.35071,-8.16329 23.46825,-2.650695 8.38778,6.496401 9.23667,18.943777 2.78,27.088698 -7.45448,9.403634 -21.53818,10.311573 -30.70914,2.909302 -10.42064,-8.410932 -11.38754,-24.133516 -3.03861,-34.329592 9.36624,-11.438456 26.72953,-12.464277 37.95004,-3.167908 12.45689,10.320731 13.54159,29.326064 3.29721,41.570485 -11.27461,13.47578 -31.92299,14.619353 -45.19093,3.426515 -4.87589,-4.113299 -8.50522,-9.615408 -10.41303,-15.699417"
       transform="matrix(0.40112656,0,0,0.40112656,422.26364,216.15534)" />
    <path
       style="fill:none;stroke:#000000;stroke-width:1.20000005;stroke-linecap:butt;stroke-linejoin:miter;stroke-miterlimit:4;stroke-opacity:1;stroke-dasharray:none;marker-end:url(#Arrow1Mend-0)"
       d="m 504.59045,158.50628 37.76238,31.16636"
       id="path10174"
       inkscape:connector-type="polyline"
       inkscape:connector-curvature="0"
       inkscape:connection-start="#path9163-1"
       inkscape:connection-start-point="d4"
       inkscape:connection-end="#path2985-3-5-1"
       inkscape:connection-end-point="d4" />
    <path
       style="fill:none;stroke:#000000;stroke-width:1.20000005;stroke-linecap:butt;stroke-linejoin:miter;stroke-miterlimit:4;stroke-opacity:1;stroke-dasharray:none;marker-end:url(#Arrow1Mend-0)"
       d="m 507.71238,192.74042 33.53104,0.0172"
       id="path10368"
       inkscape:connector-type="polyline"
       inkscape:connector-curvature="0"
       inkscape:connection-start="#path9163-1-7"
       inkscape:connection-start-point="d4"
       inkscape:connection-end="#path2985-3-5-1"
       inkscape:connection-end-point="d4" />
    <path
       style="fill:none;stroke:#000000;stroke-width:1.20000005;stroke-linecap:butt;stroke-linejoin:miter;stroke-miterlimit:4;stroke-opacity:1;stroke-dasharray:none;marker-end:url(#Arrow1Mend-0)"
       d="m 504.91028,226.70773 37.44067,-30.86242"
       id="path10562"
       inkscape:connector-type="polyline"
       inkscape:connector-curvature="0"
       inkscape:connection-start="#path9163-1-9"
       inkscape:connection-start-point="d4"
       inkscape:connection-end="#path2985-3-5-1"
       inkscape:connection-end-point="d4" />
    <path
       style="fill:none;stroke:#000000;stroke-width:1.20000005;stroke-linecap:butt;stroke-linejoin:miter;stroke-miterlimit:4;stroke-opacity:1;stroke-dasharray:none;marker-end:url(#Arrow1Mend-0)"
       d="m 378.28423,189.59437 38.12654,-32.84458"
       id="path10756"
       inkscape:connector-type="polyline"
       inkscape:connector-curvature="0"
       inkscape:connection-start="#path2985-3-5"
       inkscape:connection-start-point="d4"
       inkscape:connection-end="#path9163"
       inkscape:connection-end-point="d4" />
    <path
       sodipodi:type="spiral"
       style="fill:#ffffff;stroke:#000000;stroke-width:2.49297877;stroke-linecap:butt;stroke-linejoin:miter;stroke-miterlimit:4;stroke-opacity:1;stroke-dasharray:none"
       id="path9163"
       sodipodi:cx="183.59375"
       sodipodi:cy="43.768429"
       sodipodi:expansion="1"
       sodipodi:revolution="3.2201529"
       sodipodi:radius="32.995941"
       sodipodi:argument="-18.099857"
       sodipodi:t0="0"
       d="m 183.59375,43.768429 c 1.12804,1.050242 -0.85917,2.038727 -1.74557,1.874875 -2.40209,-0.444027 -2.89423,-3.482918 -2.00418,-5.366019 1.59209,-3.368426 6.01929,-3.914491 8.98647,-2.133482 4.35444,2.613702 4.96352,8.58954 2.26278,12.606914 -3.59965,5.354528 -11.17174,6.024716 -16.22736,2.392089 -6.36198,-4.571291 -7.09219,-13.759628 -2.52139,-19.847809 5.53584,-7.373603 16.35071,-8.163291 23.46825,-2.650696 8.38779,6.496403 9.23668,18.943781 2.78,27.088704 -7.45448,9.403635 -21.53818,10.311575 -30.70915,2.909302 -10.42063,-8.410933 -11.38754,-24.13352 -3.0386,-34.329598 9.36624,-11.438459 26.72953,-12.464279 37.95004,-3.167909 12.45689,10.320733 13.5416,29.32607 3.29721,41.570493 -9.75542,11.660008 -26.94479,14.369761 -40.08593,6.971131"
       transform="matrix(0.40112656,0,0,0.40112656,348.71687,132.15536)" />
    <path
       sodipodi:type="spiral"
       style="fill:#ffffff;stroke:#000000;stroke-width:2.49297877;stroke-linecap:butt;stroke-linejoin:miter;stroke-miterlimit:4;stroke-opacity:1;stroke-dasharray:none"
       id="path9163-14"
       sodipodi:cx="183.59375"
       sodipodi:cy="43.768429"
       sodipodi:expansion="1"
       sodipodi:revolution="3.3401506"
       sodipodi:radius="34.225475"
       sodipodi:argument="-18.099857"
       sodipodi:t0="0"
       d="m 183.59375,43.768429 c 1.12804,1.050241 -0.85917,2.038724 -1.74557,1.874873 -2.40209,-0.444027 -2.89422,-3.482914 -2.00418,-5.366012 1.59209,-3.368421 6.01929,-3.914486 8.98646,-2.13348 4.35444,2.613699 4.96351,8.589529 2.26278,12.606897 -3.59965,5.354521 -11.17173,6.024708 -16.22734,2.392086 -6.36197,-4.571284 -7.09218,-13.759609 -2.52139,-19.847782 5.53584,-7.373593 16.35069,-8.16328 23.46823,-2.650692 8.38777,6.496394 9.23666,18.943755 2.77999,27.088667 -7.45447,9.403622 -21.53815,10.311561 -30.70911,2.909298 -10.42062,-8.410922 -11.38752,-24.133487 -3.0386,-34.329551 9.36623,-11.438443 26.7295,-12.464263 37.95,-3.167905 12.45687,10.320719 13.54157,29.32603 3.2972,41.570436 -11.27459,13.475765 -31.92295,14.619336 -45.19087,3.426511 -4.88986,-4.125083 -8.52566,-9.646782 -10.42923,-15.751228"
       transform="matrix(0.40112656,0,0,0.40112656,348.71687,174.15534)" />
    <path
       style="fill:none;stroke:#000000;stroke-width:1.20000005;stroke-linecap:butt;stroke-linejoin:miter;stroke-miterlimit:4;stroke-opacity:1;stroke-dasharray:none;marker-end:url(#Arrow1Mend-0)"
       d="m 378.21739,196.00177 35.69052,32.06643"
       id="path11146"
       inkscape:connector-type="polyline"
       inkscape:connector-curvature="0"
       inkscape:connection-start="#path2985-3-5"
       inkscape:connection-start-point="d4"
       inkscape:connection-end="#path9163-6"
       inkscape:connection-end-point="d4" />
    <path
       sodipodi:type="spiral"
       style="fill:#ffffff;stroke:#000000;stroke-width:2.49297877;stroke-linecap:butt;stroke-linejoin:miter;stroke-miterlimit:4;stroke-opacity:1;stroke-dasharray:none"
       id="path9163-6"
       sodipodi:cx="183.59375"
       sodipodi:cy="43.768429"
       sodipodi:expansion="1"
       sodipodi:revolution="3.4652462"
       sodipodi:radius="35.507339"
       sodipodi:argument="-18.099857"
       sodipodi:t0="0"
       d="m 183.59375,43.768429 c 1.12804,1.050242 -0.85917,2.038727 -1.74557,1.874875 -2.40209,-0.444027 -2.89423,-3.482918 -2.00418,-5.366019 1.59209,-3.368426 6.01929,-3.914491 8.98647,-2.133482 4.35444,2.613702 4.96352,8.58954 2.26278,12.606914 -3.59965,5.354528 -11.17174,6.024716 -16.22736,2.392089 -6.36198,-4.571291 -7.09219,-13.759628 -2.52139,-19.847809 5.53584,-7.373603 16.35071,-8.163291 23.46825,-2.650696 8.38779,6.496403 9.23668,18.943781 2.78,27.088704 -7.45448,9.403635 -21.53818,10.311575 -30.70915,2.909302 -10.42063,-8.410933 -11.38754,-24.13352 -3.0386,-34.329598 9.36624,-11.438459 26.72953,-12.46428 37.95004,-3.167909 12.45689,10.320733 13.5416,29.32607 3.29721,41.570493 -11.2746,13.475783 -31.92299,14.619356 -45.19094,3.426516 -12.23675,-10.322926 -15.33787,-28.302355 -7.91957,-42.364377"
       transform="matrix(0.40112656,0,0,0.40112656,348.71687,216.15534)" />
    <path
       sodipodi:type="arc"
       style="color:#000000;fill:none;stroke:#000000;stroke-width:1.10000002;stroke-linecap:butt;stroke-linejoin:miter;stroke-miterlimit:4;stroke-opacity:1;stroke-dasharray:none;stroke-dashoffset:0;marker:none;marker-end:url(#Arrow1Mend-0);visibility:visible;display:inline;overflow:visible;enable-background:accumulate"
       id="path11359-1"
       sodipodi:cx="277.73438"
       sodipodi:cy="53.534054"
       sodipodi:rx="10.546875"
       sodipodi:ry="10.546875"
       d="M 277.91844,64.079322 A 10.546875,10.546875 0 1 1 288.28125,53.534054"
       sodipodi:start="1.553343"
       sodipodi:end="6.2831853"
       sodipodi:open="true"
       transform="translate(-20.103107,74.609375)" />
  </g>
</svg>
