<?xml version="1.0" encoding="UTF-8" standalone="no"?>
<!-- Created with Inkscape (http://www.inkscape.org/) -->

<svg
   xmlns:dc="http://purl.org/dc/elements/1.1/"
   xmlns:cc="http://creativecommons.org/ns#"
   xmlns:rdf="http://www.w3.org/1999/02/22-rdf-syntax-ns#"
   xmlns:svg="http://www.w3.org/2000/svg"
   xmlns="http://www.w3.org/2000/svg"
   xmlns:xlink="http://www.w3.org/1999/xlink"
   xmlns:sodipodi="http://sodipodi.sourceforge.net/DTD/sodipodi-0.dtd"
   xmlns:inkscape="http://www.inkscape.org/namespaces/inkscape"
   width="744.09448819"
   height="1052.3622047"
   id="svg3480"
   version="1.1"
   inkscape:version="0.48.4 r9939"
   sodipodi:docname="tantan_simple.svg">
  <sodipodi:namedview
     id="base"
     pagecolor="#ffffff"
     bordercolor="#666666"
     borderopacity="1.0"
     inkscape:pageopacity="0.0"
     inkscape:pageshadow="2"
     inkscape:zoom="1.979899"
     inkscape:cx="244.69032"
     inkscape:cy="518.39959"
     inkscape:document-units="px"
     inkscape:current-layer="layer1"
     showgrid="false"
     inkscape:window-width="1366"
     inkscape:window-height="744"
     inkscape:window-x="0"
     inkscape:window-y="24"
     inkscape:window-maximized="1"
     inkscape:snap-bbox="true"
     inkscape:snap-bbox-midpoints="true"
     inkscape:snap-midpoints="true"
     inkscape:snap-smooth-nodes="false" />
  <defs
     id="defs3482">
    <marker
       inkscape:stockid="Arrow2Mend"
       orient="auto"
       refY="0.0"
       refX="0.0"
       id="Arrow2Mend"
       style="overflow:visible;">
      <path
         id="path4639"
         style="fill-rule:evenodd;stroke-width:0.62500000;stroke-linejoin:round;"
         d="M 8.7185878,4.0337352 L -2.2072895,0.016013256 L 8.7185884,-4.0017078 C 6.9730900,-1.6296469 6.9831476,1.6157441 8.7185878,4.0337352 z "
         transform="scale(0.6) rotate(180) translate(0,0)" />
    </marker>
    <defs
       id="defs3584">
      <g
         id="g3586">
        <symbol
           style="overflow:visible"
           overflow="visible"
           id="textext-0e4ec13d-0">
          <path
             inkscape:connector-curvature="0"
             style="stroke:none"
             d=""
             id="path3589" />
        </symbol>
        <symbol
           style="overflow:visible"
           overflow="visible"
           id="textext-0e4ec13d-1">
          <path
             inkscape:connector-curvature="0"
             style="stroke:none"
             d="M 3.890625,-3.734375 C 3.625,-3.71875 3.421875,-3.5 3.421875,-3.28125 c 0,0.140625 0.09375,0.296875 0.3125,0.296875 0.21875,0 0.453125,-0.171875 0.453125,-0.5625 C 4.1875,-4 3.765625,-4.40625 3,-4.40625 c -1.3125,0 -1.6875,1.015625 -1.6875,1.453125 0,0.78125 0.734375,0.921875 1.03125,0.984375 0.515625,0.109375 1.03125,0.21875 1.03125,0.765625 0,0.25 -0.21875,1.09375 -1.421875,1.09375 -0.140625,0 -0.90625,0 -1.140625,-0.53125 0.390625,0.046875 0.640625,-0.25 0.640625,-0.53125 0,-0.21875 -0.171875,-0.34375 -0.375,-0.34375 -0.265625,0 -0.5625,0.203125 -0.5625,0.65625 0,0.5625 0.578125,0.96875 1.421875,0.96875 1.625,0 2.015625,-1.203125 2.015625,-1.65625 0,-0.359375 -0.1875,-0.609375 -0.3125,-0.71875 -0.265625,-0.28125 -0.5625,-0.34375 -1,-0.421875 -0.359375,-0.078125 -0.75,-0.15625 -0.75,-0.609375 C 1.890625,-3.578125 2.125,-4.1875 3,-4.1875 c 0.25,0 0.75,0.078125 0.890625,0.453125 z m 0,0"
             id="path3592" />
        </symbol>
        <symbol
           style="overflow:visible"
           overflow="visible"
           id="textext-0e4ec13d-2">
          <path
             inkscape:connector-curvature="0"
             style="stroke:none"
             d="m 1.859375,-2.296875 c 0.296875,0 1.03125,-0.03125 1.53125,-0.234375 0.703125,-0.296875 0.75,-0.890625 0.75,-1.03125 0,-0.4375 -0.375,-0.84375 -1.0625,-0.84375 -1.109375,0 -2.625,0.96875 -2.625,2.71875 0,1.015625 0.59375,1.796875 1.578125,1.796875 1.421875,0 2.25,-1.0625 2.25,-1.171875 0,-0.0625 -0.046875,-0.140625 -0.109375,-0.140625 -0.0625,0 -0.078125,0.03125 -0.140625,0.109375 -0.78125,0.984375 -1.875,0.984375 -1.984375,0.984375 -0.78125,0 -0.875,-0.84375 -0.875,-1.15625 0,-0.125 0.015625,-0.421875 0.15625,-1.03125 z m -0.46875,-0.21875 C 1.78125,-4.03125 2.8125,-4.1875 3.078125,-4.1875 c 0.453125,0 0.734375,0.296875 0.734375,0.625 0,1.046875 -1.59375,1.046875 -2.015625,1.046875 z m 0,0"
             id="path3595" />
        </symbol>
        <symbol
           style="overflow:visible"
           overflow="visible"
           id="textext-0e4ec13d-3">
          <path
             inkscape:connector-curvature="0"
             style="stroke:none"
             d="m 3.734375,-6.125 c 0.0625,-0.234375 0.09375,-0.328125 0.28125,-0.359375 C 4.109375,-6.5 4.421875,-6.5 4.625,-6.5 c 0.703125,0 1.8125,0 1.8125,0.984375 0,0.34375 -0.15625,1.03125 -0.546875,1.421875 -0.265625,0.25 -0.78125,0.578125 -1.6875,0.578125 l -1.109375,0 z m 1.4375,2.734375 c 1.015625,-0.21875 2.1875,-0.921875 2.1875,-1.921875 0,-0.859375 -0.890625,-1.5 -2.203125,-1.5 l -2.828125,0 c -0.203125,0 -0.296875,0 -0.296875,0.203125 C 2.03125,-6.5 2.125,-6.5 2.3125,-6.5 c 0.015625,0 0.203125,0 0.375,0.015625 0.1875,0.03125 0.265625,0.03125 0.265625,0.171875 0,0.03125 0,0.0625 -0.03125,0.1875 l -1.34375,5.34375 C 1.484375,-0.390625 1.46875,-0.3125 0.671875,-0.3125 0.5,-0.3125 0.40625,-0.3125 0.40625,-0.109375 0.40625,0 0.53125,0 0.546875,0 c 0.28125,0 0.984375,-0.03125 1.25,-0.03125 0.28125,0 1,0.03125 1.28125,0.03125 0.078125,0 0.1875,0 0.1875,-0.203125 0,-0.109375 -0.078125,-0.109375 -0.28125,-0.109375 -0.359375,0 -0.640625,0 -0.640625,-0.171875 0,-0.0625 0.015625,-0.109375 0.03125,-0.171875 l 0.65625,-2.640625 1.1875,0 c 0.90625,0 1.078125,0.5625 1.078125,0.90625 0,0.140625 -0.078125,0.453125 -0.140625,0.6875 C 5.09375,-1.421875 5,-1.0625 5,-0.859375 5,0.21875 6.203125,0.21875 6.328125,0.21875 c 0.84375,0 1.203125,-1 1.203125,-1.140625 0,-0.125 -0.109375,-0.125 -0.125,-0.125 -0.09375,0 -0.109375,0.0625 -0.125,0.140625 C 7.03125,-0.171875 6.59375,0 6.375,0 6.046875,0 5.96875,-0.21875 5.96875,-0.609375 c 0,-0.3125 0.0625,-0.8125 0.109375,-1.140625 0.015625,-0.140625 0.03125,-0.328125 0.03125,-0.46875 0,-0.765625 -0.671875,-1.078125 -0.9375,-1.171875 z m 0,0"
             id="path3598" />
        </symbol>
        <symbol
           style="overflow:visible"
           overflow="visible"
           id="textext-0e4ec13d-4">
          <path
             inkscape:connector-curvature="0"
             style="stroke:none"
             d=""
             id="path3601" />
        </symbol>
        <symbol
           style="overflow:visible"
           overflow="visible"
           id="textext-0e4ec13d-5">
          <path
             inkscape:connector-curvature="0"
             style="stroke:none"
             d="m 2.328125,-4.4375 c 0,-0.1875 0,-0.1875 -0.203125,-0.1875 -0.453125,0.4375 -1.078125,0.4375 -1.359375,0.4375 l 0,0.25 c 0.15625,0 0.625,0 1,-0.1875 l 0,3.546875 c 0,0.234375 0,0.328125 -0.6875,0.328125 l -0.265625,0 0,0.25 c 0.125,0 0.984375,-0.03125 1.234375,-0.03125 0.21875,0 1.09375,0.03125 1.25,0.03125 l 0,-0.25 -0.265625,0 c -0.703125,0 -0.703125,-0.09375 -0.703125,-0.328125 z m 0,0"
             id="path3604" />
        </symbol>
        <symbol
           style="overflow:visible"
           overflow="visible"
           id="textext-0e4ec13d-6">
          <path
             inkscape:connector-curvature="0"
             style="stroke:none"
             d="m 3.515625,-1.265625 -0.234375,0 c -0.015625,0.15625 -0.09375,0.5625 -0.1875,0.625 -0.046875,0.046875 -0.578125,0.046875 -0.6875,0.046875 l -1.28125,0 c 0.734375,-0.640625 0.984375,-0.84375 1.390625,-1.171875 0.515625,-0.40625 1,-0.84375 1,-1.5 0,-0.84375 -0.734375,-1.359375 -1.625,-1.359375 -0.859375,0 -1.453125,0.609375 -1.453125,1.25 0,0.34375 0.296875,0.390625 0.375,0.390625 0.15625,0 0.359375,-0.125 0.359375,-0.375 0,-0.125 -0.046875,-0.375 -0.40625,-0.375 C 0.984375,-4.21875 1.453125,-4.375 1.78125,-4.375 c 0.703125,0 1.0625,0.546875 1.0625,1.109375 0,0.609375 -0.4375,1.078125 -0.65625,1.328125 L 0.515625,-0.265625 C 0.4375,-0.203125 0.4375,-0.1875 0.4375,0 l 2.875,0 z m 0,0"
             id="path3607" />
        </symbol>
        <symbol
           style="overflow:visible"
           overflow="visible"
           id="textext-0e4ec13d-7">
          <path
             inkscape:connector-curvature="0"
             style="stroke:none"
             d="m 1.90625,-2.328125 c 0.546875,0 0.9375,0.375 0.9375,1.125 0,0.859375 -0.515625,1.125 -0.90625,1.125 -0.28125,0 -0.90625,-0.078125 -1.1875,-0.5 0.328125,0 0.40625,-0.234375 0.40625,-0.390625 0,-0.21875 -0.171875,-0.375 -0.390625,-0.375 -0.1875,0 -0.390625,0.125 -0.390625,0.40625 0,0.65625 0.71875,1.078125 1.5625,1.078125 0.96875,0 1.640625,-0.65625 1.640625,-1.34375 0,-0.546875 -0.4375,-1.09375 -1.203125,-1.25 0.71875,-0.265625 0.984375,-0.78125 0.984375,-1.21875 0,-0.546875 -0.625,-0.953125 -1.40625,-0.953125 -0.765625,0 -1.359375,0.375 -1.359375,0.9375 0,0.234375 0.15625,0.359375 0.359375,0.359375 0.21875,0 0.359375,-0.15625 0.359375,-0.34375 0,-0.203125 -0.140625,-0.359375 -0.359375,-0.375 0.25,-0.296875 0.71875,-0.375 0.984375,-0.375 0.3125,0 0.75,0.15625 0.75,0.75 0,0.296875 -0.09375,0.625 -0.28125,0.828125 -0.21875,0.265625 -0.421875,0.28125 -0.765625,0.3125 -0.171875,0.015625 -0.1875,0.015625 -0.21875,0.015625 -0.015625,0 -0.078125,0.015625 -0.078125,0.09375 0,0.09375 0.0625,0.09375 0.1875,0.09375 z m 0,0"
             id="path3610" />
        </symbol>
        <symbol
           style="overflow:visible"
           overflow="visible"
           id="textext-0e4ec13d-8">
          <path
             inkscape:connector-curvature="0"
             style="stroke:none"
             d="m 3.6875,-1.140625 0,-0.25 -0.78125,0 0,-3.109375 c 0,-0.140625 0,-0.203125 -0.140625,-0.203125 -0.09375,0 -0.125,0 -0.1875,0.109375 l -2.3125,3.203125 0,0.25 2.0625,0 0,0.5625 c 0,0.25 0,0.328125 -0.578125,0.328125 l -0.1875,0 0,0.25 C 1.921875,-0.015625 2.359375,-0.03125 2.609375,-0.03125 2.875,-0.03125 3.3125,-0.015625 3.671875,0 l 0,-0.25 -0.1875,0 C 2.90625,-0.25 2.90625,-0.328125 2.90625,-0.578125 l 0,-0.5625 z M 2.375,-3.9375 l 0,2.546875 -1.84375,0 z m 0,0"
             id="path3613" />
        </symbol>
        <symbol
           style="overflow:visible"
           overflow="visible"
           id="textext-0e4ec13d-9">
          <path
             inkscape:connector-curvature="0"
             style="stroke:none"
             d="m 1.078125,-3.890625 c 0.359375,0.09375 0.5625,0.09375 0.671875,0.09375 0.921875,0 1.46875,-0.625 1.46875,-0.734375 0,-0.078125 -0.046875,-0.09375 -0.078125,-0.09375 -0.015625,0 -0.03125,0 -0.0625,0.015625 -0.171875,0.0625 -0.53125,0.203125 -1.046875,0.203125 -0.203125,0 -0.5625,-0.015625 -1.015625,-0.1875 C 0.9375,-4.625 0.921875,-4.625 0.921875,-4.625 c -0.09375,0 -0.09375,0.078125 -0.09375,0.1875 l 0,2.046875 c 0,0.125 0,0.203125 0.109375,0.203125 0.0625,0 0.078125,0 0.140625,-0.09375 0.296875,-0.375 0.734375,-0.4375 0.96875,-0.4375 0.421875,0 0.609375,0.328125 0.640625,0.390625 0.125,0.234375 0.171875,0.5 0.171875,0.90625 0,0.203125 0,0.609375 -0.21875,0.921875 -0.171875,0.25 -0.46875,0.421875 -0.8125,0.421875 -0.453125,0 -0.921875,-0.25 -1.09375,-0.71875 0.265625,0.015625 0.40625,-0.15625 0.40625,-0.34375 0,-0.296875 -0.265625,-0.34375 -0.359375,-0.34375 0,0 -0.34375,0 -0.34375,0.375 0,0.625 0.578125,1.25 1.40625,1.25 0.890625,0 1.671875,-0.65625 1.671875,-1.546875 0,-0.78125 -0.59375,-1.5 -1.453125,-1.5 -0.3125,0 -0.671875,0.0625 -0.984375,0.328125 z m 0,0"
             id="path3616" />
        </symbol>
      </g>
    </defs>
    <marker
       style="overflow:visible"
       id="Arrow2Mstart"
       refX="0"
       refY="0"
       orient="auto"
       inkscape:stockid="Arrow2Mstart">
      <path
         inkscape:connector-curvature="0"
         transform="scale(0.6,0.6)"
         d="M 8.7185878,4.0337352 -2.2072895,0.01601326 8.7185884,-4.0017078 c -1.7454984,2.3720609 -1.7354408,5.6174519 -6e-7,8.035443 z"
         style="fill-rule:evenodd;stroke-width:0.625;stroke-linejoin:round"
         id="path5531" />
    </marker>
    <marker
       style="overflow:visible"
       id="Arrow2Mstart-8"
       refX="0"
       refY="0"
       orient="auto"
       inkscape:stockid="Arrow2Mstart">
      <path
         inkscape:connector-curvature="0"
         transform="scale(0.6,0.6)"
         d="M 8.7185878,4.0337352 -2.2072895,0.01601326 8.7185884,-4.0017078 c -1.7454984,2.3720609 -1.7354408,5.6174519 -6e-7,8.035443 z"
         style="fill-rule:evenodd;stroke-width:0.625;stroke-linejoin:round"
         id="path5531-7" />
    </marker>
    <marker
       style="overflow:visible"
       id="Arrow2Mstart-6"
       refX="0"
       refY="0"
       orient="auto"
       inkscape:stockid="Arrow2Mstart">
      <path
         inkscape:connector-curvature="0"
         transform="scale(0.6,0.6)"
         d="M 8.7185878,4.0337352 -2.2072895,0.01601326 8.7185884,-4.0017078 c -1.7454984,2.3720609 -1.7354408,5.6174519 -6e-7,8.035443 z"
         style="fill-rule:evenodd;stroke-width:0.625;stroke-linejoin:round"
         id="path5531-4" />
    </marker>
    <marker
       style="overflow:visible"
       id="Arrow2Mstart-9"
       refX="0"
       refY="0"
       orient="auto"
       inkscape:stockid="Arrow2Mstart">
      <path
         inkscape:connector-curvature="0"
         transform="scale(0.6,0.6)"
         d="M 8.7185878,4.0337352 -2.2072895,0.01601326 8.7185884,-4.0017078 c -1.7454984,2.3720609 -1.7354408,5.6174519 -6e-7,8.035443 z"
         style="fill-rule:evenodd;stroke-width:0.625;stroke-linejoin:round"
         id="path5531-6" />
    </marker>
    <marker
       style="overflow:visible"
       id="Arrow2Mstart-96"
       refX="0"
       refY="0"
       orient="auto"
       inkscape:stockid="Arrow2Mstart">
      <path
         inkscape:connector-curvature="0"
         transform="scale(0.6,0.6)"
         d="M 8.7185878,4.0337352 -2.2072895,0.01601326 8.7185884,-4.0017078 c -1.7454984,2.3720609 -1.7354408,5.6174519 -6e-7,8.035443 z"
         style="fill-rule:evenodd;stroke-width:0.625;stroke-linejoin:round"
         id="path5531-1" />
    </marker>
  </defs>
  <metadata
     id="metadata3485">
    <rdf:RDF>
      <cc:Work
         rdf:about="">
        <dc:format>image/svg+xml</dc:format>
        <dc:type
           rdf:resource="http://purl.org/dc/dcmitype/StillImage" />
        <dc:title></dc:title>
      </cc:Work>
    </rdf:RDF>
  </metadata>
  <g
     id="layer1"
     inkscape:groupmode="layer"
     inkscape:label="Layer 1">
    <path
       sodipodi:open="true"
       sodipodi:end="4.712389"
       sodipodi:start="0"
       d="m 267.18534,200.04597 a 6.3134532,6.3134532 0 1 1 -6.31345,-6.31345"
       sodipodi:ry="6.3134532"
       sodipodi:rx="6.3134532"
       sodipodi:cy="200.04597"
       sodipodi:cx="260.87189"
       id="path5947-1-0-7"
       style="color:#000000;fill:none;stroke:#000000;stroke-width:1;stroke-linecap:butt;stroke-linejoin:miter;stroke-miterlimit:4;stroke-opacity:1;stroke-dasharray:none;stroke-dashoffset:0;marker:none;marker-end:url(#Arrow2Mstart);visibility:visible;display:inline;overflow:visible;enable-background:accumulate"
       sodipodi:type="arc"
       transform="matrix(-0.38241712,0.92398979,-0.92398979,-0.38241712,578.68899,268.53183)" />
    <path
       sodipodi:open="true"
       sodipodi:end="4.712389"
       sodipodi:start="0"
       d="m 267.18534,200.04597 a 6.3134532,6.3134532 0 1 1 -6.31345,-6.31345"
       sodipodi:ry="6.3134532"
       sodipodi:rx="6.3134532"
       sodipodi:cy="200.04597"
       sodipodi:cx="260.87189"
       id="path5947-1-0-7-6"
       style="color:#000000;fill:none;stroke:#000000;stroke-width:1;stroke-linecap:butt;stroke-linejoin:miter;stroke-miterlimit:4;stroke-opacity:1;stroke-dasharray:none;stroke-dashoffset:0;marker:none;marker-end:url(#Arrow2Mstart);visibility:visible;display:inline;overflow:visible;enable-background:accumulate"
       sodipodi:type="arc"
       transform="matrix(-0.38241712,0.92398979,-0.92398979,-0.38241712,579.04613,304.31007)" />
    <path
       sodipodi:open="true"
       sodipodi:end="4.712389"
       sodipodi:start="0"
       d="m 267.18534,200.04597 a 6.3134532,6.3134532 0 1 1 -6.31345,-6.31345"
       sodipodi:ry="6.3134532"
       sodipodi:rx="6.3134532"
       sodipodi:cy="200.04597"
       sodipodi:cx="260.87189"
       id="path5947-1-0-7-1"
       style="color:#000000;fill:none;stroke:#000000;stroke-width:1;stroke-linecap:butt;stroke-linejoin:miter;stroke-miterlimit:4;stroke-opacity:1;stroke-dasharray:none;stroke-dashoffset:0;marker:none;marker-end:url(#Arrow2Mstart);visibility:visible;display:inline;overflow:visible;enable-background:accumulate"
       sodipodi:type="arc"
       transform="matrix(-0.38241712,0.92398979,-0.92398979,-0.38241712,578.86756,339.73117)" />
    <path
       sodipodi:open="true"
       sodipodi:end="4.712389"
       sodipodi:start="0"
       d="m 267.18534,200.04597 a 6.3134532,6.3134532 0 1 1 -6.31345,-6.31345"
       sodipodi:ry="6.3134532"
       sodipodi:rx="6.3134532"
       sodipodi:cy="200.04597"
       sodipodi:cx="260.87189"
       id="path5947-1-0-7-7"
       style="color:#000000;fill:none;stroke:#000000;stroke-width:1;stroke-linecap:butt;stroke-linejoin:miter;stroke-miterlimit:4;stroke-opacity:1;stroke-dasharray:none;stroke-dashoffset:0;marker:none;marker-end:url(#Arrow2Mstart);visibility:visible;display:inline;overflow:visible;enable-background:accumulate"
       sodipodi:type="arc"
       transform="matrix(0.65065423,-0.75937412,0.75937412,0.65065423,-22.882442,629.27622)" />
    <path
       sodipodi:open="true"
       sodipodi:end="4.712389"
       sodipodi:start="0"
       d="m 267.18534,200.04597 a 6.3134532,6.3134532 0 1 1 -6.31345,-6.31345"
       sodipodi:ry="6.3134532"
       sodipodi:rx="6.3134532"
       sodipodi:cy="200.04597"
       sodipodi:cx="260.87189"
       id="path5947-1-0-7-19"
       style="color:#000000;fill:none;stroke:#000000;stroke-width:1;stroke-linecap:butt;stroke-linejoin:miter;stroke-miterlimit:4;stroke-opacity:1;stroke-dasharray:none;stroke-dashoffset:0;marker:none;marker-end:url(#Arrow2Mstart);visibility:visible;display:inline;overflow:visible;enable-background:accumulate"
       sodipodi:type="arc"
       transform="matrix(0.60853273,-0.79352877,0.79352877,0.60853273,-18.535422,682.1238)" />
    <path
       style="fill:none;stroke:#000000;stroke-width:1px;stroke-linecap:butt;stroke-linejoin:miter;stroke-opacity:1;marker-end:url(#Arrow2Mend)"
       d="m 301.3069,579.04854 28.40921,-57.73798"
       id="path6546"
       inkscape:connector-type="polyline"
       inkscape:connector-curvature="0"
       inkscape:connection-start="#path3947-2-1-57"
       inkscape:connection-start-point="d4"
       inkscape:connection-end="#path3947-2-6-6"
       inkscape:connection-end-point="d4" />
    <path
       style="fill:none;stroke:#000000;stroke-width:1px;stroke-linecap:butt;stroke-linejoin:miter;stroke-opacity:1;marker-end:url(#Arrow2Mend)"
       d="m 303.25556,544.83385 24.51189,-24.9086"
       id="path6360"
       inkscape:connector-type="polyline"
       inkscape:connector-curvature="0"
       inkscape:connection-start="#path3947-2-1-5"
       inkscape:connection-start-point="d4"
       inkscape:connection-end="#path3947-2-6-6"
       inkscape:connection-end-point="d4" />
    <path
       style="fill:none;stroke:#000000;stroke-width:1px;stroke-linecap:butt;stroke-linejoin:miter;stroke-opacity:1;marker-end:url(#Arrow2Mend)"
       d="m 305.495,514.57955 20.03301,0"
       id="path6174"
       inkscape:connector-type="polyline"
       inkscape:connector-curvature="0"
       inkscape:connection-start="#path3947-2-1"
       inkscape:connection-start-point="d4"
       inkscape:connection-end="#path3947-2-6-6"
       inkscape:connection-end-point="d4" />
    <path
       style="fill:none;stroke:#000000;stroke-width:1px;stroke-linecap:butt;stroke-linejoin:miter;stroke-opacity:1;marker-end:url(#Arrow2Mend)"
       d="m 303.25556,484.32525 24.51189,24.9086"
       id="path5988"
       inkscape:connector-type="polyline"
       inkscape:connector-curvature="0"
       inkscape:connection-start="#path3947-2-6"
       inkscape:connection-start-point="d4"
       inkscape:connection-end="#path3947-2-6-6"
       inkscape:connection-end-point="d4" />
    <path
       style="fill:none;stroke:#000000;stroke-width:1px;stroke-linecap:butt;stroke-linejoin:miter;stroke-opacity:1;marker-end:url(#Arrow2Mend)"
       d="m 301.3069,450.11056 28.40921,57.73798"
       id="path5802"
       inkscape:connector-type="polyline"
       inkscape:connector-curvature="0"
       inkscape:connection-start="#path3947-2"
       inkscape:connection-start-point="d4"
       inkscape:connection-end="#path3947-2-6-6"
       inkscape:connection-end-point="d4" />
    <path
       style="fill:none;stroke:#000000;stroke-width:1px;stroke-linecap:butt;stroke-linejoin:miter;stroke-opacity:1;marker-end:url(#Arrow2Mend)"
       d="m 264.47995,521.23703 30.05801,57.88504"
       id="path5616"
       inkscape:connector-type="polyline"
       inkscape:connector-curvature="0"
       inkscape:connection-end-point="d4"
       inkscape:connection-end="#path3947-2-1-57"
       inkscape:connection-start-point="d4"
       inkscape:connection-start="#path3947-2-6-5" />
    <path
       style="fill:none;stroke:#000000;stroke-width:1px;stroke-linecap:butt;stroke-linejoin:miter;stroke-opacity:1;marker-end:url(#Arrow2Mend)"
       d="m 266.42552,519.78166 26.16687,25.19578"
       id="path5430"
       inkscape:connector-type="polyline"
       inkscape:connector-curvature="0"
       inkscape:connection-end-point="d4"
       inkscape:connection-end="#path3947-2-1-5"
       inkscape:connection-start-point="d4"
       inkscape:connection-start="#path3947-2-6-5" />
    <path
       style="fill:none;stroke:#000000;stroke-width:1px;stroke-linecap:butt;stroke-linejoin:miter;stroke-opacity:1;marker-end:url(#Arrow2Mend)"
       d="m 268.52291,514.57955 21.97209,0"
       id="path5242"
       inkscape:connector-type="polyline"
       inkscape:connector-curvature="0"
       inkscape:connection-start="#path3947-2-6-5"
       inkscape:connection-start-point="d4"
       inkscape:connection-end="#path3947-2-1"
       inkscape:connection-end-point="d4" />
    <path
       style="fill:none;stroke:#000000;stroke-width:1px;stroke-linecap:butt;stroke-linejoin:miter;stroke-opacity:1;marker-end:url(#Arrow2Mend)"
       d="m 264.47995,507.92206 30.05801,-57.88503"
       id="path3832"
       inkscape:connector-type="polyline"
       inkscape:connector-curvature="0"
       inkscape:connection-start="#path3947-2-6-5"
       inkscape:connection-start-point="d4"
       inkscape:connection-end="#path3947-2"
       inkscape:connection-end-point="d4" />
    <path
       style="fill:none;stroke:#000000;stroke-width:1px;stroke-linecap:butt;stroke-linejoin:miter;stroke-opacity:1;marker-end:url(#Arrow2Mend)"
       d="m 266.42552,509.37744 26.16687,-25.19578"
       id="path5054"
       inkscape:connector-type="polyline"
       inkscape:connector-curvature="0"
       inkscape:connection-start="#path3947-2-6-5"
       inkscape:connection-start-point="d4"
       inkscape:connection-end="#path3947-2-6"
       inkscape:connection-end-point="d4" />
    <path
       transform="translate(215.495,13.517366)"
       sodipodi:type="arc"
       style="fill:#ffffff;stroke:#000000;stroke-width:0.60000002;stroke-miterlimit:4.0999999;stroke-dasharray:none"
       id="path3947-2"
       sodipodi:cx="82.5"
       sodipodi:cy="429.86218"
       sodipodi:rx="7.5"
       sodipodi:ry="7.5"
       d="m 90,429.86218 a 7.5,7.5 0 1 1 -15,0 7.5,7.5 0 1 1 15,0 z" />
    <path
       transform="translate(215.495,49.117366)"
       sodipodi:type="arc"
       style="fill:#ffffff;stroke:#000000;stroke-width:0.60000002;stroke-miterlimit:4.0999999;stroke-dasharray:none"
       id="path3947-2-6"
       sodipodi:cx="82.5"
       sodipodi:cy="429.86218"
       sodipodi:rx="7.5"
       sodipodi:ry="7.5"
       d="m 90,429.86218 a 7.5,7.5 0 1 1 -15,0 7.5,7.5 0 1 1 15,0 z" />
    <path
       transform="translate(215.495,84.717366)"
       sodipodi:type="arc"
       style="fill:#ffffff;stroke:#000000;stroke-width:0.60000002;stroke-miterlimit:4.0999999;stroke-dasharray:none"
       id="path3947-2-1"
       sodipodi:cx="82.5"
       sodipodi:cy="429.86218"
       sodipodi:rx="7.5"
       sodipodi:ry="7.5"
       d="m 90,429.86218 a 7.5,7.5 0 1 1 -15,0 7.5,7.5 0 1 1 15,0 z" />
    <path
       transform="translate(178.52291,84.717366)"
       sodipodi:type="arc"
       style="fill:#999999;stroke:#000000;stroke-width:0.60000002;stroke-miterlimit:4.0999999;stroke-dasharray:none"
       id="path3947-2-6-5"
       sodipodi:cx="82.5"
       sodipodi:cy="429.86218"
       sodipodi:rx="7.5"
       sodipodi:ry="7.5"
       d="m 90,429.86218 a 7.5,7.5 0 1 1 -15,0 7.5,7.5 0 1 1 15,0 z" />
    <path
       transform="translate(250.52801,84.717366)"
       sodipodi:type="arc"
       style="fill:#999999;stroke:#000000;stroke-width:0.60000002;stroke-miterlimit:4.0999999;stroke-dasharray:none"
       id="path3947-2-6-6"
       sodipodi:cx="82.5"
       sodipodi:cy="429.86218"
       sodipodi:rx="7.5"
       sodipodi:ry="7.5"
       d="m 90,429.86218 a 7.5,7.5 0 1 1 -15,0 7.5,7.5 0 1 1 15,0 z" />
    <path
       transform="translate(215.495,120.31737)"
       sodipodi:type="arc"
       style="fill:#ffffff;stroke:#000000;stroke-width:0.60000002;stroke-miterlimit:4.0999999;stroke-dasharray:none"
       id="path3947-2-1-5"
       sodipodi:cx="82.5"
       sodipodi:cy="429.86218"
       sodipodi:rx="7.5"
       sodipodi:ry="7.5"
       d="m 90,429.86218 a 7.5,7.5 0 1 1 -15,0 7.5,7.5 0 1 1 15,0 z" />
    <path
       transform="translate(215.495,155.91737)"
       sodipodi:type="arc"
       style="fill:#ffffff;stroke:#000000;stroke-width:0.60000002;stroke-miterlimit:4.0999999;stroke-dasharray:none"
       id="path3947-2-1-57"
       sodipodi:cx="82.5"
       sodipodi:cy="429.86218"
       sodipodi:rx="7.5"
       sodipodi:ry="7.5"
       d="m 90,429.86218 a 7.5,7.5 0 1 1 -15,0 7.5,7.5 0 1 1 15,0 z" />
    <g
       id="g3619"
       style="fill:#000000;fill-opacity:1"
       transform="translate(35.239341,381.96299)">
      <use
         id="use3621"
         y="134.765"
         x="223.43201"
         xlink:href="#textext-0e4ec13d-1"
         width="744.09448"
         height="1052.3622" />
    </g>
    <g
       id="g3623"
       style="fill:#000000;fill-opacity:1"
       transform="translate(92.28482,370.00798)">
      <use
         id="use3625"
         y="146.72"
         x="238.37601"
         xlink:href="#textext-0e4ec13d-2"
         width="744.09448"
         height="1052.3622" />
    </g>
    <g
       id="g3796"
       transform="translate(103.48241,-107.10078)">
      <g
         transform="translate(-49.497475,394.46457)"
         style="fill:#000000;fill-opacity:1"
         id="g3627">
        <use
           height="1052.3622"
           width="744.09448"
           xlink:href="#textext-0e4ec13d-3"
           x="238.37601"
           y="158.675"
           id="use3629" />
      </g>
      <g
         transform="translate(-49.497475,394.46457)"
         style="fill:#000000;fill-opacity:1"
         id="g3631">
        <use
           height="1052.3622"
           width="744.09448"
           xlink:href="#textext-0e4ec13d-5"
           x="245.94099"
           y="160.16901"
           id="use3633" />
      </g>
    </g>
    <g
       id="g3802"
       transform="translate(103.37304,-83.456274)">
      <g
         transform="translate(-49.497475,394.46457)"
         style="fill:#000000;fill-opacity:1"
         id="g3635">
        <use
           height="1052.3622"
           width="744.09448"
           xlink:href="#textext-0e4ec13d-3"
           x="238.37601"
           y="170.63"
           id="use3637" />
      </g>
      <g
         transform="translate(-49.497475,394.46457)"
         style="fill:#000000;fill-opacity:1"
         id="g3639">
        <use
           height="1052.3622"
           width="744.09448"
           xlink:href="#textext-0e4ec13d-6"
           x="245.94099"
           y="172.125"
           id="use3641" />
      </g>
    </g>
    <g
       id="g6732"
       transform="translate(103.34179,-59.881588)">
      <g
         transform="translate(-49.497475,394.46457)"
         style="fill:#000000;fill-opacity:1"
         id="g3643">
        <use
           height="1052.3622"
           width="744.09448"
           xlink:href="#textext-0e4ec13d-3"
           x="238.37601"
           y="182.58501"
           id="use3645" />
      </g>
      <g
         transform="translate(-49.497475,394.46457)"
         style="fill:#000000;fill-opacity:1"
         id="g3647">
        <use
           height="1052.3622"
           width="744.09448"
           xlink:href="#textext-0e4ec13d-7"
           x="245.94099"
           y="184.08"
           id="use3649" />
      </g>
    </g>
    <g
       id="g6738"
       transform="translate(103.2871,-36.166769)">
      <g
         transform="translate(-49.497475,394.46457)"
         style="fill:#000000;fill-opacity:1"
         id="g3651">
        <use
           height="1052.3622"
           width="744.09448"
           xlink:href="#textext-0e4ec13d-3"
           x="238.37601"
           y="194.541"
           id="use3653" />
      </g>
      <g
         transform="translate(-49.497475,394.46457)"
         style="fill:#000000;fill-opacity:1"
         id="g3655">
        <use
           height="1052.3622"
           width="744.09448"
           xlink:href="#textext-0e4ec13d-8"
           x="245.94099"
           y="196.035"
           id="use3657" />
      </g>
    </g>
    <g
       id="g6744"
       transform="translate(103.37304,-12.592084)">
      <g
         transform="translate(-49.497475,394.46457)"
         style="fill:#000000;fill-opacity:1"
         id="g3659">
        <use
           height="1052.3622"
           width="744.09448"
           xlink:href="#textext-0e4ec13d-3"
           x="238.37601"
           y="206.496"
           id="use3661" />
      </g>
      <g
         transform="translate(-49.497475,394.46457)"
         style="fill:#000000;fill-opacity:1"
         id="g3663">
        <use
           height="1052.3622"
           width="744.09448"
           xlink:href="#textext-0e4ec13d-9"
           x="245.94099"
           y="207.99001"
           id="use3665" />
      </g>
    </g>
  </g>
</svg>
